SplineFontDB: 3.0
FontName: N-Dynamics
FullName: 
FamilyName: N
Weight: 
Copyright: 
UComments: "2011-5-24: Created." 
Version: 0
ItalicAngle: 0
UnderlinePosition: -100
UnderlineWidth: 50
Ascent: 800
Descent: 200
sfntRevision: 0x00000000
LayerCount: 2
Layer: 0 0 "Back"  1
Layer: 1 0 "Zeichenebene"  0
XUID: [1021 201 23757 16427]
FSType: 0
OS2Version: 0
OS2_WeightWidthSlopeOnly: 0
OS2_UseTypoMetrics: 1
CreationTime: 1306259327
ModificationTime: 1409117887
OS2TypoAscent: 0
OS2TypoAOffset: 1
OS2TypoDescent: 0
OS2TypoDOffset: 1
OS2TypoLinegap: 90
OS2WinAscent: 0
OS2WinAOffset: 1
OS2WinDescent: 0
OS2WinDOffset: 1
HheadAscent: 0
HheadAOffset: 1
HheadDescent: 0
HheadDOffset: 1
OS2Vendor: 'PfEd'
MarkAttachClasses: 1
DEI: 91125
LangName: 1033 
Encoding: UnicodeBmp
UnicodeInterp: none
NameList: Adobe Glyph List
DisplaySize: -72
AntiAlias: 1
FitToEm: 1
WinInfo: 536 8 7
BeginPrivate: 0
EndPrivate
BeginChars: 65536 258

StartChar: uni0240
Encoding: 576 576 1
Width: 300
VWidth: 573
Flags: HMW
HStem: -187 30<-55.5139 -0.936541> 226 34<26.5843 62 82 107.809 244.282 273 307 343.398> 405 30<300.146 355.514>
VStem: -112 56<-156.804 -97.5> 356 56<345.5 404.804>
LayerCount: 2
Fore
SplineSet
307 226 m 6
 333 226 342 226 344 242 c 4
 346 260 338 260 310 260 c 6
 273 260 l 2
 246 260 238 268 248 300 c 0
 266 353 294 405 338 405 c 0
 349 405 356 400 356 393 c 0
 356 380 339 376 330 368 c 0
 321 361 316 350 316 335 c 0
 316 309 334 295 355 295 c 0
 390 295 412 328 412 363 c 0
 412 382 405 399 391 414 c 0
 377 429 355 435 328 435 c 0
 305 435 281 428 257 414 c 0
 215 390 182 349 157 301 c 0
 141 270 125 260 90 260 c 2
 62 260 l 6
 36 260 28 260 26 244 c 4
 24 226 32 226 60 226 c 6
 82 226 l 2
 104 226 119 210 106 162 c 0
 90 100 79 40 57 -35 c 0
 40 -93 11 -157 -38 -157 c 0
 -49 -157 -56 -152 -56 -145 c 0
 -56 -132 -39 -128 -30 -120 c 0
 -21 -113 -16 -102 -16 -87 c 0
 -16 -61 -34 -47 -55 -47 c 0
 -90 -47 -112 -80 -112 -115 c 0
 -112 -134 -105 -151 -91 -166 c 0
 -77 -181 -55 -187 -28 -187 c 0
 -5 -187 19 -180 43 -166 c 0
 124 -120 168 -11 194 86 c 0
 202 119 209 150 217 184 c 0
 225 218 239 226 266 226 c 2
 307 226 l 6
EndSplineSet
EndChar

StartChar: uni0241
Encoding: 577 577 2
Width: 580
VWidth: 573
Flags: HMW
HStem: -187 30<-55.5139 -0.936541> 226 34<26.5843 62 82 107.809 244.282 273 307 343.398> 405 30<300.146 355.514>
VStem: -112 56<-156.804 -97.5> 356 56<345.5 404.804>
LayerCount: 2
Fore
SplineSet
587 226 m 2
 613 226 622 226 624 242 c 0
 626 260 618 260 590 260 c 2
 553 260 l 2
 526 260 518 268 528 300 c 0
 546 353 574 405 618 405 c 0
 629 405 636 400 636 393 c 0
 636 380 619 376 610 368 c 0
 601 361 596 350 596 335 c 0
 596 309 614 295 635 295 c 0
 670 295 692 328 692 363 c 0
 692 382 685 399 671 414 c 0
 657 429 635 435 608 435 c 0
 585 435 561.062 427.893 537 414 c 0
 495.108 389.812 462 349 437 301 c 0
 420.885 270.06 405 260 370 260 c 2
 273 260 l 2
 246 260 238 268 248 300 c 0
 266 353 294 405 338 405 c 0
 349 405 356 400 356 393 c 0
 356 380 339 376 330 368 c 0
 321 361 316 350 316 335 c 0
 316 309 334 295 355 295 c 0
 390 295 412 328 412 363 c 0
 412 382 405 399 391 414 c 0
 377 429 355 435 328 435 c 0
 305 435 281.062 427.893 257 414 c 0
 215.108 389.812 182 349 157 301 c 0
 140.885 270.06 125 260 90 260 c 2
 62 260 l 2
 36 260 28 260 26 244 c 0
 24 226 32 226 60 226 c 2
 82 226 l 2
 104 226 119 210 106 162 c 0
 90 100 78.9922 40.002 57 -35 c 0
 39.9941 -92.998 11 -157 -38 -157 c 0
 -49 -157 -56 -152 -56 -145 c 0
 -56 -132 -39 -128 -30 -120 c 0
 -21 -113 -16 -102 -16 -87 c 0
 -16 -61 -34 -47 -55 -47 c 0
 -90 -47 -112 -80 -112 -115 c 0
 -112 -134 -105 -151 -91 -166 c 0
 -77 -181 -55 -187 -28 -187 c 0
 -5 -187 19 -180 43 -166 c 0
 124 -120 168 -11 194 86 c 0
 202 119 209 150 217 184 c 0
 225 218 239 226 266 226 c 2
 362 226 l 2
 384 226 399 210 386 162 c 0
 370 100 358.992 40.002 337 -35 c 0
 319.994 -92.998 291 -157 242 -157 c 0
 231 -157 224 -152 224 -145 c 0
 224 -132 241 -128 250 -120 c 0
 259 -113 264 -102 264 -87 c 0
 264 -61 246 -47 225 -47 c 0
 190 -47 168 -80 168 -115 c 0
 168 -134 175 -151 189 -166 c 0
 203 -181 225 -187 252 -187 c 0
 275 -187 299 -180 323 -166 c 0
 404 -120 448 -11 474 86 c 0
 482 119 489 150 497 184 c 0
 505 218 519 226 546 226 c 2
 587 226 l 2
EndSplineSet
EndChar

StartChar: uni0242
Encoding: 578 578 3
Width: 860
VWidth: 573
Flags: HMW
HStem: -187 30<-55.5139 -0.936541> 226 34<26.5843 62 82 107.809 244.282 273 307 343.398> 405 30<300.146 355.514>
VStem: -112 56<-156.804 -97.5> 356 56<345.5 404.804>
LayerCount: 2
Fore
SplineSet
867 226 m 2
 893 226 902 226 904 242 c 0
 906 260 898 260 870 260 c 2
 833 260 l 2
 806 260 798 268 808 300 c 0
 826 353 854 405 898 405 c 0
 909 405 916 400 916 393 c 0
 916 380 899 376 890 368 c 0
 881 361 876 350 876 335 c 0
 876 309 894 295 915 295 c 0
 950 295 972 328 972 363 c 0
 972 382 965 399 951 414 c 0
 937 429 915 435 888 435 c 0
 865 435 841.062 427.893 817 414 c 0
 775.108 389.812 742 349 717 301 c 0
 700.885 270.06 685 260 650 260 c 2
 553 260 l 2
 526 260 518 268 528 300 c 0
 546 353 574 405 618 405 c 0
 629 405 636 400 636 393 c 0
 636 380 619 376 610 368 c 0
 601 361 596 350 596 335 c 0
 596 309 614 295 635 295 c 0
 670 295 692 328 692 363 c 0
 692 382 685 399 671 414 c 0
 657 429 635 435 608 435 c 0
 585 435 561.062 427.893 537 414 c 0
 495.108 389.812 462 349 437 301 c 0
 420.885 270.06 405 260 370 260 c 2
 273 260 l 2
 246 260 238 268 248 300 c 0
 266 353 294 405 338 405 c 0
 349 405 356 400 356 393 c 0
 356 380 339 376 330 368 c 0
 321 361 316 350 316 335 c 0
 316 309 334 295 355 295 c 0
 390 295 412 328 412 363 c 0
 412 382 405 399 391 414 c 0
 377 429 355 435 328 435 c 0
 305 435 281.062 427.893 257 414 c 0
 215.108 389.812 182 349 157 301 c 0
 140.885 270.06 125 260 90 260 c 2
 62 260 l 2
 36 260 28 260 26 244 c 0
 24 226 32 226 60 226 c 2
 82 226 l 2
 104 226 119 210 106 162 c 0
 90 100 78.9922 40.002 57 -35 c 0
 39.9941 -92.998 11 -157 -38 -157 c 0
 -49 -157 -56 -152 -56 -145 c 0
 -56 -132 -39 -128 -30 -120 c 0
 -21 -113 -16 -102 -16 -87 c 0
 -16 -61 -34 -47 -55 -47 c 0
 -90 -47 -112 -80 -112 -115 c 0
 -112 -134 -105 -151 -91 -166 c 0
 -77 -181 -55 -187 -28 -187 c 0
 -5 -187 19 -180 43 -166 c 0
 124 -120 168 -11 194 86 c 0
 202 119 209 150 217 184 c 0
 225 218 239 226 266 226 c 2
 362 226 l 2
 384 226 399 210 386 162 c 0
 370 100 358.992 40.002 337 -35 c 0
 319.994 -92.998 291 -157 242 -157 c 0
 231 -157 224 -152 224 -145 c 0
 224 -132 241 -128 250 -120 c 0
 259 -113 264 -102 264 -87 c 0
 264 -61 246 -47 225 -47 c 0
 190 -47 168 -80 168 -115 c 0
 168 -134 175 -151 189 -166 c 0
 203 -181 225 -187 252 -187 c 0
 275 -187 299 -180 323 -166 c 0
 404 -120 448 -11 474 86 c 0
 482 119 489 150 497 184 c 0
 505 218 519 226 546 226 c 2
 642 226 l 2
 664 226 679 210 666 162 c 0
 650 100 638.992 40.002 617 -35 c 0
 599.994 -92.998 571 -157 522 -157 c 0
 511 -157 504 -152 504 -145 c 0
 504 -132 521 -128 530 -120 c 0
 539 -113 544 -102 544 -87 c 0
 544 -61 526 -47 505 -47 c 0
 470 -47 448 -80 448 -115 c 0
 448 -134 455 -151 469 -166 c 0
 483 -181 505 -187 532 -187 c 0
 555 -187 579 -180 603 -166 c 0
 684 -120 728 -11 754 86 c 0
 762 119 769 150 777 184 c 0
 785 218 799 226 826 226 c 2
 867 226 l 2
EndSplineSet
EndChar

StartChar: uni0248
Encoding: 584 584 6
Width: 416
VWidth: 573
Flags: HMW
LayerCount: 2
Fore
SplineSet
-85 -166 m 0
 -85 -150 -77 -146 -60 -146 c 2
 -18 -146 l 2
 5 -146 21 -130 32 -98 c 2
 117 143 l 2
 126 167 133 189 133 201 c 0
 133 209 130 214 123 214 c 0
 106 214 59 182 30 106 c 0
 26 97 19 91 13 91 c 0
 8 91 3 96 3 106 c 0
 3 108 3 111 4 114 c 0
 18 186 102 276 178 276 c 0
 213 276 217 243 239 243 c 0
 258 243 284 276 339 276 c 0
 390 276 416 240 416 169 c 0
 416 79 343 -25 250 -25 c 0
 198 -25 196 1 176 1 c 0
 168 1 158 -6 153 -22 c 2
 123 -113 l 2
 121 -120 119 -126 119 -131 c 0
 119 -140 125 -146 146 -146 c 2
 197 -146 l 2
 206 -146 215 -148 215 -157 c 0
 215 -174 206 -177 193 -177 c 2
 -69 -177 l 2
 -82 -177 -85 -173 -85 -166 c 0
313 242 m 0
 255 242 206 124 206 57 c 0
 206 26 216 7 237 7 c 0
 267 7 287 55 311 131 c 0
 324 173 332 203 332 219 c 0
 332 234 326 242 313 242 c 0
EndSplineSet
EndChar

StartChar: uni0249
Encoding: 585 585 7
Width: 783
VWidth: 573
Flags: HMW
HStem: -167 31<282.301 381.524 486.004 581.684> -15 32<579.406 630.368> 252 1<622 625>
VStem: 502 71<67 218> 699 84<140.771 251.045>
LayerCount: 2
Fore
SplineSet
313 242 m 0
 255 242 206 124 206 57 c 0
 206 26 216 7 237 7 c 0
 267 7 287 55 311 131 c 0
 324 173 332 203 332 219 c 0
 332 234 326 242 313 242 c 0
-85 -166 m 0
 -85 -150 -77 -146 -60 -146 c 2
 -18 -146 l 2
 5 -146 21 -130 32 -98 c 2
 117 143 l 2
 126 167 133 189 133 201 c 0
 133 209 130 214 123 214 c 0
 106 214 59 182 30 106 c 0
 26 97 19 91 13 91 c 0
 8 91 3 96 3 106 c 0
 3 108 3 111 4 114 c 0
 18 186 102 276 178 276 c 0
 213 276 217 243 239 243 c 0
 258 243 284 276 339 276 c 0
 358 276 374 271 386 261 c 0
 410 241 417 228 429 228 c 0
 436 228 445 233 460 244 c 0
 487 263 517 276 545 276 c 0
 580 276 584 243 606 243 c 0
 625 243 651 276 706 276 c 0
 757 276 783 240 783 169 c 0
 783 79 710 -25 617 -25 c 0
 565 -25 563 1 543 1 c 0
 535 1 525 -6 520 -22 c 2
 490 -113 l 2
 488 -120 486 -126 486 -131 c 0
 486 -140 492 -146 513 -146 c 2
 564 -146 l 2
 573 -146 582 -148 582 -157 c 0
 582 -174 573 -177 560 -177 c 2
 298 -177 l 2
 285 -177 282 -173 282 -166 c 0
 282 -150 290 -146 307 -146 c 2
 349 -146 l 2
 372 -146 388 -130 399 -98 c 2
 484 143 l 2
 493 167 502 196 502 208 c 0
 502 216 499 221 492 221 c 0
 482 221 466 217 445 193 c 0
 420 165 410 110 391 72 c 0
 365 22 312 -25 250 -25 c 0
 198 -25 196 1 176 1 c 0
 168 1 158 -6 153 -22 c 2
 123 -113 l 2
 121 -120 119 -126 119 -131 c 0
 119 -140 125 -146 146 -146 c 2
 197 -146 l 2
 206 -146 215 -148 215 -157 c 0
 215 -174 206 -177 193 -177 c 2
 -69 -177 l 2
 -82 -177 -85 -173 -85 -166 c 0
680 242 m 0
 622 242 573 124 573 57 c 0
 573 26 583 7 604 7 c 0
 634 7 654 55 678 131 c 0
 691 173 699 203 699 219 c 0
 699 234 693 242 680 242 c 0
EndSplineSet
EndChar

StartChar: uni024A
Encoding: 586 586 8
Width: 1150
VWidth: 573
Flags: HMW
HStem: -167 31<282.301 381.524 486.004 581.684> -15 32<579.406 630.368> 252 1<622 625>
VStem: 502 71<67 218> 699 84<140.771 251.045>
LayerCount: 2
Fore
SplineSet
680 242 m 0
 622 242 573 124 573 57 c 0
 573 26 583 7 604 7 c 0
 634 7 654 55 678 131 c 0
 691 173 699 203 699 219 c 0
 699 234 693 242 680 242 c 0
-85 -166 m 0
 -85 -150 -77 -146 -60 -146 c 2
 -18 -146 l 2
 5 -146 21 -130 32 -98 c 2
 117 143 l 2
 126 167 133 189 133 201 c 0
 133 209 130 214 123 214 c 0
 106 214 59 182 30 106 c 0
 26 97 19 91 13 91 c 0
 8 91 3 96 3 106 c 0
 3 108 3 111 4 114 c 0
 18 186 102 276 178 276 c 0
 213 276 217 243 239 243 c 0
 258 243 284 276 339 276 c 0
 358 276 374 271 386 261 c 0
 410 241 417 228 429 228 c 0
 436 228 445 233 460 244 c 0
 487 263 517 276 545 276 c 0
 580 276 584 243 606 243 c 0
 625 243 651 276 706 276 c 0
 725 276 741 271 753 261 c 0
 777 241 784 228 796 228 c 0
 803 228 812 233 827 244 c 0
 854 263 884 276 912 276 c 0
 947 276 951 243 973 243 c 0
 992 243 1018 276 1073 276 c 0
 1124 276 1150 240 1150 169 c 0
 1150 79 1077 -25 984 -25 c 0
 932 -25 930 1 910 1 c 0
 902 1 892 -6 887 -22 c 2
 857 -113 l 2
 855 -120 853 -126 853 -131 c 0
 853 -140 859 -146 880 -146 c 2
 931 -146 l 2
 940 -146 949 -148 949 -157 c 0
 949 -174 940 -177 927 -177 c 2
 665 -177 l 2
 652 -177 649 -173 649 -166 c 0
 649 -150 657 -146 674 -146 c 2
 716 -146 l 2
 739 -146 755 -130 766 -98 c 2
 851 143 l 2
 860 167 869 196 869 208 c 0
 869 216 866 221 859 221 c 0
 849 221 833 217 812 193 c 0
 787 164 778 108 757 71 c 0
 725 18 678 -25 617 -25 c 0
 565 -25 563 1 543 1 c 0
 535 1 525 -6 520 -22 c 2
 490 -113 l 2
 488 -120 486 -126 486 -131 c 0
 486 -140 492 -146 513 -146 c 2
 564 -146 l 2
 573 -146 582 -148 582 -157 c 0
 582 -174 573 -177 560 -177 c 2
 298 -177 l 2
 285 -177 282 -173 282 -166 c 0
 282 -150 290 -146 307 -146 c 2
 349 -146 l 2
 372 -146 388 -130 399 -98 c 2
 484 143 l 2
 493 167 502 196 502 208 c 0
 502 216 499 221 492 221 c 0
 482 221 466 217 445 193 c 0
 419 163 410 105 385 63 c 0
 355 13 306 -25 250 -25 c 0
 198 -25 196 1 176 1 c 0
 168 1 158 -6 153 -22 c 2
 123 -113 l 2
 121 -120 119 -126 119 -131 c 0
 119 -140 125 -146 146 -146 c 2
 197 -146 l 2
 206 -146 215 -148 215 -157 c 0
 215 -174 206 -177 193 -177 c 2
 -69 -177 l 2
 -82 -177 -85 -173 -85 -166 c 0
313 242 m 0
 255 242 206 124 206 57 c 0
 206 26 216 7 237 7 c 0
 267 7 287 55 311 131 c 0
 324 173 332 203 332 219 c 0
 332 234 326 242 313 242 c 0
1047 242 m 0
 989 242 940 124 940 57 c 0
 940 26 950 7 971 7 c 0
 1001 7 1021 55 1045 131 c 0
 1058 173 1066 203 1066 219 c 0
 1066 234 1060 242 1047 242 c 0
EndSplineSet
EndChar

StartChar: uni024C
Encoding: 588 588 9
Width: 864
VWidth: 573
Flags: HMW
LayerCount: 2
Fore
SplineSet
363 -166 m 0
 363 -150 371 -146 388 -146 c 2
 430 -146 l 2
 453 -146 469 -130 480 -98 c 2
 565 143 l 2
 574 167 582 193 582 205 c 0
 582 213 579 218 572 218 c 0
 559.103 218 524.953 196.564 498.463 154.5 c 0
 477.148 120.652 453 132.647 473 167.288 c 0
 505.705 223.936 568.183 276 626 276 c 0
 661 276 665 243 687 243 c 0
 706 243 732 276 787 276 c 0
 838 276 864 240 864 169 c 0
 864 79 791 -25 698 -25 c 0
 646 -25 644 1 624 1 c 0
 616 1 606 -6 601 -22 c 2
 571 -113 l 2
 569 -120 567 -126 567 -131 c 0
 567 -140 573 -146 594 -146 c 2
 645 -146 l 2
 654 -146 663 -148 663 -157 c 0
 663 -174 654 -177 641 -177 c 2
 379 -177 l 2
 366 -177 363 -173 363 -166 c 0
761 242 m 0
 703 242 654 124 654 57 c 0
 654 26 664 7 685 7 c 0
 715 7 735 55 759 131 c 0
 772 173 780 203 780 219 c 0
 780 234 774 242 761 242 c 0
EndSplineSet
Refer: 11 569 N 1 0 0 1 -1 0 2
EndChar

StartChar: uni0238
Encoding: 568 568 10
Width: 246
VWidth: 573
Flags: HMW
LayerCount: 2
Fore
SplineSet
139 226 m 0
 119 226 88 215 88 191 c 0
 88 172 108 164 129 154 c 0
 164 137 194 121 194 79 c 0
 194 24 145 -8 88 -8 c 0
 40 -8 0 11 0 53 c 0
 0 79 16 100 40 100 c 0
 58 100 71 88 71 71 c 0
 71 51 56 49 56 36 c 0
 56 24 74 21 92 21 c 0
 121 21 143 37 143 60 c 0
 143 81 130 95 97 110 c 0
 66 124 42 140 42 173 c 0
 42 222 91 254 142 254 c 0
 186 254 221 231 221 192 c 0
 221 167 203 154 186 154 c 0
 171 154 156 164 156 181 c 0
 156 199 168 202 168 212 c 0
 168 219 160 226 139 226 c 0
EndSplineSet
EndChar

StartChar: uni0239
Encoding: 569 569 11
Width: 461
VWidth: 573
Flags: HMW
LayerCount: 2
Fore
SplineSet
288 206 m 0
 297 206 302 210 317 224 c 0
 334 240 358 254 381 254 c 0
 411 254 423 232 423 206 c 0
 423 175 406 145 388 109 c 0
 371 75 358 57 358 44 c 0
 358 35 363 26 374 26 c 0
 396 26 418 64 433 95 c 0
 437 103 445 108 451 108 c 0
 457 108 461 104 461 97 c 0
 461 94 460 90 458 85 c 0
 439 43 410 -7 360 -7 c 0
 331 -7 310 14 310 44 c 0
 310 75 328 108 353 149 c 1
 359 160 l 2
 370 179 381 196 381 210 c 0
 381 216 377 221 369 221 c 0
 339 221 270 142 243 79 c 2
 218 19 l 2
 212 6 206 0 197 0 c 2
 178 0 l 2
 171 0 168 4 168 10 c 0
 168 14 169 18 171 22 c 2
 225 166 l 2
 229 177 241 217 221 217 c 0
 209 217 197 209 178 190 c 0
 149 161 117 117 101 79 c 2
 76 19 l 2
 70 6 64 0 55 0 c 2
 36 0 l 2
 29 0 26 4 26 10 c 0
 26 14 27 18 29 22 c 2
 83 166 l 2
 88 179 90 190 90 199 c 0
 90 211 86 219 79 219 c 0
 73 219 66 215 57 204 c 0
 47 193 40 179 26 155 c 0
 21 147 15 142 9 142 c 0
 5 142 1 146 1 154 c 0
 1 166 14 193 32 217 c 0
 49 239 71 254 95 254 c 0
 111 254 122 247 128 235 c 0
 138 217 136 206 146 206 c 0
 155 206 160 210 175 224 c 0
 184 232 195 240 206 246 c 0
 217 251 227 254 239 254 c 0
 259 254 271 244 277 230 c 0
 280 223 278 206 288 206 c 0
EndSplineSet
EndChar

StartChar: uni023A
Encoding: 570 570 12
Width: 287
VWidth: 573
Flags: HMW
LayerCount: 2
Fore
SplineSet
219 214 m 0
 219 217 216 219 213 219 c 0
 209 219 203 217 194 210 c 0
 161 186 121 128 100 79 c 2
 75 19 l 2
 69 6 63 0 54 0 c 2
 35 0 l 2
 28 0 25 4 25 10 c 0
 25 14 26 18 28 22 c 2
 82 166 l 2
 87 179 89 190 89 199 c 0
 89 211 85 219 78 219 c 0
 72 219 65 215 56 204 c 0
 46 193 39 179 25 155 c 0
 20 147 14 142 8 142 c 0
 4 142 0 146 0 154 c 0
 0 166 13 193 31 217 c 0
 48 239 70 254 94 254 c 0
 110 254 119 247 125 235 c 0
 135 217 134 210 142 210 c 3
 151 210 152 210 167 224 c 0
 184 240 208 254 231 254 c 0
 261 254 280 230 280 204 c 0
 280 173 261 155 237 155 c 3
 217 155 208 167 208 185 c 3
 208 201 219 207 219 214 c 0
EndSplineSet
EndChar

StartChar: uni023B
Encoding: 571 571 13
Width: 303
VWidth: 573
Flags: HMW
LayerCount: 2
Fore
SplineSet
11 -4 m 0
 4 -4 0 2 0 9 c 0
 0 13 2 20 9 26 c 2
 43 55 l 2
 81 87 120 121 158 164 c 0
 165 171 169 178 169 183 c 0
 169 188 166 191 158 192 c 0
 139 193 127 196 118 196 c 0
 105 196 97 190 82 166 c 0
 68 145 49 148 60 176 c 2
 80 226 l 2
 86 239 89 247 101 247 c 0
 128 247 157 237 185 237 c 0
 225 237 236 242 257 242 c 0
 268 242 273 238 273 232 c 0
 273 223 254 204 217 176 c 0
 196 159 176 141 156 122 c 2
 122 90 l 2
 114 82 109 76 109 71 c 0
 109 66 114 62 125 56 c 0
 152 43 171 35 181 35 c 0
 199 35 209 45 209 56 c 0
 209 63 204 70 194 74 c 1
 183 77 175 85 175 95 c 0
 175 107 184 116 196 116 c 0
 223 116 239 96 239 68 c 0
 239 21 202 -12 159 -12 c 0
 122 -12 109 29 75 29 c 0
 53 29 32 9 21 0 c 0
 17 -3 14 -4 11 -4 c 0
EndSplineSet
EndChar

StartChar: uni0243
Encoding: 579 579 14
Width: 1140
VWidth: 573
Flags: HMW
HStem: -187 30<-55.5139 -0.936541> 226 34<26.5843 62 82 107.809 244.282 273 307 343.398> 405 30<300.146 355.514>
VStem: -112 56<-156.804 -97.5> 356 56<345.5 404.804>
LayerCount: 2
Fore
SplineSet
1147 226 m 2
 1173 226 1182 226 1184 242 c 0
 1186 260 1178 260 1150 260 c 2
 1113 260 l 2
 1086 260 1078 268 1088 300 c 0
 1106 353 1134 405 1178 405 c 0
 1189 405 1196 400 1196 393 c 0
 1196 380 1179 376 1170 368 c 0
 1161 361 1156 350 1156 335 c 0
 1156 309 1174 295 1195 295 c 0
 1230 295 1252 328 1252 363 c 0
 1252 382 1245 399 1231 414 c 0
 1217 429 1195 435 1168 435 c 0
 1145 435 1121.06 427.893 1097 414 c 0
 1055.11 389.812 1022 349 997 301 c 0
 980.885 270.06 965 260 930 260 c 2
 833 260 l 2
 806 260 798 268 808 300 c 0
 826 353 854 405 898 405 c 0
 909 405 916 400 916 393 c 0
 916 380 899 376 890 368 c 0
 881 361 876 350 876 335 c 0
 876 309 894 295 915 295 c 0
 950 295 972 328 972 363 c 0
 972 382 965 399 951 414 c 0
 937 429 915 435 888 435 c 0
 865 435 841.062 427.893 817 414 c 0
 775.108 389.812 742.001 349 717 301 c 0
 700.885 270.06 685 260 650 260 c 2
 553 260 l 2
 526 260 518 268 528 300 c 0
 546 353 574 405 618 405 c 0
 629 405 636 400 636 393 c 0
 636 380 619 376 610 368 c 0
 601 361 596 350 596 335 c 0
 596 309 614 295 635 295 c 0
 670 295 692 328 692 363 c 0
 692 382 685 399 671 414 c 0
 657 429 635 435 608 435 c 0
 585 435 561.062 427.893 537 414 c 0
 495.108 389.812 462 349 437 301 c 0
 420.885 270.06 405 260 370 260 c 2
 273 260 l 2
 246 260 238 268 248 300 c 0
 266 353 294 405 338 405 c 0
 349 405 356 400 356 393 c 0
 356 380 339 376 330 368 c 0
 321 361 316 350 316 335 c 0
 316 309 334 295 355 295 c 0
 390 295 412 328 412 363 c 0
 412 382 405 399 391 414 c 0
 377 429 355 435 328 435 c 0
 305 435 281.062 427.893 257 414 c 0
 215.108 389.812 182 349 157 301 c 0
 140.885 270.06 125 260 90 260 c 2
 62 260 l 2
 36 260 28 260 26 244 c 0
 24 226 32 226 60 226 c 2
 82 226 l 2
 104 226 119 210 106 162 c 0
 90 100 78.9922 40.002 57 -35 c 0
 39.9941 -92.998 11 -157 -38 -157 c 0
 -49 -157 -56 -152 -56 -145 c 0
 -56 -132 -39 -128 -30 -120 c 0
 -21 -113 -16 -102 -16 -87 c 0
 -16 -61 -34 -47 -55 -47 c 0
 -90 -47 -112 -80 -112 -115 c 0
 -112 -134 -105 -151 -91 -166 c 0
 -77 -181 -55 -187 -28 -187 c 0
 -5 -187 19 -180 43 -166 c 0
 124 -120 168 -11 194 86 c 0
 202 119 209 150 217 184 c 0
 225 218 239 226 266 226 c 2
 362 226 l 2
 384 226 399 210 386 162 c 0
 370 100 358.992 40.002 337 -35 c 0
 319.994 -92.998 291 -157 242 -157 c 0
 231 -157 224 -152 224 -145 c 0
 224 -132 241 -128 250 -120 c 0
 259 -113 264 -102 264 -87 c 0
 264 -61 246 -47 225 -47 c 0
 190 -47 168 -80 168 -115 c 0
 168 -134 175 -151 189 -166 c 0
 203 -181 225 -187 252 -187 c 0
 275 -187 299 -180 323 -166 c 0
 404 -120 448 -11 474 86 c 0
 482 119 489 150 497 184 c 0
 505 218 519 226 546 226 c 2
 642 226 l 2
 664 226 679 210 666 162 c 0
 650 100 638.992 40.002 617 -35 c 0
 599.994 -92.998 571 -157 522 -157 c 0
 511 -157 504 -152 504 -145 c 0
 504 -132 521 -128 530 -120 c 0
 539 -113 544 -102 544 -87 c 0
 544 -61 526 -47 505 -47 c 0
 470 -47 448 -80 448 -115 c 0
 448 -134 455 -151 469 -166 c 0
 483 -181 505 -187 532 -187 c 0
 555 -187 579 -180 603 -166 c 0
 684 -120 728 -11 754 86 c 0
 762 119 769 150 777 184 c 0
 785 218 799 226 826 226 c 2
 922 226 l 2
 944 226 959 210 946 162 c 0
 930 100 918.992 40.002 897 -35 c 0
 879.994 -92.998 851 -157 802 -157 c 0
 791 -157 784 -152 784 -145 c 0
 784 -132 801 -128 810 -120 c 0
 819 -113 824 -102 824 -87 c 0
 824 -61 806 -47 785 -47 c 0
 750 -47 728 -80 728 -115 c 0
 728 -134 735 -151 749 -166 c 0
 763 -181 785 -187 812 -187 c 0
 835 -187 859 -180 883 -166 c 0
 964 -120 1008 -11 1034 86 c 0
 1042 119 1049 150 1057 184 c 0
 1065 218 1079 226 1106 226 c 2
 1147 226 l 2
EndSplineSet
EndChar

StartChar: uni024B
Encoding: 587 587 15
Width: 1517
VWidth: 573
Flags: HMW
HStem: -167 31<282.301 381.524 486.004 581.684> -15 32<579.406 630.368> 252 1<622 625>
VStem: 502 71<67 218> 699 84<140.771 251.045>
LayerCount: 2
Fore
SplineSet
1047 242 m 0
 989 242 940 124 940 57 c 0
 940 26 950 7 971 7 c 0
 1001 7 1021 55 1045 131 c 0
 1058 173 1066 203 1066 219 c 0
 1066 234 1060 242 1047 242 c 0
313 242 m 0
 255 242 206 124 206 57 c 0
 206 26 216 7 237 7 c 0
 267 7 287 55 311 131 c 0
 324 173 332 203 332 219 c 0
 332 234 326 242 313 242 c 0
-85 -166 m 0
 -85 -150 -77 -146 -60 -146 c 2
 -18 -146 l 2
 5 -146 21 -130 32 -98 c 2
 117 143 l 2
 126 167 133 189 133 201 c 0
 133 209 130 214 123 214 c 0
 106 214 59 182 30 106 c 0
 26 97 19 91 13 91 c 0
 8 91 3 96 3 106 c 0
 3 108 3 111 4 114 c 0
 18 186 102 276 178 276 c 0
 213 276 217 243 239 243 c 0
 258 243 284 276 339 276 c 0
 358 276 374 271 386 261 c 0
 410 241 417 228 429 228 c 0
 436 228 445 233 460 244 c 0
 487 263 517 276 545 276 c 0
 580 276 584 243 606 243 c 0
 625 243 651 276 706 276 c 0
 725 276 741 271 753 261 c 0
 777 241 784 228 796 228 c 0
 803 228 812 233 827 244 c 0
 854 263 884 276 912 276 c 0
 947 276 951 243 973 243 c 0
 992 243 1018 276 1073 276 c 0
 1092 276 1108 271 1120 261 c 0
 1144 241 1151 228 1163 228 c 0
 1170 228 1179 233 1194 244 c 0
 1221 263 1251 276 1279 276 c 0
 1314 276 1318 243 1340 243 c 0
 1359 243 1385 276 1440 276 c 0
 1491 276 1517 240 1517 169 c 0
 1517 79 1444 -25 1351 -25 c 0
 1299 -25 1297 1 1277 1 c 0
 1269 1 1259 -6 1254 -22 c 2
 1224 -113 l 2
 1222 -120 1220 -126 1220 -131 c 0
 1220 -140 1226 -146 1247 -146 c 2
 1298 -146 l 2
 1307 -146 1316 -148 1316 -157 c 0
 1316 -174 1307 -177 1294 -177 c 2
 1032 -177 l 2
 1019 -177 1016 -173 1016 -166 c 0
 1016 -150 1024 -146 1041 -146 c 2
 1083 -146 l 2
 1106 -146 1122 -130 1133 -98 c 2
 1218 143 l 2
 1227 167 1236 196 1236 208 c 0
 1236 216 1233 221 1226 221 c 0
 1216 221 1200 217 1179 193 c 0
 1157 168 1147 121 1131 85 c 0
 1104 26 1049 -25 984 -25 c 0
 932 -25 930 1 910 1 c 0
 902 1 892 -6 887 -22 c 2
 857 -113 l 2
 855 -120 853 -126 853 -131 c 0
 853 -140 859 -146 880 -146 c 2
 931 -146 l 2
 940 -146 949 -148 949 -157 c 0
 949 -174 940 -177 927 -177 c 2
 665 -177 l 2
 652 -177 649 -173 649 -166 c 0
 649 -150 657 -146 674 -146 c 2
 716 -146 l 2
 739 -146 755 -130 766 -98 c 2
 851 143 l 2
 860 167 869 196 869 208 c 0
 869 216 866 221 859 221 c 0
 849 221 833 217 812 193 c 0
 787 164 778 108 757 71 c 1
 725 18 678 -25 617 -25 c 0
 565 -25 563 1 543 1 c 0
 535 1 525 -6 520 -22 c 2
 490 -113 l 2
 488 -120 486 -126 486 -131 c 0
 486 -140 492 -146 513 -146 c 2
 564 -146 l 2
 573 -146 582 -148 582 -157 c 0
 582 -174 573 -177 560 -177 c 2
 298 -177 l 2
 285 -177 282 -173 282 -166 c 0
 282 -150 290 -146 307 -146 c 2
 349 -146 l 2
 372 -146 388 -130 399 -98 c 2
 484 143 l 2
 493 167 502 196 502 208 c 0
 502 216 499 221 492 221 c 0
 482 221 466 217 445 193 c 0
 419 163 410 105 385 63 c 0
 355 13 306 -25 250 -25 c 0
 198 -25 196 1 176 1 c 0
 168 1 158 -6 153 -22 c 2
 123 -113 l 2
 121 -120 119 -126 119 -131 c 0
 119 -140 125 -146 146 -146 c 2
 197 -146 l 2
 206 -146 215 -148 215 -157 c 0
 215 -174 206 -177 193 -177 c 2
 -69 -177 l 2
 -82 -177 -85 -173 -85 -166 c 0
680 242 m 0
 622 242 573 124 573 57 c 0
 573 26 583 7 604 7 c 0
 634 7 654 55 678 131 c 0
 691 173 699 203 699 219 c 0
 699 234 693 242 680 242 c 0
1414 242 m 0
 1356 242 1307 124 1307 57 c 0
 1307 26 1317 7 1338 7 c 0
 1368 7 1388 55 1412 131 c 0
 1425 173 1433 203 1433 219 c 0
 1433 234 1427 242 1414 242 c 0
EndSplineSet
EndChar

StartChar: uni023C
Encoding: 572 572 32
Width: 178
VWidth: 573
Flags: HMW
LayerCount: 2
Fore
SplineSet
97 99 m 0
 87 80 49 26 87 26 c 0
 109 26 129 54 141 80 c 0
 145 88 153 93 159 93 c 0
 165 93 169 89 169 82 c 0
 169 79 168 75 166 70 c 0
 149 32 125 -7 75 -7 c 0
 46 -7 28 14 28 44 c 0
 28 75 40 104 59 139 c 0
 83 184 109 222 78 222 c 0
 61 222 41 194 28 168 c 0
 24 160 16 155 10 155 c 0
 4 155 0 159 0 166 c 0
 0 169 1 173 3 178 c 0
 20 216 43 255 93 255 c 0
 122 255 140 234 140 204 c 0
 140 173 117 138 97 99 c 0
144 310 m 0
 126 310 110 326 110 344 c 0
 110 362 125 377 144 377 c 0
 163 377 178 363 178 344 c 0
 178 325 162 310 144 310 c 0
EndSplineSet
EndChar

StartChar: uni023D
Encoding: 573 573 33
Width: 348
VWidth: 573
Flags: HMW
LayerCount: 2
Fore
SplineSet
8 142 m 0
 4 142 0 146 0 154 c 0
 0 166 13 193 31 217 c 0
 48 239 70 254 94 254 c 0
 110 254 121 247 127 235 c 0
 137 217 135 206 145 206 c 3
 154 206 159 210 174 224 c 0
 191 240 215 254 238 254 c 0
 268 254 280 232 280 206 c 0
 280 175 263 145 245 109 c 0
 228 75 215 57 215 44 c 0
 215 35 220 26 231 26 c 0
 253 26 275 64 290 95 c 0
 294 103 302 108 308 108 c 0
 314 108 318 104 318 97 c 0
 318 94 317 90 315 85 c 0
 296 43 267 -7 217 -7 c 0
 188 -7 167 14 167 44 c 0
 167 75 185 108 210 149 c 1
 216 160 l 2
 227 179 238 196 238 210 c 0
 238 216 234 221 226 221 c 0
 196 221 127 142 100 79 c 2
 75 19 l 2
 69 6 63 0 54 0 c 2
 35 0 l 2
 28 0 25 4 25 10 c 0
 25 14 26 18 28 22 c 2
 82 166 l 2
 87 179 89 190 89 199 c 0
 89 211 85 219 78 219 c 0
 72 219 65 215 56 204 c 0
 46 193 39 179 25 155 c 0
 20 147 14 142 8 142 c 0
EndSplineSet
EndChar

StartChar: uni031C
Encoding: 796 796 36
Width: 884
VWidth: 573
Flags: W
HStem: -194 31<351.381 447.546 540.004 620.664> -37 38<656.589 731.262> -8 39<357.5 414.448> -1 21G<26.5 32 59.5 66.5 166.5 172 199.5 206.5> 220 34<55.3855 103.998 190.348 243.998 330.45 387.498> 224 49<543.598 617.994 746.848 803.336>
VStem: 23 53<3.28714 19> 163 53<3.28714 19> 374 47<139.758 219.58> 599 45<57 201> 806 78<95.3708 223.708>
LayerCount: 2
Fore
SplineSet
235 254 m 0x9be0
 254 254 269 247 275 230 c 1
 281 217 287 212 293 212 c 0
 299 212 306 217 314 224 c 0x87e0
 333 242 355 254 375 254 c 0
 401 254 421 240 421 208 c 0
 421 192 415 172 405 147 c 2
 378 77 l 2
 372 62 361 31 385 31 c 0xabe0
 418 31 448 106 463 134 c 0
 498 203 530 273 612 273 c 0
 637 273 655 260 668 242 c 0
 678 228 684 221 693 221 c 0
 700 221 708 225 720 234 c 0
 747 254 775 269 801 269 c 0
 843 269 884 247 884 178 c 0
 884 75 807 -37 708 -37 c 0xc7e0
 675 -37 658 -25 643 -11 c 0
 633 -2 625 2 618 2 c 0
 608 2 602 -8 596 -21 c 2
 547 -129 l 2
 543 -138 540 -145 540 -151 c 0
 540 -159 546 -163 560 -163 c 2
 609 -163 l 2
 618 -163 621 -168 621 -174 c 0
 621 -187 614 -194 601 -194 c 2
 361 -194 l 2
 353 -194 351 -190 351 -184 c 0
 351 -171 356 -163 369 -163 c 2
 411 -163 l 2
 440 -163 445 -155 455 -133 c 2
 578 135 l 2
 590 161 599 185 599 201 c 0
 599 215 595 224 578 224 c 0
 541 224 519 173 488 118 c 0
 463 71 429 -8 370 -8 c 0xa7e0
 345 -8 323 6 323 38 c 0
 323 54 327 74 337 99 c 2
 369 184 l 2
 372 193 374 200 374 205 c 0
 374 215 368 220 360 220 c 0
 341 220 314 197 290 166 c 1
 268 140 251 111 238 77 c 2
 216 19 l 2
 209 3 210 -1 203 -1 c 0
 196 -1 195 3 187 3 c 0
 177 3 176 -1 168 -1 c 0
 165 -1 163 1 163 4 c 0
 163 6 164 10 166 14 c 2
 229 184 l 2
 232 193 234 200 234 205 c 0
 234 215 228 220 220 220 c 0
 200 220 173 197 148 166 c 1
 128 139 112 113 99 78 c 2
 76 19 l 2
 69 3 70 -1 63 -1 c 0
 56 -1 55 3 47 3 c 0
 37 3 36 -1 28 -1 c 0
 25 -1 23 1 23 4 c 0
 23 6 24 10 26 14 c 2
 89 184 l 2
 92 192 93 198 93 203 c 0
 93 213 87 217 82 217 c 0
 60 217 43 192 20 147 c 0
 16 140 11 136 6 136 c 0
 1 136 -2 140 -2 148 c 0
 -2 151 -2 155 0 159 c 0
 19 212 55 254 95 254 c 0
 115 254 130 246 136 227 c 0
 141 213 146 207 151 207 c 0
 156 207 162 213 169 220 c 0
 190 240 213 254 235 254 c 0x9be0
776 225 m 0
 723 225 644 133 644 57 c 0
 644 29 665 1 689 1 c 0xc3e0
 747 1 806 112 806 184 c 0
 806 213 793 225 776 225 c 0
EndSplineSet
EndChar

StartChar: uni0320
Encoding: 800 800 37
Width: 752
VWidth: 0
Flags: W
HStem: -194 31<-89.6189 6.54609 99.0044 179.664> -37 38<215.922 290.262> 224 49<99.6745 181.5 305.848 362.336>
VStem: 158 45<57 201> 365 78<95.3708 223.708>
LayerCount: 2
Fore
SplineSet
489 -174 m 0
 489 -187 482 -194 469 -194 c 2
 229 -194 l 2
 221 -194 219 -190 219 -184 c 0
 219 -171 224 -163 237 -163 c 2
 279 -163 l 2
 308 -163 313 -155 323 -133 c 2
 446 135 l 2
 458 161 467 185 467 201 c 0
 467 215 461 224 444 224 c 0
 406 224 366 158 335 93 c 0
 329 81 321 76 315 76 c 0
 310 76 305 80 305 88 c 0
 305 92 306 97 309 103 c 0
 345 186 388 273 478 273 c 0
 503 273 523 260 536 242 c 0
 546 228 552 221 561 221 c 0
 568 221 576 225 588 234 c 0
 615 254 643 269 669 269 c 0
 711 269 752 247 752 178 c 0
 752 75 675 -37 576 -37 c 0
 543 -37 525.667 -25.333 511 -11 c 0
 501.378 -1.59668 493 2 486 2 c 0
 476 2 470 -8 464 -21 c 2
 415 -129 l 2
 411 -138 408 -145 408 -151 c 0
 408 -159 414 -163 428 -163 c 2
 477 -163 l 2
 486 -163 489 -168 489 -174 c 0
644 225 m 0
 591 225 512 133 512 57 c 0
 512 29 533 1 557 1 c 0
 615 1 674 112 674 184 c 0
 674 213 661 225 644 225 c 0
346 426 m 0
 390.333 426 428 398 428 357 c 0
 428 328 407 305 378 305 c 0
 358 305 341 319 341 339 c 0
 341 374 368 377 368 389 c 0
 368 396 359 399 350 399 c 0
 311 399 285 359 255 274 c 0
 247 248 253 238 274 238 c 2
 324 238 l 2
 332 238 338 236 334 223 c 0
 330 211 325 207 314 207 c 2
 268 207 l 2
 246 207 234 204 227 177 c 2
 217 141 l 2
 165 -49 71.5 -189 -29 -189 c 0
 -75 -189 -110 -158 -110 -116 c 0
 -110 -87 -89 -62 -60 -62 c 0
 -39 -62 -19 -75 -19 -98 c 0
 -19 -137 -47 -137 -47 -151 c 0
 -47 -157 -43 -161 -32 -161 c 0
 40 -161 82 -16 128 136 c 2
 142 180 l 2
 146 196 147 207 118 207 c 2
 70 207 l 2
 62 207 56 211 60 225 c 0
 63 237 70 238 82 238 c 2
 130 238 l 2
 155 238 163 245 173 268 c 0
 213 364 266 426 346 426 c 0
EndSplineSet
EndChar

StartChar: uni024E
Encoding: 590 590 38
Width: 783
VWidth: 573
Flags: W
HStem: -163 27<283.015 379.171 486.166 578.929> -15 27<582.71 626.609> 238 48<476.449 564> 257 29<650.051 731.5>
VStem: 383 25.028<105.667 167.496> 503 70<67 224> 700 83<142.918 256.332>
LayerCount: 2
Fore
SplineSet
383 273.059 m 1xee
 390.921 267.192 397.428 259.335 402.504 249.5 c 0
 416.264 222.842 425.086 224.69 448 244.054 c 0
 477.605 269.072 512.052 286 545 286 c 0xee
 583 286 583 250 607 250 c 0
 626 250 651 286 706 286 c 0xde
 757 286 783 250 783 179 c 0
 783 89 710 -15 617 -15 c 0
 565 -15 562 16 542 16 c 0
 534 16 527 9 522 -7 c 2
 490 -103 l 2
 488 -109 486 -115 486 -120 c 0
 486 -130 492 -136 513 -136 c 2
 564 -136 l 2
 574 -136 579 -138 579 -148 c 0
 579 -158 573 -163 560 -163 c 2
 298 -163 l 2
 288 -163 283 -158 283 -150 c 0
 283 -139 290 -136 307 -136 c 2
 349 -136 l 2
 372 -136 387.745 -119.911 399 -88 c 2
 484 153 l 2
 495.993 187.003 503 214 503 224 c 0
 503 234 499 238 493 238 c 0
 478.648 238 459.49 224.268 441 203.374 c 0
 420.892 180.651 418.796 162.444 408.028 125.5 c 0
 402.368 106.081 393.854 87.0756 383 69.631 c 1
 383 273.059 l 1xee
681 257 m 0xde
 623 257 573 134 573 67 c 0
 573 36 583 12 604 12 c 0
 632 12 654 65 678 141 c 0
 691 183 700 215 700 234 c 0
 700 249 694 257 681 257 c 0xde
EndSplineSet
EndChar

StartChar: uni0228
Encoding: 552 552 39
Width: 0
VWidth: 573
Flags: HW
HStem: -311 30<-205.79 -151.995> 281 30<152.007 205.79>
VStem: -262 56<-280.804 -221.5> 206 56<221.5 280.804>
LayerCount: 2
Fore
SplineSet
-44 38 m 0
 -18 136 26 244 107 290 c 0
 131 304 155 311 178 311 c 0
 205 311 227 305 241 290 c 0
 255 275 262 258 262 239 c 0
 262 204 240 171 205 171 c 0
 184 171 166 185 166 211 c 0
 166 226 171 237 180 244 c 0
 189 252 206 256 206 269 c 0
 206 276 199 281 188 281 c 0
 139 281 110 217 93 159 c 0
 71 84 60 25 44 -38 c 0
 18 -135 -26 -244 -107 -290 c 0
 -131 -304 -155 -311 -178 -311 c 0
 -205 -311 -227 -305 -241 -290 c 0
 -255 -275 -262 -258 -262 -239 c 0
 -262 -204 -240 -171 -205 -171 c 0
 -184 -171 -166 -185 -166 -211 c 0
 -166 -226 -171 -237 -180 -244 c 0
 -189 -252 -206 -256 -206 -269 c 0
 -206 -276 -199 -281 -188 -281 c 0
 -139 -281 -110 -217 -93 -159 c 0
 -71 -84 -60 -24 -44 38 c 0
EndSplineSet
EndChar

StartChar: uni0229
Encoding: 553 553 40
Width: 300
VWidth: 573
Flags: W
HStem: -177 30<-55.5139 -0.936541> 415 30<300.937 355.514>
VStem: -112 56<-146.804 -87.5> 356 56<355.5 414.804>
LayerCount: 2
Fore
SplineSet
106 172 m 0
 132 270 176 378 257 424 c 0
 281 438 305 445 328 445 c 0
 355 445 377 439 391 424 c 0
 405 409 412 392 412 373 c 0
 412 338 390 305 355 305 c 0
 334 305 316 319 316 345 c 0
 316 360 321 371 330 378 c 0
 339 386 356 390 356 403 c 0
 356 410 349 415 338 415 c 0
 289 415 260 351 243 293 c 0
 221 218 210 159 194 96 c 0
 168 -1 124 -110 43 -156 c 0
 19 -170 -5 -177 -28 -177 c 0
 -55 -177 -77 -171 -91 -156 c 0
 -105 -141 -112 -124 -112 -105 c 0
 -112 -70 -90 -37 -55 -37 c 0
 -34 -37 -16 -51 -16 -77 c 0
 -16 -92 -21 -103 -30 -110 c 0
 -39 -118 -56 -122 -56 -135 c 0
 -56 -142 -49 -147 -38 -147 c 0
 11 -147 40 -83 57 -25 c 0
 79 50 90 110 106 172 c 0
EndSplineSet
EndChar

StartChar: uni022A
Encoding: 554 554 41
Width: 300
VWidth: 573
Flags: W
HStem: -177 30<-55.5139 -0.936541> 236 34<26.5843 62 82 107.809 244.282 273 307 343.398> 415 30<300.146 355.514>
VStem: -112 56<-146.804 -87.5> 356 56<355.5 414.804>
LayerCount: 2
Fore
SplineSet
307 236 m 6
 333 236 342 236 344 252 c 4
 346 270 338 270 310 270 c 6
 273 270 l 2
 246 270 238 278 248 310 c 0
 266 363 294 415 338 415 c 0
 349 415 356 410 356 403 c 0
 356 390 339 386 330 378 c 0
 321 371 316 360 316 345 c 0
 316 319 334 305 355 305 c 0
 390 305 412 338 412 373 c 0
 412 392 405 409 391 424 c 0
 377 439 355 445 328 445 c 0
 305 445 281 438 257 424 c 0
 215 400 182 359 157 311 c 0
 141 280 125 270 90 270 c 2
 62 270 l 6
 36 270 28 270 26 254 c 4
 24 236 32 236 60 236 c 6
 82 236 l 2
 104 236 119 220 106 172 c 0
 90 110 79 50 57 -25 c 0
 40 -83 11 -147 -38 -147 c 0
 -49 -147 -56 -142 -56 -135 c 0
 -56 -122 -39 -118 -30 -110 c 0
 -21 -103 -16 -92 -16 -77 c 0
 -16 -51 -34 -37 -55 -37 c 0
 -90 -37 -112 -70 -112 -105 c 0
 -112 -124 -105 -141 -91 -156 c 0
 -77 -171 -55 -177 -28 -177 c 0
 -5 -177 19 -170 43 -156 c 0
 124 -110 168 -1 194 96 c 0
 202 129 209 160 217 194 c 0
 225 228 239 236 266 236 c 2
 307 236 l 6
EndSplineSet
EndChar

StartChar: uni024F
Encoding: 591 591 42
Width: 783
VWidth: 573
Flags: HW
HStem: -167 31<282.301 381.524 486.004 581.684> -15 32<579.406 630.368> 252 1<622 625>
VStem: 502 71<67 218> 699 84<140.771 251.045>
LayerCount: 2
Fore
SplineSet
386 261 m 4
 410 241 417 228 429 228 c 4
 436 228 445 233 460 244 c 4
 487 263 517 276 545 276 c 4
 580 276 584 243 606 243 c 4
 625 243 651 276 706 276 c 4
 757 276 783 240 783 169 c 4
 783 79 710 -25 617 -25 c 4
 565 -25 563 1 543 1 c 4
 535 1 525 -6 520 -22 c 6
 490 -113 l 6
 488 -120 486 -126 486 -131 c 4
 486 -140 492 -146 513 -146 c 6
 564 -146 l 6
 573 -146 582 -148 582 -157 c 4
 582 -174 573 -177 560 -177 c 6
 298 -177 l 6
 285 -177 282 -173 282 -166 c 4
 282 -150 290 -146 307 -146 c 6
 349 -146 l 6
 372 -146 388 -130 399 -98 c 6
 484 143 l 6
 493 167 502 196 502 208 c 4
 502 216 499 221 492 221 c 4
 482 221 466 217 445 193 c 4
 423 168 413 121 397 85 c 4
 369 25 362.84 71.5801 341 63 c 21
 340.5 267.5 l 13
 358.245 264.965 374 271 386 261 c 4
680 242 m 4
 622 242 573 124 573 57 c 4
 573 26 583 7 604 7 c 4
 634 7 654 55 678 131 c 4
 691 173 699 203 699 219 c 4
 699 234 693 242 680 242 c 4
EndSplineSet
EndChar

StartChar: uni0280
Encoding: 640 640 43
Width: 1000
VWidth: 0
Flags: W
HStem: -25 18<290.832 323.498> 167 4.33333<268.998 278.459> 178 4.66667<137.333 156.396> 195.333 33.667<56.7952 112.131>
VStem: 0 54.5<4.77422 64.5638> 79 48.6667<182.67 195.33> 131 45<-7.87383 57.1358> 254 36.5<-6.75725 51.8635> 311 45.6667<104.708 183.023>
LayerCount: 2
Fore
SplineSet
106.333 229 m 7
 117.929 229 128.333 222.751 128.333 209 c 7
 128.333 202.625 127.667 199.042 127.667 192.667 c 31
 127.667 187.332 131.666 182.667 137 182.667 c 7
 156.396 182.667 178.665 212.667 212.667 212.667 c 7
 255 212.667 232.333 171.333 256.667 171.333 c 7
 278.459 171.333 292.625 200 326.333 200 c 7
 343.719 200 356.667 184.719 356.667 167.333 c 7
 356.667 148.952 346.758 128.123 322.608 80.5 c 4
 297 30 290.5 18 290.5 3 c 7
 290.5 -3.86914 295.455 -7 305 -7 c 7
 330.75 -7 333.998 30.5 350.5 30.5 c 7
 353.123 30.5 355.5 28.623 355.5 26 c 7
 355.5 19.8153 349 10 338 -3.5 c 4
 327.555 -16.319 313.149 -25 295.5 -25 c 7
 271.667 -25 254 -10.0547 254 11.5 c 7
 254 56.7109 311 125.927 311 148 c 7
 311 158.479 302.479 167 292 167 c 7
 268.998 167 238.716 137.67 212.5 87 c 4
 192.667 48.6667 189.667 39 176 7 c 4
 170.999 -4.70996 168.012 -8 149 -8 c 7
 133.663 -8 131 -3.2373 131 7 c 7
 131 35.002 194.5 119.875 194.5 160 c 7
 194.5 169.782 191.728 178 183.5 178 c 7
 137.333 178 118.333 144 91.5 96 c 4
 75.0709 66.6113 70 49.5 54.5 18 c 4
 48.4403 5.68509 41.3341 4.5 22 4.5 c 7
 11.3906 4.5 0 9.89062 0 20.5 c 7
 0 41.7322 79 153.291 79 185 c 7
 79 191.343 75.5918 195.333 70.332 195.333 c 7
 48.6027 195.333 27.3435 140 11 140 c 7
 4.65137 140 3 144.318 3 150.667 c 7
 3 163.684 49.999 229 106.333 229 c 7
EndSplineSet
EndChar

StartChar: uni0281
Encoding: 641 641 44
Width: 370
VWidth: 0
Flags: W
HStem: -8 20<306.509 338.468> 185 44<44.7345 101.499 166.068 213.499> 185 6<137 155 261 273>
VStem: 8 52<-1.58594 21> 133 52<-1.58594 21> 267 39<12.031 85.4844> 307 47<102.367 201.93>
LayerCount: 2
Fore
SplineSet
60 138 m 2xde
 10 19 l 2
 9 15 8 12 8 9 c 0
 8 -0 16 -2 25 -2 c 2
 32 -2 l 2
 52 -2 54 7 60 21 c 2
 96 106 l 2
 111 143 137 185 174 185 c 0xde
 185 185 189 176 189 164 c 0
 189 151 183 133 179 123 c 2
 135 19 l 2
 134 15 133 12 133 9 c 0
 133 -0 141 -2 150 -2 c 2
 157 -2 l 2
 177 -2 179 7 185 21 c 2
 221 106 l 2
 236 143 261 185 293 185 c 0
 303 185 307 177 307 166 c 0
 307 152 301 134 296 123 c 2
 275 74 l 2
 270 61 267 48 267 38 c 0
 267 10 283 -8 308 -8 c 11
 338 -8 354 11 368 41 c 0
 369 43 370 45 370 47 c 0
 370 51 368 53 364 53 c 0
 361 53 357 50 354 45 c 0
 343 27 336 12 317 12 c 3
 309 12 306 17 306 25 c 0
 306 37 313 55 317 65 c 10
 340 122 l 18
 348 143 354 164 354 182 c 0
 354 204 345 220 323 220 c 3
 289 220 273 190 251 190 c 3
 234 190 238 223 208 223 c 3
 173 223 155 191 132 191 c 3xbe
 111 191 131 229 98 229 c 3
 53 229 16 182 2 150 c 0
 1 147 -0 144 -0 141 c 0
 -0 136 2 133 5 133 c 0
 8 133 12 135 16 140 c 0
 32 162 45 188 64 188 c 3
 70 188 72 184 72 178 c 0
 72 167 65 150 60 138 c 2xde
EndSplineSet
EndChar

StartChar: uni0289
Encoding: 649 649 45
Width: 1000
VWidth: 0
Flags: W
HStem: -157.5 21.5<-73.772 2.50393 98.5794 160.134> -28 30.5<547.722 603.577> -20 30.5<202.222 258.077> 213.334 36.666<631.593 701.502> 221.334 36.666<101.955 182 286.093 356.002>
VStem: 144.501 81.4987<148.845 218.803> 333.5 73.5<102.557 221.216> 521 15.5<23.6819 93.5194> 679 73.5<94.5568 213.216>
LayerCount: 2
Fore
SplineSet
312.166 221.334 m 7xaf80
 265.5 221.334 191 134.007 191 65 c 7
 191 39.9482 204.15 10.5 225 10.5 c 7
 258.843 10.5 288.086 55.1719 310.5 100 c 4
 324.5 128 333.5 158.009 333.5 181 c 7
 333.5 206.676 327.113 221.334 312.166 221.334 c 7xaf80
338 258 m 7
 374.004 258 407 226.512 407 182.5 c 7
 407 88.5 334.112 -20 244 -20 c 7
 186.283 -20 175.5 33.1348 175.5 67.5 c 7
 175.5 121.01 257.998 258 338 258 c 7
657.666 213.334 m 3xd780
 611 213.334 536.5 126.007 536.5 57 c 3
 536.5 31.9482 549.65 2.5 570.5 2.5 c 3
 604.343 2.5 633.586 47.1715 656 92 c 0
 670 120 679 150.009 679 173 c 3
 679 198.675 672.613 213.334 657.666 213.334 c 3xd780
683.5 250 m 3
 719.503 250 752.5 218.511 752.5 174.5 c 3
 752.5 80.5 679.612 -28 589.5 -28 c 3
 531.783 -28 521 25.1343 521 59.5 c 7
 521 113.01 603.498 250 683.5 250 c 3
144.333 -157.5 m 6
 -63.6667 -157.5 l 6
 -71.6667 -157.5 -74.6667 -156 -73.9535 -148 c 4
 -73.0269 -137.606 -67.6667 -136 -57.3333 -136 c 6
 -28.3333 -136 l 6
 -2 -136 1.97173 -129.341 11.4795 -108.667 c 6
 124 136 l 6
 135.435 160.864 144.501 189.333 144.501 202.573 c 4
 144.501 214.805 138.795 219.316 131.188 219.316 c 4
 96 219.316 57.9379 144.948 32 98 c 4
 25.7191 86.6316 21.2695 81.25 15.75 81.25 c 4
 10.75 81.25 5.5095 84.1292 5.5095 89.7059 c 4
 5.5095 93.5537 6.83802 98.676 10 105 c 4
 41 171 86 262 164 262 c 4
 200 262 226 230 226 194 c 4
 226 167 214.569 141.2 204 118 c 6
 102.255 -105.333 l 6
 92.3891 -126.988 95.25 -136 115.333 -136 c 6
 150.333 -136 l 6
 158.167 -136 161.5 -140 160.209 -147 c 4
 158.678 -155.306 153 -157.5 144.333 -157.5 c 6
EndSplineSet
EndChar

StartChar: uni028A
Encoding: 650 650 46
Width: 448
VWidth: 0
Flags: W
HStem: -179 31<-80.8053 5.54609 108.23 175.948> -22 36<220.78 287.506> 239 49<112.886 192.5 313.79 391.5>
VStem: 367 81<120.311 238.709>
LayerCount: 2
Fore
SplineSet
157 -179 m 2
 -71 -179 l 2
 -80 -179 -82 -174 -81 -165 c 0
 -80 -154 -75 -148 -63 -148 c 2
 -31 -148 l 2
 -2 -148 3 -140 13 -118 c 2
 136 150 l 2
 148 177 160 208 160 223 c 0
 160 236 154 239 145 239 c 0
 107 239 64 160 35 108 c 0
 29 96 23 89 18 89 c 0
 12 89 5 94 5 101 c 0
 5 105 6 111 9 118 c 0
 43 190 90 288 180 288 c 0
 205 288 224 276 236 257 c 0
 252 231 259 228 287 249 c 0
 316 270 344 284 372 284 c 0
 411 284 448 250 448 200 c 0
 448 97 367 -22 268 -22 c 0
 240 -22 223 -10 209 4 c 0
 181 28 171 14 162 -6 c 2
 113 -114 l 2
 102 -138 104 -148 126 -148 c 2
 165 -148 l 2
 177 -148 178 -157 176 -165 c 0
 175 -174 167 -179 157 -179 c 2
210 72 m 0
 210 44 224 14 248 14 c 0
 288 14 317 60 341 110 c 0
 356 141 367 174 367 199 c 0
 367 228 356 240 339 240 c 0
 305 240 260 199 233 150 c 0
 218 122 210 101 210 72 c 0
EndSplineSet
EndChar

StartChar: uni028C
Encoding: 652 652 47
Width: 448
VWidth: 0
Flags: W
HStem: -179 29<-60.9365 23.8691 107.322 175.948> -22 30.5<234.681 291.673> 241 47<133.039 202 317.141 374.47>
VStem: 180 43<66 223> 377 71<116.156 243.91>
LayerCount: 2
Fore
SplineSet
157 -179 m 2
 -51 -179 l 2
 -60 -179 -62 -174 -61 -165 c 0
 -60 -154 -55 -150 -43 -150 c 2
 -11 -150 l 2
 18 -150 22 -142 32 -120 c 2
 156 150 l 2
 168 177 180 208 180 223 c 0
 180 236 173 241 164 241 c 0
 126 241 84 160 55 108 c 0
 49 96 43 89 38 89 c 0
 32 89 27 92 27 99 c 0
 27 103 28 109 31 116 c 0
 65 188 116 288 190 288 c 0
 214 288 233 270 243 243 c 0
 253 218 260 217 279 235 c 0
 308 264 340 284 372 284 c 0
 411 284 448 250 448 200 c 0
 448 97 367 -22 268 -22 c 0
 235 -22 216 -6 206 14 c 0
 194 37 184 40 172 15 c 2
 112 -116 l 2
 101 -140 104 -150 126 -150 c 2
 165 -150 l 2
 177 -150 178 -157 176 -165 c 0
 175 -174 167 -179 157 -179 c 2
223 66 m 0
 223 38 236 8.5 260 8.5 c 0
 311.64 8.5 377 135.075 377 201.5 c 0
 377 230.5 365 245.5 348 245.5 c 0
 296.129 245.5 223 141.345 223 66 c 0
EndSplineSet
EndChar

StartChar: uni0282
Encoding: 642 642 48
Width: 335
VWidth: 0
Flags: W
HStem: -176 22<-52.1561 -0.417114> 240 28<77.1897 154.286 260.869 333.811> 437 26<329.439 384.133>
VStem: -110 57<-152.438 -88> 385 60<378 436.872>
LayerCount: 2
Fore
SplineSet
359 463 m 0
 403 463 445 436 445 393 c 0
 445 363 422 338 392 338 c 0
 371 338 353 353 353 374 c 0
 353 410 385 414 385 427 c 0
 385 434 373 437 363 437 c 0
 323 437 295 395 264 306 c 0
 255 279 262 268 284 268 c 2
 324 268 l 2
 333 268 338 267 334 254 c 0
 330 242 324 240 313 240 c 2
 277 240 l 2
 254 240 242 233 234 205 c 2
 224 167 l 2
 170 -32 76 -176 -26 -176 c 0
 -69 -176 -110 -147 -110 -103 c 0
 -110 -73 -85 -50 -55 -50 c 0
 -35 -50 -15 -62 -15 -81 c 0
 -15 -122 -53 -126 -53 -140 c 0
 -53 -151 -44 -154 -31 -154 c 0
 42 -154 89 2 138 162 c 2
 152 208 l 2
 157 224 158 240 128 240 c 2
 88 240 l 2
 80 240 73 242 77 256 c 0
 81 269 88 268 100 268 c 2
 140 268 l 2
 167 268 175 275 186 300 c 0
 228 400 279 463 359 463 c 0
EndSplineSet
EndChar

StartChar: uni028B
Encoding: 651 651 49
Width: 448
VWidth: 0
Flags: W
HStem: -179 29<-80.9365 3.86906 107.322 175.948> -22 34<231.934 289.784> 241 47<115.622 194.75 317.118 391.5>
VStem: 160 64.5<72.5 223> 368.5 79.5<112.526 238.698>
LayerCount: 2
Fore
SplineSet
157 -179 m 2
 -71 -179 l 2
 -80 -179 -82 -174 -81 -165 c 0
 -80 -154 -75 -150 -63 -150 c 2
 -31 -150 l 2
 -2 -150 2 -142 12 -120 c 2
 136 150 l 2
 148 177 160 208 160 223 c 0
 160 236 153 241 144 241 c 0
 106 241 64 160 35 108 c 0
 29 96 23 89 18 89 c 0
 12 89 7 92 7 99 c 0
 7 103 8 109 11 116 c 0
 45 188 96 288 179 288 c 0
 210.5 288 233 270 243 243 c 0
 253 218 260 217 279 235 c 0
 308 264 340 284 372 284 c 0
 411 284 448 250 448 200 c 0
 448 97 367 -22 268 -22 c 0
 235 -22 216 -6 206 14 c 0
 194 37 184 40 172 15 c 2
 112 -116 l 2
 101 -140 104 -150 126 -150 c 2
 165 -150 l 2
 177 -150 178 -157 176 -165 c 0
 175 -174 167 -179 157 -179 c 2
224.5 72.5 m 0
 224.5 44.5 230 12 254 12 c 0
 305.64 12 368.5 130.075 368.5 196.5 c 0
 368.5 225.5 356.5 240.5 339.5 240.5 c 0
 287.629 240.5 224.5 147.845 224.5 72.5 c 0
EndSplineSet
EndChar

StartChar: uni0287
Encoding: 647 647 50
Width: 300
Flags: W
HStem: -187 30<-55.5139 -0.936541> 226 34<26.5843 62 82 107.809 244.783 273 307 343.398> 405 30<300.146 355.514>
VStem: -112 56<-156.804 -97.5> 356 56<345.5 404.804>
LayerCount: 2
Fore
SplineSet
307 226 m 0
 333 226 342 226 344 242 c 0
 346 260 338 260 310 260 c 0
 273 260 l 0
 246 260 238 268 248 300 c 0
 266 353 294 405 338 405 c 0
 349 405 356 400 356 393 c 0
 356 380 339 376 330 368 c 0
 321 361 316 350 316 335 c 0
 316 309 334 295 355 295 c 0
 390 295 412 328 412 363 c 0
 412 382 405 399 391 414 c 0
 377 429 355 435 328 435 c 0
 305 435 281 428 257 414 c 0
 215 390 182 349 157 301 c 0
 141 270 125 260 90 260 c 0
 62 260 l 0
 36 260 28 260 26 244 c 0
 24 226 32 226 60 226 c 0
 82 226 l 0
 104 226 119 210 106 162 c 0
 90 100 79 40 57 -35 c 0
 40 -93 11 -157 -38 -157 c 0
 -49 -157 -56 -152 -56 -145 c 0
 -56 -132 -39 -128 -30 -120 c 0
 -21 -113 -16 -102 -16 -87 c 0
 -16 -61 -34 -47 -55 -47 c 0
 -90 -47 -112 -80 -112 -115 c 0
 -112 -134 -105 -151 -91 -166 c 0
 -77 -181 -55 -187 -28 -187 c 0
 -5 -187 19 -180 43 -166 c 0
 124 -120 168 -11 194 86 c 0
 217 184 l 0
 217 184 239 226 266 226 c 0
 307 226 l 0
EndSplineSet
EndChar

StartChar: uni028F
Encoding: 655 655 51
Width: 416
Flags: HW
LayerCount: 2
Fore
SplineSet
-85 -166 m 0
 -85 -150 -77 -146 -60 -146 c 0
 -18 -146 l 0
 5 -146 21 -130 32 -98 c 0
 117 143 l 0
 126 167 133 189 133 201 c 0
 133 209 130 214 123 214 c 0
 106 214 59 182 30 106 c 0
 26 97 19 91 13 91 c 0
 8 91 3 96 3 106 c 0
 3 108 3 111 4 114 c 0
 18 186 102 276 178 276 c 0
 213 276 217 243 239 243 c 0
 258 243 284 276 339 276 c 0
 390 276 416 240 416 169 c 0
 416 79 343 -25 250 -25 c 0
 198 -25 196 1 176 1 c 0
 168 1 158 -6 153 -22 c 0
 123 -113 l 0
 121 -120 119 -126 119 -131 c 0
 119 -140 125 -146 146 -146 c 0
 197 -146 l 0
 206 -146 215 -148 215 -157 c 0
 215 -174 206 -177 193 -177 c 0
 -69 -177 l 0
 -82 -177 -85 -173 -85 -166 c 0
313 242 m 0
 255 242 206 124 206 57 c 0
 206 26 216 7 237 7 c 0
 267 7 287 55 311 131 c 0
 324 173 332 203 332 219 c 0
 332 234 326 242 313 242 c 0
EndSplineSet
EndChar

StartChar: uni0298
Encoding: 664 664 52
Width: 335
VWidth: 0
Flags: W
HStem: -200 22<-52.1561 -0.417114> 216 28<77.1897 154.286 260.869 333.811> 413 26<329.439 384.133>
VStem: -110 57<-176.438 -112> 385 60<354 412.872>
LayerCount: 2
Fore
SplineSet
359 439 m 0
 403 439 445 412 445 369 c 0
 445 339 422 314 392 314 c 0
 371 314 353 329 353 350 c 0
 353 386 385 390 385 403 c 0
 385 410 373 413 363 413 c 0
 323 413 295 371 264 282 c 0
 255 255 262 244 284 244 c 2
 324 244 l 2
 333 244 338 243 334 230 c 0
 330 218 324 216 313 216 c 2
 277 216 l 2
 254 216 242 209 234 181 c 2
 224 143 l 2
 170 -56 76 -200 -26 -200 c 0
 -69 -200 -110 -171 -110 -127 c 0
 -110 -97 -85 -74 -55 -74 c 0
 -35 -74 -15 -86 -15 -105 c 0
 -15 -146 -53 -150 -53 -164 c 0
 -53 -175 -44 -178 -31 -178 c 0
 42 -178 89 -22 138 138 c 2
 152 184 l 2
 157 200 158 216 128 216 c 2
 88 216 l 2
 80 216 73 218 77 232 c 0
 81 245 88 244 100 244 c 2
 140 244 l 2
 167 244 175 251 186 276 c 0
 228 376 279 439 359 439 c 0
EndSplineSet
EndChar

StartChar: uni02A0
Encoding: 672 672 53
Width: 448
VWidth: 0
Flags: HW
HStem: -179 31<-80.8053 5.54609 108.23 175.948> -22 36<220.78 287.506> 239 49<112.886 192.5 313.79 391.5>
VStem: 367 81<120.311 238.709>
LayerCount: 2
Fore
SplineSet
157 -179 m 2
 -71 -179 l 2
 -80 -179 -82 -174 -81 -165 c 0
 -80 -154 -75 -148 -63 -148 c 2
 -31 -148 l 2
 -2 -148 3 -140 13 -118 c 2
 136 150 l 2
 148 177 160 208 160 223 c 0
 160 236 154 239 145 239 c 0
 107 239 64 160 35 108 c 0
 29 96 23 89 18 89 c 0
 12 89 5 94 5 101 c 0
 5 105 6 111 9 118 c 0
 43 190 90 288 180 288 c 0
 205 288 224 276 236 257 c 0
 252 231 259 228 287 249 c 0
 316 270 344 284 372 284 c 0
 411 284 448 250 448 200 c 0
 448 97 367 -22 268 -22 c 0
 240 -22 223 -10 209 4 c 0
 181 28 171 14 162 -6 c 2
 113 -114 l 2
 102 -138 104 -148 126 -148 c 2
 165 -148 l 2
 177 -148 178 -157 176 -165 c 0
 175 -174 167 -179 157 -179 c 2
210 72 m 0
 210 44 224 14 248 14 c 0
 288 14 317 60 341 110 c 0
 356 141 367 174 367 199 c 0
 367 228 356 240 339 240 c 0
 305 240 260 199 233 150 c 0
 218 122 210 101 210 72 c 0
EndSplineSet
EndChar

StartChar: uni02A1
Encoding: 673 673 54
Width: 835
VWidth: 0
Flags: W
HStem: -179 29<-80.9365 3.86906 107.322 175.948 306.063 390.869 494.322 562.948> -22 33<222.357 284.013 609.357 670.029> 243 41<112.21 184.997 313.802 380.317 498.158 571.997 700.802 774.817>
VStem: 754 81<120.311 242.27>
LayerCount: 2
Fore
SplineSet
210 72 m 0
 210 44 224 11 248 11 c 0
 285 11 317 60 341 110 c 0
 356 141 367 174 367 199 c 0
 367 228 360 243 343 243 c 0
 309 243 260 199 233 150 c 0
 218 122 210 101 210 72 c 0
157 -179 m 2
 -71 -179 l 2
 -80 -179 -82 -174 -81 -165 c 0
 -80 -154 -75 -150 -63 -150 c 2
 -31 -150 l 2
 -2 -150 2 -142 12 -120 c 2
 136 150 l 2
 148 177 160 208 160 223 c 0
 160 236 153 241 144 241 c 0
 106 241 64 160 35 108 c 0
 29 96 23 89 18 89 c 0
 12 89 7 92 7 99 c 0
 7 103 8 109 11 116 c 0
 45 188 95 288 180 288 c 0
 210 288 233 270 243 243 c 0
 253 218 260 217 279 235 c 0
 308 264 340 284 372 284 c 0
 396 284 419 271 434 250 c 0
 453 220 454 222 479 247 c 0
 503 271 532 288 567 288 c 0
 597 288 620 270 630 243 c 0
 640 218 647 217 666 235 c 0
 695 264 727 284 759 284 c 4
 798 284 835 250 835 200 c 0
 835 97 754 -22 655 -22 c 0
 622 -22 603 -6 593 14 c 0
 581 37 571 40 559 15 c 2
 499 -116 l 2
 488 -140 491 -150 513 -150 c 2
 552 -150 l 2
 564 -150 565 -157 563 -165 c 1
 562 -174 554 -179 544 -179 c 2
 316 -179 l 2
 307 -179 305 -174 306 -165 c 0
 307 -154 312 -150 324 -150 c 2
 356 -150 l 2
 385 -150 389 -142 399 -120 c 2
 523 150 l 2
 535 177 547 208 547 223 c 0
 547 236 540 241 531 241 c 0
 507 241 480 207 457 170 c 0
 445 149 437 127 426 102 c 0
 395 34 336 -22 268 -22 c 0
 235 -22 216 -6 206 14 c 0
 194 37 184 40 172 15 c 2
 112 -116 l 2
 101 -140 104 -150 126 -150 c 2
 165 -150 l 2
 177 -150 178 -157 176 -165 c 1
 175 -174 167 -179 157 -179 c 2
597 72 m 0
 597 44 611 11 635 11 c 0
 672 11 704 60 728 110 c 0
 743 141 754 174 754 199 c 0
 754 228 747 243 730 243 c 0
 696 243 647 199 620 150 c 0
 605 122 597 101 597 72 c 0
EndSplineSet
EndChar

StartChar: uni0290
Encoding: 656 656 55
Width: 407
VWidth: 0
Flags: W
HStem: -9 22<337.488 371.948> 204 48<52.4589 111.499> 204 6<150 170 287 300>
VStem: 294 43<13.1311 95.2969> 338 51<117.406 222.087>
LayerCount: 2
Fore
SplineSet
66 152 m 2xd8
 11 21 l 2
 10 17 9 13 9 10 c 0
 9 0 18 -2 28 -2 c 2
 35 -2 l 2
 57 -2 59 8 66 23 c 2
 106 117 l 2
 122 158 150 204 191 204 c 0
 203 204 208 193 208 180 c 0
 208 166 201 146 197 135 c 2
 148 21 l 2
 147 17 146 13 146 10 c 0
 146 0 155 -2 165 -2 c 2
 173 -2 l 2
 195 -2 197 8 204 23 c 2
 243 117 l 2
 259 158 287 204 322 204 c 0
 333 204 338 195 338 183 c 0
 338 168 332 147 326 135 c 2
 302 81 l 2
 296 67 294 53 294 42 c 0
 294 11 311 -9 339 -9 c 11
 372 -9 390 12 405 45 c 0
 406 47 407 50 407 52 c 0
 407 56 404 58 400 58 c 0
 397 58 392 56 389 50 c 0
 377 30 370 13 349 13 c 3
 340 13 337 19 337 28 c 0
 337 41 345 61 349 72 c 10
 374 134 l 18
 383 157 389 180 389 200 c 0
 389 224 379 242 355 242 c 3
 318 242 300 209 276 209 c 3
 257 209 262 245 229 245 c 3
 191 245 170 210 145 210 c 3xb8
 122 210 144 252 108 252 c 3
 58 252 17 200 2 165 c 0
 1 162 0 158 0 155 c 0
 0 149 3 146 6 146 c 0
 9 146 14 148 18 154 c 0
 36 178 49 207 70 207 c 3
 77 207 79 203 79 196 c 0
 79 184 72 165 66 152 c 2xd8
EndSplineSet
EndChar

StartChar: uni0291
Encoding: 657 657 56
Width: 698
VWidth: 0
Flags: W
HStem: -200 22<310.844 362.583> -9 22<337.488 371.948> 204 48<52.4589 111.499> 204 6<150 170 287 300> 216 28<440.19 517.286 623.869 696.811> 413 26<692.439 747.133>
VStem: 253 57<-176.438 -112> 294 43<13.1311 95.2969> 338 51<117.406 222.087> 748 60<354 412.872>
LayerCount: 2
Fore
SplineSet
66 152 m 2xe5c0
 11 21 l 2
 10 17 9 13 9 10 c 0
 9 0 18 -2 28 -2 c 2
 35 -2 l 2
 57 -2 59 8 66 23 c 2
 106 117 l 2
 122 158 150 204 191 204 c 0
 203 204 208 193 208 180 c 0
 208 166 201 146 197 135 c 2
 148 21 l 2
 147 17 146 13 146 10 c 0
 146 0 155 -2 165 -2 c 2
 173 -2 l 2
 195 -2 197 8 204 23 c 2
 243 117 l 2
 259 158 287 204 322 204 c 0
 333 204 338 195 338 183 c 0
 338 168 332 147 326 135 c 2
 302 81 l 2
 296 67 294 53 294 42 c 0
 294 11 311 -9 339 -9 c 11
 372 -9 390 12 405 45 c 0
 406 47 407 50 407 52 c 0
 407 56 404 58 400 58 c 0
 397 58 392 56 389 50 c 0
 377 30 370 13 349 13 c 3
 340 13 337 19 337 28 c 0
 337 41 345 61 349 72 c 10
 374 134 l 18
 383 157 389 180 389 200 c 0
 389 224 379 242 355 242 c 3
 318 242 300 209 276 209 c 3
 257 209 262 245 229 245 c 3
 191 245 170 210 145 210 c 3xd5c0
 122 210 144 252 108 252 c 3
 58 252 17 200 2 165 c 0
 1 162 0 158 0 155 c 0
 0 149 3 146 6 146 c 0
 9 146 14 148 18 154 c 0
 36 178 49 207 70 207 c 3
 77 207 79 203 79 196 c 0
 79 184 72 165 66 152 c 2xe5c0
722 439 m 0
 766 439 808 412 808 369 c 0
 808 339 785 314 755 314 c 0
 734 314 716 329 716 350 c 0
 716 386 748 390 748 403 c 0
 748 410 736 413 726 413 c 0
 686 413 658 371 627 282 c 0
 618 255 625 244 647 244 c 2
 687 244 l 2
 696 244 701 243 697 230 c 0
 693 218 687 216 676 216 c 2
 640 216 l 2
 617 216 605 209 597 181 c 2
 587 143 l 2
 533 -56 439 -200 337 -200 c 0xcdc0
 294 -200 253 -171 253 -127 c 0
 253 -97 278 -74 308 -74 c 0
 328 -74 348 -86 348 -105 c 0
 348 -146 310 -150 310 -164 c 0
 310 -175 319 -178 332 -178 c 0
 405 -178 452 -22 501 138 c 2
 515 184 l 2
 520 200 521 216 491 216 c 2
 451 216 l 2
 443 216 436 218 440 232 c 0
 444 245 451 244 463 244 c 2
 503 244 l 2xcec0
 530 244 538 251 549 276 c 0
 591 376 642 439 722 439 c 0
EndSplineSet
EndChar

StartChar: uni0292
Encoding: 658 658 57
Width: 448
VWidth: 0
Flags: W
HStem: -179 29<-80.9365 3.86906 107.322 175.948> -22 33<222.357 283.029> 14 22<-47.5117 -13.0522> 227 48<-332.541 -273.501> 227 6<-235 -215 -98 -85> 241 47<115.59 195 317.089 391.5>
VStem: -91 43<36.1311 118.297> -47 51<140.406 245.087> 367 81<120.311 242.27>
LayerCount: 2
Fore
SplineSet
-319 175 m 2xf380
 -374 44 l 2
 -375 40 -376 36 -376 33 c 0
 -376 23 -367 21 -357 21 c 2
 -350 21 l 2
 -328 21 -326 31 -319 46 c 2
 -279 140 l 2
 -263 181 -235 227 -194 227 c 0
 -182 227 -177 216 -177 203 c 0
 -177 189 -184 169 -188 158 c 2
 -237 44 l 2
 -238 40 -239 36 -239 33 c 0
 -239 23 -230 21 -220 21 c 2
 -212 21 l 2
 -190 21 -188 31 -181 46 c 2
 -142 140 l 2
 -126 181 -98 227 -63 227 c 0
 -52 227 -47 218 -47 206 c 0
 -47 191 -53 170 -59 158 c 2
 -83 104 l 2
 -89 90 -91 76 -91 65 c 0
 -91 34 -74 14 -46 14 c 11
 -13 14 5 35 20 68 c 0
 21 70 22 73 22 75 c 0
 22 79 19 81 15 81 c 0
 12 81 7 79 4 73 c 0
 -8 53 -15 36 -36 36 c 3
 -45 36 -48 42 -48 51 c 0
 -48 64 -40 84 -36 95 c 10
 -11 157 l 18
 -2 180 4 203 4 223 c 0
 4 247 -6 265 -30 265 c 3
 -67 265 -85 232 -109 232 c 3
 -128 232 -123 268 -156 268 c 3
 -194 268 -215 233 -240 233 c 3xeb80
 -263 233 -241 275 -277 275 c 3
 -327 275 -368 223 -383 188 c 0
 -384 185 -385 181 -385 178 c 0
 -385 172 -382 169 -379 169 c 0
 -376 169 -371 171 -367 177 c 0
 -349 201 -336 230 -315 230 c 3
 -308 230 -306 226 -306 219 c 0
 -306 207 -313 188 -319 175 c 2xf380
157 -179 m 2
 -71 -179 l 2
 -80 -179 -82 -174 -81 -165 c 0
 -80 -154 -75 -150 -63 -150 c 2
 -31 -150 l 2
 -2 -150 2 -142 12 -120 c 2
 136 150 l 2
 148 177 160 208 160 223 c 0
 160 236 153 241 144 241 c 0
 106 241 64 160 35 108 c 0
 29 96 23 89 18 89 c 0
 12 89 7 92 7 99 c 0
 7 103 8 109 11 116 c 0
 45 188 95 288 180 288 c 0xe780
 210 288 233 270 243 243 c 0
 253 218 260 217 279 235 c 0
 308 264 340 284 372 284 c 0
 411 284 448 250 448 200 c 0
 448 97 367 -22 268 -22 c 0
 235 -22 216 -6 206 14 c 0
 194 37 184 40 172 15 c 2
 112 -116 l 2
 101 -140 104 -150 126 -150 c 2
 165 -150 l 2
 177 -150 178 -157 176 -165 c 0
 175 -174 167 -179 157 -179 c 2
210 72 m 0
 210 44 224 11 248 11 c 0
 285 11 317 60 341 110 c 0
 356 141 367 174 367 199 c 0
 367 228 360 243 343 243 c 0
 309 243 260 199 233 150 c 0
 218 122 210 101 210 72 c 0
EndSplineSet
EndChar

StartChar: uni0299
Encoding: 665 665 58
Width: 615
VWidth: 0
Flags: HW
HStem: -200 22<-52.1561 -0.417114 227.844 279.583> 216 28<77.1897 154.286 260.869 333.811 357.19 434.286 540.869 613.811> 413 26<329.439 384.133 609.439 664.133>
VStem: -110 57<-176.438 -112> 170 57<-176.438 -112> 385 60<354 412.872> 665 60<354 412.872>
LayerCount: 2
Fore
SplineSet
359 439 m 0
 403 439 445 412 445 369 c 0
 445 339 422 314 392 314 c 0
 371 314 353 329 353 350 c 0
 353 386 385 390 385 403 c 0
 385 410 373 413 363 413 c 0
 323 413 295 371 264 282 c 0
 255 255 262 244 284 244 c 2
 420 244 l 2
 447 244 455 251 466 276 c 0
 508 376 559 439 639 439 c 0
 683 439 725 412 725 369 c 0
 725 339 702 314 672 314 c 0
 651 314 633 329 633 350 c 0
 633 386 665 390 665 403 c 0
 665 410 653 413 643 413 c 0
 603 413 575 371 544 282 c 0
 535 255 542 244 564 244 c 2
 604 244 l 2
 613 244 618 243 614 230 c 0
 610 218 604 216 593 216 c 2
 557 216 l 2
 534 216 522 209 514 181 c 2
 504 143 l 1
 450 -56 356 -200 254 -200 c 0
 211 -200 170 -171 170 -127 c 0
 170 -97 195 -74 225 -74 c 0
 245 -74 265 -86 265 -105 c 0
 265 -146 227 -150 227 -164 c 0
 227 -175 236 -178 249 -178 c 0
 322 -178 369 -22 418 138 c 2
 432 184 l 2
 436.881 200.037 438 216 408 216 c 2
 277 216 l 2
 254 216 242 209 234 181 c 2
 224 143 l 1
 170 -56 76 -200 -26 -200 c 0
 -69 -200 -110 -171 -110 -127 c 0
 -110 -97 -85 -74 -55 -74 c 0
 -35 -74 -15 -86 -15 -105 c 0
 -15 -146 -53 -150 -53 -164 c 0
 -53 -175 -44 -178 -31 -178 c 0
 42 -178 89 -22 138 138 c 2
 152 184 l 2
 156.881 200.037 158 216 128 216 c 2
 88 216 l 2
 80 216 73 218 77 232 c 0
 81 245 88 244 100 244 c 2
 140 244 l 2
 167 244 175 251 186 276 c 0
 228 376 279 439 359 439 c 0
EndSplineSet
EndChar

StartChar: uni029A
Encoding: 666 666 59
Width: 895
VWidth: 0
Flags: HW
HStem: -216 22<-52.1561 -0.417114> 200 28<77.1897 154.286 260.869 333.811> 397 26<329.439 384.133>
VStem: -110 57<-192.438 -128> 385 60<338 396.872>
LayerCount: 2
Fore
SplineSet
359 439 m 0
 403 439 445 412 445 369 c 0
 445 339 422 314 392 314 c 0
 371 314 353 329 353 350 c 0
 353 386 385 390 385 403 c 0
 385 410 373 413 363 413 c 0
 323 413 295 371 264 282 c 0
 255 255 262 244 284 244 c 2
 420 244 l 2
 447 244 455 251 466 276 c 0
 508 376 559 439 639 439 c 0
 683 439 725 412 725 369 c 0
 725 339 702 314 672 314 c 0
 651 314 633 329 633 350 c 0
 633 386 665 390 665 403 c 0
 665 410 653 413 643 413 c 0
 603 413 575 371 544 282 c 0
 535 255 542 244 564 244 c 2
 700 244 l 2
 727 244 735 251 746 276 c 0
 788 376 839 439 919 439 c 0
 963 439 1005 412 1005 369 c 0
 1005 339 982 314 952 314 c 0
 931 314 913 329 913 350 c 0
 913 386 945 390 945 403 c 0
 945 410 933 413 923 413 c 0
 883 413 855 371 824 282 c 0
 815 255 822 244 844 244 c 2
 884 244 l 2
 893 244 898 243 894 230 c 0
 890 218 884 216 873 216 c 2
 837 216 l 2
 814 216 802 209 794 181 c 2
 784 143 l 1
 730 -56 636 -200 534 -200 c 0
 491 -200 450 -171 450 -127 c 0
 450 -97 475 -74 505 -74 c 0
 525 -74 545 -86 545 -105 c 0
 545 -146 507 -150 507 -164 c 0
 507 -175 516 -178 529 -178 c 0
 602 -178 649 -22 698 138 c 2
 712 184 l 2
 716.881 200.037 718 216 688 216 c 2
 557 216 l 6
 534 216 522 209 514 181 c 2
 504 143 l 1
 450 -56 356 -200 254 -200 c 0
 211 -200 170 -171 170 -127 c 0
 170 -97 195 -74 225 -74 c 0
 245 -74 265 -86 265 -105 c 0
 265 -146 227 -150 227 -164 c 0
 227 -175 236 -178 249 -178 c 0
 322 -178 369 -22 418 138 c 2
 432 184 l 2
 436.881 200.037 438 216 408 216 c 2
 277 216 l 2
 254 216 242 209 234 181 c 2
 224 143 l 1
 170 -56 76 -200 -26 -200 c 0
 -69 -200 -110 -171 -110 -127 c 0
 -110 -97 -85 -74 -55 -74 c 0
 -35 -74 -15 -86 -15 -105 c 0
 -15 -146 -53 -150 -53 -164 c 0
 -53 -175 -44 -178 -31 -178 c 0
 42 -178 89 -22 138 138 c 2
 152 184 l 2
 156.881 200.037 158 216 128 216 c 2
 88 216 l 2
 80 216 73 218 77 232 c 0
 81 245 88 244 100 244 c 2
 140 244 l 2
 167 244 175 251 186 276 c 0
 228 376 279 439 359 439 c 0
EndSplineSet
EndChar

StartChar: uni029B
Encoding: 667 667 60
Width: 1175
VWidth: 0
Flags: HW
HStem: -200 22<-52.1561 -0.417114 227.844 279.583> 216 28<77.1897 154.286 260.869 333.811 357.19 434.286 540.869 613.811> 413 26<329.439 384.133 609.439 664.133>
VStem: -110 57<-176.438 -112> 170 57<-176.438 -112> 385 60<354 412.872> 665 60<354 412.872>
LayerCount: 2
Fore
SplineSet
359 439 m 0
 403 439 445 412 445 369 c 0
 445 339 422 314 392 314 c 0
 371 314 353 329 353 350 c 0
 353 386 385 390 385 403 c 0
 385 410 373 413 363 413 c 0
 323 413 295 371 264 282 c 0
 255 255 262 244 284 244 c 2
 420 244 l 2
 447 244 455 251 466 276 c 0
 508 376 559 439 639 439 c 0
 683 439 725 412 725 369 c 0
 725 339 702 314 672 314 c 0
 651 314 633 329 633 350 c 0
 633 386 665 390 665 403 c 0
 665 410 653 413 643 413 c 0
 603 413 575 371 544 282 c 0
 535 255 542 244 564 244 c 2
 700 244 l 2
 727 244 735 251 746 276 c 0
 788 376 839 439 919 439 c 0
 963 439 1005 412 1005 369 c 0
 1005 339 982 314 952 314 c 0
 931 314 913 329 913 350 c 0
 913 386 945 390 945 403 c 0
 945 410 933 413 923 413 c 0
 883 413 855 371 824 282 c 0
 815 255 822 244 844 244 c 2
 980 244 l 2
 1007 244 1015 251 1026 276 c 0
 1068 376 1119 439 1199 439 c 0
 1243 439 1285 412 1285 369 c 0
 1285 339 1262 314 1232 314 c 0
 1211 314 1193 329 1193 350 c 0
 1193 386 1225 390 1225 403 c 0
 1225 410 1213 413 1203 413 c 0
 1163 413 1135 371 1104 282 c 0
 1095 255 1102 244 1124 244 c 2
 1164 244 l 2
 1173 244 1178 243 1174 230 c 0
 1170 218 1164 216 1153 216 c 2
 1117 216 l 2
 1094 216 1082 209 1074 181 c 2
 1064 143 l 1
 1010 -56 916 -200 814 -200 c 0
 771 -200 730 -171 730 -127 c 0
 730 -97 755 -74 785 -74 c 0
 805 -74 825 -86 825 -105 c 0
 825 -146 787 -150 787 -164 c 0
 787 -175 796 -178 809 -178 c 0
 882 -178 929 -22 978 138 c 2
 992 184 l 2
 996.881 200.037 998 216 968 216 c 2
 837 216 l 2
 814 216 802 209 794 181 c 2
 784 143 l 1
 730 -56 636 -200 534 -200 c 0
 491 -200 450 -171 450 -127 c 0
 450 -97 475 -74 505 -74 c 0
 525 -74 545 -86 545 -105 c 0
 545 -146 507 -150 507 -164 c 0
 507 -175 516 -178 529 -178 c 0
 602 -178 649 -22 698 138 c 2
 712 184 l 2
 716.881 200.037 718 216 688 216 c 2
 557 216 l 2
 534 216 522 209 514 181 c 2
 504 143 l 1
 450 -56 356 -200 254 -200 c 0
 211 -200 170 -171 170 -127 c 0
 170 -97 195 -74 225 -74 c 0
 245 -74 265 -86 265 -105 c 0
 265 -146 227 -150 227 -164 c 0
 227 -175 236 -178 249 -178 c 0
 322 -178 369 -22 418 138 c 2
 432 184 l 2
 436.881 200.037 438 216 408 216 c 2
 277 216 l 2
 254 216 242 209 234 181 c 2
 224 143 l 1
 170 -56 76 -200 -26 -200 c 0
 -69 -200 -110 -171 -110 -127 c 0
 -110 -97 -85 -74 -55 -74 c 0
 -35 -74 -15 -86 -15 -105 c 0
 -15 -146 -53 -150 -53 -164 c 0
 -53 -175 -44 -178 -31 -178 c 0
 42 -178 89 -22 138 138 c 2
 152 184 l 2
 156.881 200.037 158 216 128 216 c 2
 88 216 l 2
 80 216 73 218 77 232 c 0
 81 245 88 244 100 244 c 2
 140 244 l 2
 167 244 175 251 186 276 c 0
 228 376 279 439 359 439 c 0
EndSplineSet
EndChar

StartChar: uni02A2
Encoding: 674 674 61
Width: 1222
VWidth: 0
Flags: HW
HStem: -179 29<-80.9365 3.86906 107.322 175.948> -22 33<222.357 283.029> 241 47<115.59 195 317.089 391.5>
VStem: 367 81<120.311 242.27>
LayerCount: 2
Fore
SplineSet
597 72 m 0
 597 44 611 11 635 11 c 0
 672 11 704 60 728 110 c 0
 743 141 754 174 754 199 c 0
 754 228 747 243 730 243 c 0
 696 243 647 199 620 150 c 0
 605 122 597 101 597 72 c 0
157 -179 m 2
 -71 -179 l 2
 -80 -179 -82 -174 -81 -165 c 0
 -80 -154 -75 -150 -63 -150 c 2
 -31 -150 l 2
 -2 -150 2 -142 12 -120 c 2
 136 150 l 2
 148 177 160 208 160 223 c 0
 160 236 153 241 144 241 c 0
 106 241 64 160 35 108 c 0
 29 96 23 89 18 89 c 0
 12 89 7 92 7 99 c 0
 7 103 8 109 11 116 c 0
 45 188 95 288 180 288 c 0
 210 288 233 270 243 243 c 0
 253 218 260 217 279 235 c 0
 308 264 340 284 372 284 c 0
 396 284 419 271 434 250 c 1
 453 220 454 222 479 247 c 0
 503 271 532 288 567 288 c 0
 597 288 620 270 630 243 c 0
 640 218 647 217 666 235 c 0
 695 264 727 284 759 284 c 0
 781 284 803 273 817 254 c 0
 836 230 845 225 866 247 c 0
 890 271 919 288 954 288 c 0
 984 288 1007 270 1017 243 c 0
 1027 218 1034 217 1053 235 c 0
 1082 264 1114 284 1146 284 c 0
 1185 284 1222 250 1222 200 c 0
 1222 97 1141 -22 1042 -22 c 0
 1009 -22 990 -6 980 14 c 0
 968 37 958 40 946 15 c 2
 886 -116 l 2
 875 -140 878 -150 900 -150 c 2
 939 -150 l 2
 951 -150 952 -157 950 -165 c 1
 949 -174 941 -179 931 -179 c 2
 703 -179 l 2
 694 -179 692 -174 693 -165 c 0
 694 -154 699 -150 711 -150 c 2
 743 -150 l 2
 772 -150 776 -142 786 -120 c 2
 910 150 l 2
 922 177 934 208 934 223 c 0
 934 236 927 241 918 241 c 0
 895 241 871 212 849 177 c 0
 833 153 825 128 812 99 c 0
 780 32 722 -22 655 -22 c 0
 622 -22 603 -6 593 14 c 0
 581 37 571 40 559 15 c 2
 499 -116 l 2
 488 -140 491 -150 513 -150 c 2
 552 -150 l 2
 564 -150 565 -157 563 -165 c 1
 562 -174 554 -179 544 -179 c 2
 316 -179 l 2
 307 -179 305 -174 306 -165 c 0
 307 -154 312 -150 324 -150 c 2
 356 -150 l 2
 385 -150 389 -142 399 -120 c 2
 523 150 l 2
 535 177 547 208 547 223 c 0
 547 236 540 241 531 241 c 0
 507 241 480 207 457 170 c 0
 445 149 437 127 426 102 c 0
 395 34 336 -22 268 -22 c 0
 235 -22 216 -6 206 14 c 0
 194 37 184 40 172 15 c 2
 112 -116 l 2
 101 -140 104 -150 126 -150 c 2
 165 -150 l 2
 177 -150 178 -157 176 -165 c 1
 175 -174 167 -179 157 -179 c 2
210 72 m 0
 210 44 224 11 248 11 c 0
 285 11 317 60 341 110 c 0
 356 141 367 174 367 199 c 0
 367 228 360 243 343 243 c 0
 309 243 260 199 233 150 c 0
 218 122 210 101 210 72 c 0
984 72 m 0
 984 44 998 11 1022 11 c 0
 1059 11 1091 60 1115 110 c 0
 1130 141 1141 174 1141 199 c 0
 1141 228 1134 243 1117 243 c 0
 1083 243 1034 199 1007 150 c 0
 992 122 984 101 984 72 c 0
EndSplineSet
EndChar

StartChar: uni02A3
Encoding: 675 675 62
Width: 1609
VWidth: 0
Flags: HW
HStem: -179 29<-80.9365 3.86906 107.322 175.948 306.063 390.869 494.322 562.948> -22 33<222.357 284.013 609.357 670.029> 243 41<112.21 184.997 313.802 380.317 498.158 571.997 700.802 774.817>
VStem: 754 81<120.311 242.27>
LayerCount: 2
Fore
SplineSet
597 72 m 0
 597 44 611 11 635 11 c 0
 672 11 704 60 728 110 c 0
 743 141 754 174 754 199 c 0
 754 228 747 243 730 243 c 0
 696 243 647 199 620 150 c 0
 605 122 597 101 597 72 c 0
157 -179 m 2
 -71 -179 l 2
 -80 -179 -82 -174 -81 -165 c 0
 -80 -154 -75 -150 -63 -150 c 2
 -31 -150 l 2
 -2 -150 2 -142 12 -120 c 2
 136 150 l 2
 148 177 160 208 160 223 c 0
 160 236 153 241 144 241 c 0
 106 241 64 160 35 108 c 0
 29 96 23 89 18 89 c 0
 12 89 7 92 7 99 c 0
 7 103 8 109 11 116 c 0
 45 188 95 288 180 288 c 0
 210 288 233 270 243 243 c 0
 253 218 260 217 279 235 c 0
 308 264 340 284 372 284 c 0
 396 284 419 271 434 250 c 1
 453 220 454 222 479 247 c 0
 503 271 532 288 567 288 c 0
 597 288 620 270 630 243 c 0
 640 218 647 217 666 235 c 0
 695 264 727 284 759 284 c 0
 781 284 802 273 817 255 c 0
 835 231 847 229 869 250 c 0
 893 273 921 288 954 288 c 0
 984 288 1007 270 1017 243 c 0
 1027 218 1034 217 1053 235 c 0
 1082 264 1114 284 1146 284 c 0
 1170 284 1193 271 1208 250 c 1
 1227 220 1228 222 1253 247 c 0
 1277 271 1306 288 1341 288 c 0
 1371 288 1394 270 1404 243 c 0
 1414 218 1421 217 1440 235 c 0
 1469 264 1501 284 1533 284 c 0
 1572 284 1609 250 1609 200 c 0
 1609 97 1528 -22 1429 -22 c 0
 1396 -22 1377 -6 1367 14 c 0
 1355 37 1345 40 1333 15 c 2
 1273 -116 l 2
 1262 -140 1265 -150 1287 -150 c 2
 1326 -150 l 2
 1338 -150 1339 -157 1337 -165 c 1
 1336 -174 1328 -179 1318 -179 c 2
 1090 -179 l 2
 1081 -179 1079 -174 1080 -165 c 0
 1081 -154 1086 -150 1098 -150 c 2
 1130 -150 l 2
 1159 -150 1163 -142 1173 -120 c 2
 1297 150 l 2
 1309 177 1321 208 1321 223 c 0
 1321 236 1314 241 1305 241 c 0
 1281 241 1254 207 1231 170 c 0
 1219 149 1211 127 1200 102 c 0
 1169 34 1110 -22 1042 -22 c 0
 1009 -22 990 -6 980 14 c 0
 968 37 958 40 946 15 c 2
 886 -116 l 2
 875 -140 878 -150 900 -150 c 2
 939 -150 l 2
 951 -150 952 -157 950 -165 c 1
 949 -174 941 -179 931 -179 c 2
 703 -179 l 2
 694 -179 692 -174 693 -165 c 0
 694 -154 699 -150 711 -150 c 2
 743 -150 l 2
 772 -150 776 -142 786 -120 c 2
 910 150 l 2
 922 177 934 208 934 223 c 0
 934 236 927 241 918 241 c 0
 896 241 873 214 852 182 c 0
 834 154 825 125 809 94 c 0
 777 29 720 -22 655 -22 c 0
 622 -22 603 -6 593 14 c 0
 581 37 571 40 559 15 c 2
 499 -116 l 2
 488 -140 491 -150 513 -150 c 2
 552 -150 l 2
 564 -150 565 -157 563 -165 c 1
 562 -174 554 -179 544 -179 c 2
 316 -179 l 2
 307 -179 305 -174 306 -165 c 0
 307 -154 312 -150 324 -150 c 2
 356 -150 l 2
 385 -150 389 -142 399 -120 c 2
 523 150 l 2
 535 177 547 208 547 223 c 0
 547 236 540 241 531 241 c 0
 507 241 480 207 457 170 c 0
 445 149 437 127 426 102 c 0
 395 34 336 -22 268 -22 c 0
 235 -22 216 -6 206 14 c 0
 194 37 184 40 172 15 c 2
 112 -116 l 2
 101 -140 104 -150 126 -150 c 2
 165 -150 l 2
 177 -150 178 -157 176 -165 c 1
 175 -174 167 -179 157 -179 c 2
210 72 m 0
 210 44 224 11 248 11 c 0
 285 11 317 60 341 110 c 0
 356 141 367 174 367 199 c 0
 367 228 360 243 343 243 c 0
 309 243 260 199 233 150 c 0
 218 122 210 101 210 72 c 0
1371 72 m 0
 1371 44 1385 11 1409 11 c 0
 1446 11 1478 60 1502 110 c 0
 1517 141 1528 174 1528 199 c 0
 1528 228 1521 243 1504 243 c 0
 1470 243 1421 199 1394 150 c 0
 1379 122 1371 101 1371 72 c 0
984 72 m 0
 984 44 998 11 1022 11 c 0
 1059 11 1091 60 1115 110 c 0
 1130 141 1141 174 1141 199 c 0
 1141 228 1134 243 1117 243 c 0
 1083 243 1034 199 1007 150 c 0
 992 122 984 101 984 72 c 0
EndSplineSet
EndChar

StartChar: uni0293
Encoding: 659 659 63
Width: 748
VWidth: 0
Flags: HW
HStem: -179 29<-80.9365 3.86906 107.322 175.948> -22 33<222.357 283.029> 241 47<115.59 195 317.089 391.5>
VStem: 367 81<120.311 242.27>
LayerCount: 2
Fore
SplineSet
457 -179 m 2
 229 -179 l 2
 220 -179 218 -174 219 -165 c 0
 220 -154 225 -150 237 -150 c 2
 269 -150 l 2
 298 -150 302 -142 312 -120 c 2
 436 150 l 2
 448 177 460 208 460 223 c 0
 460 236 453 241 444 241 c 0
 406 241 364 160 335 108 c 0
 329 96 323 89 318 89 c 0
 312 89 307 92 307 99 c 0
 307 103 308 109 311 116 c 0
 345 188 395 288 480 288 c 0
 510 288 533 270 543 243 c 0
 553 218 560 217 579 235 c 0
 608 264 640 284 672 284 c 0
 711 284 748 250 748 200 c 0
 748 97 667 -22 568 -22 c 0
 535 -22 516 -6 506 14 c 0
 494 37 484 40 472 15 c 2
 412 -116 l 2
 401 -140 404 -150 426 -150 c 2
 465 -150 l 2
 477 -150 478 -157 476 -165 c 0
 475 -174 467 -179 457 -179 c 2
510 72 m 0
 510 44 524 11 548 11 c 0
 585 11 617 60 641 110 c 0
 656 141 667 174 667 199 c 0
 667 228 660 243 643 243 c 0
 609 243 560 199 533 150 c 0
 518 122 510 101 510 72 c 0
359 439 m 0
 403 439 445 412 445 369 c 0
 445 339 422 314 392 314 c 0
 371 314 353 329 353 350 c 0
 353 386 385 390 385 403 c 0
 385 410 373 413 363 413 c 0
 323 413 295 371 264 282 c 0
 255 255 262 244 284 244 c 2
 324 244 l 2
 333 244 338 243 334 230 c 0
 330 218 324 216 313 216 c 2
 277 216 l 2
 254 216 242 209 234 181 c 2
 224 143 l 2
 170 -56 76 -200 -26 -200 c 0
 -69 -200 -110 -171 -110 -127 c 0
 -110 -97 -85 -74 -55 -74 c 0
 -35 -74 -15 -86 -15 -105 c 0
 -15 -146 -53 -150 -53 -164 c 0
 -53 -175 -44 -178 -31 -178 c 0
 42 -178 89 -22 138 138 c 2
 152 184 l 2
 157 200 158 216 128 216 c 2
 88 216 l 2
 80 216 73 218 77 232 c 0
 81 245 88 244 100 244 c 2
 140 244 l 2
 167 244 175 251 186 276 c 0
 228 376 279 439 359 439 c 0
EndSplineSet
EndChar

StartChar: uni02B0
Encoding: 688 688 64
Width: 356
VWidth: 0
Flags: W
HStem: -205 28<-48.426 7.37363> 231 31<81.1897 161.788 274.091 354.754> 439 27<345.891 403.189>
VStem: -116 67<-176.28 -112> 404 63<376 438.512>
LayerCount: 2
Fore
SplineSet
377 466 m 0
 423 466 467 437 467 392 c 0
 467 360 444 335 412 335 c 0
 390 335 371 351 371 373 c 0
 371 411 404 414 404 428 c 0
 404 435 391 439 381 439 c 0
 339 439 310 394 277 301 c 0
 268 273 275 262 298 262 c 2
 344 262 l 2
 353 262 359 261 355 247 c 0
 351 234 345 231 333 231 c 2
 291 231 l 2
 267 231 254 224 246 195 c 2
 235 155 l 2
 178 -54 80 -205 -27 -205 c 0
 -72 -205 -116 -174 -116 -128 c 0
 -116 -96 -93 -68 -61 -68 c 0
 -38 -68 -17 -82 -17 -108 c 0
 -17 -151 -49 -151 -49 -166 c 0
 -49 -173 -43 -177 -31 -177 c 0
 48 -177 94 -18 145 150 c 2
 160 198 l 2
 165 215 166 231 134 231 c 2
 92 231 l 2
 84 231 77 234 81 249 c 0
 85 263 92 262 105 262 c 2
 147 262 l 2
 175 262 183 269 195 295 c 0
 239 400 293 466 377 466 c 0
EndSplineSet
EndChar

StartChar: uni02B8
Encoding: 696 696 65
Width: 436
VWidth: 0
Flags: HW
HStem: -194 31<-80 7 101 169> -37 38<213 284> 224 49<111 187 307 386>
VStem: 360 76<105 224>
LayerCount: 2
Fore
SplineSet
150 -194 m 2
 -70 -194 l 2
 -79 -194 -81 -189 -80 -180 c 0
 -79 -169 -74 -163 -62 -163 c 2
 -30 -163 l 2
 -1 -163 4 -155 14 -133 c 2
 137 135 l 2
 149 162 159 188 159 203 c 0
 159 221 150 224 141 224 c 0
 103 224 65 145 36 93 c 0
 30 81 24 74 19 74 c 0
 13 74 6 79 6 86 c 0
 6 90 7 96 10 103 c 0
 44 175 87 273 177 273 c 0
 197 273 217 261 229 242 c 0
 245 216 252 213 280 234 c 0
 309 255 337 269 365 269 c 0
 407 269 436 235 436 185 c 0
 436 82 360 -37 261 -37 c 0
 233 -37 216 -25 202 -11 c 0
 174 13 164 -1 155 -21 c 2
 106 -129 l 2
 95 -153 97 -163 119 -163 c 2
 158 -163 l 2
 170 -163 171 -172 169 -180 c 0
 168 -189 160 -194 150 -194 c 2
203 57 m 0
 203 29 219 1 243 1 c 0
 283 1 310 45 334 95 c 0
 349 126 360 159 360 184 c 0
 360 213 349 225 332 225 c 0
 298 225 253 184 226 135 c 0
 211 107 203 86 203 57 c 0
EndSplineSet
EndChar

StartChar: uni02B1
Encoding: 689 689 66
Width: 646
VWidth: 0
Flags: HW
HStem: -205 28<-48 7> 231 31<81 162 274 355> 439 27<346 403>
VStem: -116 67<-176 -112> 404 63<376 439>
LayerCount: 2
Fore
SplineSet
377 466 m 0
 423 466 467 437 467 392 c 0
 467 360 444 335 412 335 c 0
 390 335 371 351 371 373 c 0
 371 411 404 414 404 428 c 0
 404 435 391 439 381 439 c 0
 339 439 310 394 277 301 c 0
 268 273 275 262 298 262 c 2
 437 262 l 2
 465 262 473 269 485 295 c 1
 529 400 583 466 667 466 c 0
 713 466 757 437 757 392 c 0
 757 360 734 335 702 335 c 0
 680 335 661 351 661 373 c 0
 661 411 694 414 694 428 c 0
 694 435 681 439 671 439 c 0
 629 439 600 394 567 301 c 0
 558 273 565 262 588 262 c 2
 634 262 l 2
 643 262 649 261 645 247 c 0
 641 234 635 231 623 231 c 2
 581 231 l 2
 557 231 544 224 536 195 c 2
 525 155 l 2
 468 -54 370 -205 263 -205 c 0
 218 -205 174 -174 174 -128 c 0
 174 -96 197 -68 229 -68 c 0
 252 -68 273 -82 273 -108 c 0
 273 -151 241 -151 241 -166 c 0
 241 -173 247 -177 259 -177 c 0
 338 -177 383 -18 435 150 c 2
 450 198 l 2
 455 215 456 231 424 231 c 2
 291 231 l 2
 267 231 254 224 246 195 c 2
 235 155 l 2
 178 -54 80 -205 -27 -205 c 0
 -72 -205 -116 -174 -116 -128 c 0
 -116 -96 -93 -68 -61 -68 c 0
 -38 -68 -17 -82 -17 -108 c 0
 -17 -151 -49 -151 -49 -166 c 0
 -49 -173 -43 -177 -31 -177 c 0
 48 -177 93 -18 145 150 c 2
 160 198 l 2
 165 215 166 231 134 231 c 2
 92 231 l 2
 84 231 77 234 81 249 c 0
 85 263 92 262 105 262 c 2
 147 262 l 2
 175 262 183 269 195 295 c 1
 239 400 293 466 377 466 c 0
EndSplineSet
EndChar

StartChar: uni02B2
Encoding: 690 690 67
Width: 936
VWidth: 0
Flags: HW
HStem: -205 28<-48 7 242 297 532 587> 231 31<81 162 274 452 564 742 854 935> 439 27<346 403 636 693 926 983>
VStem: -116 67<-176 -112> 174 67<-176 -112> 404 63<376 439> 464 67<-176 -112> 694 63<376 439> 984 63<376 439>
LayerCount: 2
Fore
SplineSet
377 466 m 0xfb80
 423 466 467 437 467 392 c 0
 467 360 444 335 412 335 c 0
 390 335 371 351 371 373 c 0
 371 411 404 414 404 428 c 0xfd80
 404 435 391 439 381 439 c 0
 339 439 310 394 277 301 c 0
 268 273 275 262 298 262 c 2
 437 262 l 2
 465 262 473 269 485 295 c 1
 529 400 583 466 667 466 c 0
 713 466 757 437 757 392 c 0
 757 360 734 335 702 335 c 0
 680 335 661 351 661 373 c 0
 661 411 694 414 694 428 c 0
 694 435 681 439 671 439 c 0
 629 439 600 394 567 301 c 0
 558 273 565 262 588 262 c 2
 727 262 l 2
 755 262 763 269 775 295 c 1
 819 400 873 466 957 466 c 0
 1003 466 1047 437 1047 392 c 0
 1047 360 1024 335 992 335 c 0
 970 335 951 351 951 373 c 0
 951 411 984 414 984 428 c 0
 984 435 971 439 961 439 c 0
 919 439 890 394 857 301 c 0
 848 273 855 262 878 262 c 2
 924 262 l 2
 933 262 939 261 935 247 c 0
 931 234 925 231 913 231 c 2
 871 231 l 2
 847 231 834 224 826 195 c 2
 815 155 l 2
 758 -54 660 -205 553 -205 c 0
 508 -205 464 -174 464 -128 c 0
 464 -96 487 -68 519 -68 c 0
 542 -68 563 -82 563 -108 c 0
 563 -151 531 -151 531 -166 c 0
 531 -173 537 -177 549 -177 c 0
 628 -177 673 -18 725 150 c 2
 740 198 l 2
 745 215 746 231 714 231 c 2
 581 231 l 2
 557 231 544 224 536 195 c 2
 525 155 l 2
 468 -54 370 -205 263 -205 c 0
 218 -205 174 -174 174 -128 c 0
 174 -96 197 -68 229 -68 c 0
 252 -68 273 -82 273 -108 c 0
 273 -151 241 -151 241 -166 c 0
 241 -173 247 -177 259 -177 c 0
 338 -177 383 -18 435 150 c 2
 450 198 l 2
 455 215 456 231 424 231 c 2
 291 231 l 2
 267 231 254 224 246 195 c 2
 235 155 l 2
 178 -54 80 -205 -27 -205 c 0
 -72 -205 -116 -174 -116 -128 c 0
 -116 -96 -93 -68 -61 -68 c 0
 -38 -68 -17 -82 -17 -108 c 0
 -17 -151 -49 -151 -49 -166 c 0
 -49 -173 -43 -177 -31 -177 c 0
 48 -177 93 -18 145 150 c 2
 160 198 l 2
 165 215 166 231 134 231 c 2
 92 231 l 2
 84 231 77 234 81 249 c 0
 85 263 92 262 105 262 c 2
 147 262 l 2
 175 262 183 269 195 295 c 1
 239 400 293 466 377 466 c 0xfb80
EndSplineSet
EndChar

StartChar: uni02B3
Encoding: 691 691 68
Width: 1226
VWidth: 0
Flags: HW
HStem: -205 28<-48 7 242 297 532 587 822 877> 231 31<81 162 274 452 564 742 854 1032 1144 1225> 439 27<346 403 636 693 926 983 1216 1273>
VStem: -116 67<-176 -112> 174 67<-176 -112> 404 63<376 439> 464 67<-176 -112> 694 63<376 439> 754 67<-176 -112> 984 63<376 439> 1274 63<376 439>
LayerCount: 2
Fore
SplineSet
377 466 m 0xfae0
 423 466 467 437 467 392 c 0
 467 360 444 335 412 335 c 0
 390 335 371 351 371 373 c 0
 371 411 404 414 404 428 c 0
 404 435 391 439 381 439 c 0
 339 439 310 394 277 301 c 0
 268 273 275 262 298 262 c 2
 437 262 l 2
 465 262 473 269 485 295 c 1
 529 400 583 466 667 466 c 0
 713 466 757 437 757 392 c 0
 757 360 734 335 702 335 c 0
 680 335 661 351 661 373 c 0
 661 411 694 414 694 428 c 0xfd60
 694 435 681 439 671 439 c 0
 629 439 600 394 567 301 c 0
 558 273 565 262 588 262 c 2
 727 262 l 2
 755 262 763 269 775 295 c 1
 819 400 873 466 957 466 c 0
 1003 466 1047 437 1047 392 c 0
 1047 360 1024 335 992 335 c 0
 970 335 951 351 951 373 c 0
 951 411 984 414 984 428 c 0
 984 435 971 439 961 439 c 0
 919 439 890 394 857 301 c 0
 848 273 855 262 878 262 c 2
 1017 262 l 2
 1045 262 1053 269 1065 295 c 1
 1109 400 1163 466 1247 466 c 0
 1293 466 1337 437 1337 392 c 0
 1337 360 1314 335 1282 335 c 0
 1260 335 1241 351 1241 373 c 0
 1241 411 1274 414 1274 428 c 0
 1274 435 1261 439 1251 439 c 0
 1209 439 1180 394 1147 301 c 0
 1138 273 1145 262 1168 262 c 2
 1214 262 l 2
 1223 262 1229 261 1225 247 c 0
 1221 234 1215 231 1203 231 c 2
 1161 231 l 2
 1137 231 1124 224 1116 195 c 2
 1105 155 l 2
 1048 -54 950 -205 843 -205 c 0
 798 -205 754 -174 754 -128 c 0
 754 -96 777 -68 809 -68 c 0
 832 -68 853 -82 853 -108 c 0
 853 -151 821 -151 821 -166 c 0
 821 -173 827 -177 839 -177 c 0
 918 -177 963 -18 1015 150 c 2
 1030 198 l 2
 1035 215 1036 231 1004 231 c 2
 871 231 l 2
 847 231 834 224 826 195 c 2
 815 155 l 2
 758 -54 660 -205 553 -205 c 0
 508 -205 464 -174 464 -128 c 0
 464 -96 487 -68 519 -68 c 0
 542 -68 563 -82 563 -108 c 0
 563 -151 531 -151 531 -166 c 0
 531 -173 537 -177 549 -177 c 0
 628 -177 673 -18 725 150 c 2
 740 198 l 2
 745 215 746 231 714 231 c 2
 581 231 l 2
 557 231 544 224 536 195 c 2
 525 155 l 2
 468 -54 370 -205 263 -205 c 0
 218 -205 174 -174 174 -128 c 0
 174 -96 197 -68 229 -68 c 0
 252 -68 273 -82 273 -108 c 0
 273 -151 241 -151 241 -166 c 0
 241 -173 247 -177 259 -177 c 0
 338 -177 383 -18 435 150 c 2
 450 198 l 2
 455 215 456 231 424 231 c 2
 291 231 l 2
 267 231 254 224 246 195 c 2
 235 155 l 2
 178 -54 80 -205 -27 -205 c 0
 -72 -205 -116 -174 -116 -128 c 0
 -116 -96 -93 -68 -61 -68 c 0
 -38 -68 -17 -82 -17 -108 c 0
 -17 -151 -49 -151 -49 -166 c 0
 -49 -173 -43 -177 -31 -177 c 0
 48 -177 93 -18 145 150 c 2
 160 198 l 2
 165 215 166 231 134 231 c 2
 92 231 l 2
 84 231 77 234 81 249 c 0
 85 263 92 262 105 262 c 2
 147 262 l 2
 175 262 183 269 195 295 c 1
 239 400 293 466 377 466 c 0xfae0
EndSplineSet
EndChar

StartChar: uni02B4
Encoding: 692 692 69
Width: 1516
VWidth: 0
Flags: HW
HStem: -205 28<-48 7> 231 31<81 162 274 355> 439 27<346 403>
VStem: -116 67<-176 -112> 404 63<376 439>
LayerCount: 2
Fore
SplineSet
377 466 m 0
 423 466 467 437 467 392 c 0
 467 360 444 335 412 335 c 0
 390 335 371 351 371 373 c 0
 371 411 404 414 404 428 c 0
 404 435 391 439 381 439 c 0
 339 439 310 394 277 301 c 0
 268 273 275 262 298 262 c 2
 437 262 l 2
 465 262 473 269 485 295 c 1
 529 400 583 466 667 466 c 0
 713 466 757 437 757 392 c 0
 757 360 734 335 702 335 c 0
 680 335 661 351 661 373 c 0
 661 411 694 414 694 428 c 0
 694 435 681 439 671 439 c 0
 629 439 600 394 567 301 c 0
 558 273 565 262 588 262 c 2
 727 262 l 2
 755 262 763 269 775 295 c 1
 819 400 873 466 957 466 c 0
 1003 466 1047 437 1047 392 c 0
 1047 360 1024 335 992 335 c 0
 970 335 951 351 951 373 c 0
 951 411 984 414 984 428 c 0
 984 435 971 439 961 439 c 0
 919 439 890 394 857 301 c 0
 848 273 855 262 878 262 c 2
 1017 262 l 2
 1045 262 1053 269 1065 295 c 1
 1109 400 1163 466 1247 466 c 0
 1293 466 1337 437 1337 392 c 0
 1337 360 1314 335 1282 335 c 0
 1260 335 1241 351 1241 373 c 0
 1241 411 1274 414 1274 428 c 0
 1274 435 1261 439 1251 439 c 0
 1209 439 1180 394 1147 301 c 0
 1138 273 1145 262 1168 262 c 2
 1307 262 l 2
 1335 262 1343 269 1355 295 c 1
 1399 400 1453 466 1537 466 c 0
 1583 466 1627 437 1627 392 c 0
 1627 360 1604 335 1572 335 c 0
 1550 335 1531 351 1531 373 c 0
 1531 411 1564 414 1564 428 c 0
 1564 435 1551 439 1541 439 c 0
 1499 439 1470 394 1437 301 c 0
 1428 273 1435 262 1458 262 c 2
 1504 262 l 2
 1513 262 1519 261 1515 247 c 0
 1511 234 1505 231 1493 231 c 2
 1451 231 l 2
 1427 231 1414 224 1406 195 c 2
 1395 155 l 2
 1338 -54 1240 -205 1133 -205 c 0
 1088 -205 1044 -174 1044 -128 c 0
 1044 -96 1067 -68 1099 -68 c 0
 1122 -68 1143 -82 1143 -108 c 0
 1143 -151 1111 -151 1111 -166 c 0
 1111 -173 1117 -177 1129 -177 c 0
 1208 -177 1253 -18 1305 150 c 2
 1320 198 l 2
 1325 215 1326 231 1294 231 c 2
 1161 231 l 2
 1137 231 1124 224 1116 195 c 2
 1105 155 l 2
 1048 -54 950 -205 843 -205 c 0
 798 -205 754 -174 754 -128 c 0
 754 -96 777 -68 809 -68 c 0
 832 -68 853 -82 853 -108 c 0
 853 -151 821 -151 821 -166 c 0
 821 -173 827 -177 839 -177 c 0
 918 -177 963 -18 1015 150 c 2
 1030 198 l 2
 1035 215 1036 231 1004 231 c 2
 871 231 l 2
 847 231 834 224 826 195 c 2
 815 155 l 2
 758 -54 660 -205 553 -205 c 0
 508 -205 464 -174 464 -128 c 0
 464 -96 487 -68 519 -68 c 0
 542 -68 563 -82 563 -108 c 0
 563 -151 531 -151 531 -166 c 0
 531 -173 537 -177 549 -177 c 0
 628 -177 673 -18 725 150 c 2
 740 198 l 2
 745 215 746 231 714 231 c 2
 581 231 l 2
 557 231 544 224 536 195 c 2
 525 155 l 2
 468 -54 370 -205 263 -205 c 0
 218 -205 174 -174 174 -128 c 0
 174 -96 197 -68 229 -68 c 0
 252 -68 273 -82 273 -108 c 0
 273 -151 241 -151 241 -166 c 0
 241 -173 247 -177 259 -177 c 0
 338 -177 383 -18 435 150 c 2
 450 198 l 2
 455 215 456 231 424 231 c 2
 291 231 l 2
 267 231 254 224 246 195 c 2
 235 155 l 2
 178 -54 80 -205 -27 -205 c 0
 -72 -205 -116 -174 -116 -128 c 0
 -116 -96 -93 -68 -61 -68 c 0
 -38 -68 -17 -82 -17 -108 c 0
 -17 -151 -49 -151 -49 -166 c 0
 -49 -173 -43 -177 -31 -177 c 0
 48 -177 93 -18 145 150 c 2
 160 198 l 2
 165 215 166 231 134 231 c 2
 92 231 l 2
 84 231 77 234 81 249 c 0
 85 263 92 262 105 262 c 2
 147 262 l 2
 175 262 183 269 195 295 c 1
 239 400 293 466 377 466 c 0
EndSplineSet
EndChar

StartChar: uni02B9
Encoding: 697 697 70
Width: 816
VWidth: 0
Flags: HW
HStem: -194 31<-80 7 101 169 300 387 481 549> -37 38<213 284 593 664> 224 49<111 178 307 375 491 558 687 763>
VStem: 740 76<105 224>
LayerCount: 2
Fore
SplineSet
203 57 m 0
 203 29 219 1 243 1 c 0
 283 1 310 45 334 95 c 0
 349 126 360 159 360 184 c 0
 360 213 349 225 332 225 c 0
 298 225 253 184 226 135 c 0
 211 107 203 86 203 57 c 0
150 -194 m 2
 -70 -194 l 2
 -79 -194 -81 -189 -80 -180 c 0
 -79 -169 -74 -163 -62 -163 c 2
 -30 -163 l 2
 -1 -163 4 -155 14 -133 c 2
 137 135 l 2
 149 162 159 188 159 203 c 0
 159 221 150 224 141 224 c 0
 103 224 65 145 36 93 c 0
 30 81 24 74 19 74 c 0
 13 74 6 79 6 86 c 0
 6 90 7 96 10 103 c 0
 44 175 87 273 177 273 c 0
 197 273 217 261 229 242 c 0
 245 216 252 213 280 234 c 0
 309 255 337 269 365 269 c 0
 391 269 413 256 425 233 c 0
 437 211 446 209 463 227 c 0
 488 254 518 273 557 273 c 0
 577 273 597 261 609 242 c 0
 625 216 632 213 660 234 c 0
 689 255 717 269 745 269 c 0
 787 269 816 235 816 185 c 0
 816 82 740 -37 641 -37 c 0
 613 -37 596 -25 582 -11 c 1
 554 13 544 -1 535 -21 c 2
 486 -129 l 2
 475 -153 477 -163 499 -163 c 2
 538 -163 l 2
 550 -163 551 -172 549 -180 c 1
 548 -189 540 -194 530 -194 c 2
 310 -194 l 2
 301 -194 299 -189 300 -180 c 0
 301 -169 306 -163 318 -163 c 2
 350 -163 l 2
 379 -163 384 -155 394 -133 c 2
 517 135 l 2
 529 162 539 188 539 203 c 0
 539 221 530 224 521 224 c 0
 494 224 466 183 442 140 c 0
 429 116 418 89 404 64 c 0
 372 7 321 -37 261 -37 c 0
 233 -37 216 -25 202 -11 c 1
 174 13 164 -1 155 -21 c 2
 106 -129 l 2
 95 -153 97 -163 119 -163 c 2
 158 -163 l 2
 170 -163 171 -172 169 -180 c 1
 168 -189 160 -194 150 -194 c 2
583 57 m 0
 583 29 599 1 623 1 c 0
 663 1 690 45 714 95 c 0
 729 126 740 159 740 184 c 0
 740 213 729 225 712 225 c 0
 678 225 633 184 606 135 c 0
 591 107 583 86 583 57 c 0
EndSplineSet
EndChar

StartChar: uni02BA
Encoding: 698 698 71
Width: 1196
VWidth: 0
Flags: HW
HStem: -194 31<-80 7 101 169 300 387 481 549 680 767 861 929> -37 38<213 284 593 664 973 1044> 224 49<111 178 307 375 491 558 687 753 869 938 1067 1143>
VStem: 1120 76<105 224>
LayerCount: 2
Fore
SplineSet
583 57 m 0
 583 29 599 1 623 1 c 0
 663 1 690 45 714 95 c 0
 729 126 740 159 740 184 c 0
 740 213 729 225 712 225 c 0
 678 225 633 184 606 135 c 0
 591 107 583 86 583 57 c 0
150 -194 m 2
 -70 -194 l 2
 -79 -194 -81 -189 -80 -180 c 0
 -79 -169 -74 -163 -62 -163 c 2
 -30 -163 l 2
 -1 -163 4 -155 14 -133 c 2
 137 135 l 2
 149 162 159 188 159 203 c 0
 159 221 150 224 141 224 c 0
 103 224 65 145 36 93 c 0
 30 81 24 74 19 74 c 0
 13 74 6 79 6 86 c 0
 6 90 7 96 10 103 c 0
 44 175 87 273 177 273 c 0
 197 273 217 261 229 242 c 0
 245 216 252 213 280 234 c 0
 309 255 337 269 365 269 c 0
 391 269 413 256 425 233 c 0
 437 211 446 209 463 227 c 0
 488 254 518 273 557 273 c 0
 577 273 597 261 609 242 c 0
 625 216 632 213 660 234 c 0
 689 255 717 269 745 269 c 0
 769 269 788 258 801 240 c 0
 815 219 831 216 851 236 c 0
 874 258 902 273 937 273 c 0
 957 273 977 261 989 242 c 0
 1005 216 1012 213 1040 234 c 0
 1069 255 1097 269 1125 269 c 0
 1167 269 1196 235 1196 185 c 0
 1196 82 1120 -37 1021 -37 c 0
 993 -37 976 -25 962 -11 c 1
 934 13 924 -1 915 -21 c 2
 866 -129 l 2
 855 -153 857 -163 879 -163 c 2
 918 -163 l 2
 930 -163 931 -172 929 -180 c 1
 928 -189 920 -194 910 -194 c 2
 690 -194 l 2
 681 -194 679 -189 680 -180 c 0
 681 -169 686 -163 698 -163 c 2
 730 -163 l 2
 759 -163 764 -155 774 -133 c 2
 897 135 l 2
 909 162 919 188 919 203 c 0
 919 221 910 224 901 224 c 0
 877 224 852 192 830 155 c 0
 811 123 799 91 780 58 c 0
 749 4 699 -37 641 -37 c 0
 613 -37 596 -25 582 -11 c 1
 554 13 544 -1 535 -21 c 2
 486 -129 l 2
 475 -153 477 -163 499 -163 c 2
 538 -163 l 2
 550 -163 551 -172 549 -180 c 1
 548 -189 540 -194 530 -194 c 2
 310 -194 l 2
 301 -194 299 -189 300 -180 c 0
 301 -169 306 -163 318 -163 c 2
 350 -163 l 2
 379 -163 384 -155 394 -133 c 2
 517 135 l 2
 529 162 539 188 539 203 c 0
 539 221 530 224 521 224 c 0
 494 224 466 183 442 140 c 0
 429 116 418 89 404 64 c 0
 372 7 321 -37 261 -37 c 0
 233 -37 216 -25 202 -11 c 1
 174 13 164 -1 155 -21 c 2
 106 -129 l 2
 95 -153 97 -163 119 -163 c 2
 158 -163 l 2
 170 -163 171 -172 169 -180 c 1
 168 -189 160 -194 150 -194 c 2
203 57 m 0
 203 29 219 1 243 1 c 0
 283 1 310 45 334 95 c 0
 349 126 360 159 360 184 c 0
 360 213 349 225 332 225 c 0
 298 225 253 184 226 135 c 0
 211 107 203 86 203 57 c 0
963 57 m 0
 963 29 979 1 1003 1 c 0
 1043 1 1070 45 1094 95 c 0
 1109 126 1120 159 1120 184 c 0
 1120 213 1109 225 1092 225 c 0
 1058 225 1013 184 986 135 c 0
 971 107 963 86 963 57 c 0
EndSplineSet
EndChar

StartChar: uni02BB
Encoding: 699 699 72
Width: 1576
VWidth: 0
Flags: HW
HStem: -194 31<-80 7 101 169 300 387 481 549 680 767 861 929 1060 1147 1241 1309> -37 38<213 284 593 664 973 1044 1353 1424> 224 49<111 178 307 375 491 558 687 754 869 938 1067 1135 1251 1318 1447 1523>
VStem: 1500 76<105 224>
LayerCount: 2
Fore
SplineSet
583 57 m 0
 583 29 599 1 623 1 c 0
 663 1 690 45 714 95 c 0
 729 126 740 159 740 184 c 0
 740 213 729 225 712 225 c 0
 678 225 633 184 606 135 c 0
 591 107 583 86 583 57 c 0
150 -194 m 2
 -70 -194 l 2
 -79 -194 -81 -189 -80 -180 c 0
 -79 -169 -74 -163 -62 -163 c 2
 -30 -163 l 2
 -1 -163 4 -155 14 -133 c 2
 137 135 l 2
 149 162 159 188 159 203 c 0
 159 221 150 224 141 224 c 0
 103 224 65 145 36 93 c 0
 30 81 24 74 19 74 c 0
 13 74 6 79 6 86 c 0
 6 90 7 96 10 103 c 0
 44 175 87 273 177 273 c 0
 197 273 217 261 229 242 c 0
 245 216 252 213 280 234 c 0
 309 255 337 269 365 269 c 0
 391 269 413 256 425 233 c 0
 437 211 446 209 463 227 c 0
 488 254 518 273 557 273 c 0
 577 273 597 261 609 242 c 0
 625 216 632 213 660 234 c 0
 689 255 717 269 745 269 c 0
 770 269 791 257 803 237 c 0
 816 215 831 215 848 233 c 0
 872 257 901 273 937 273 c 0
 957 273 977 261 989 242 c 0
 1005 216 1012 213 1040 234 c 0
 1069 255 1097 269 1125 269 c 0
 1151 269 1173 256 1185 233 c 0
 1197 211 1206 209 1223 227 c 0
 1248 254 1278 273 1317 273 c 0
 1337 273 1357 261 1369 242 c 0
 1385 216 1392 213 1420 234 c 0
 1449 255 1477 269 1505 269 c 0
 1547 269 1576 235 1576 185 c 0
 1576 82 1500 -37 1401 -37 c 0
 1373 -37 1356 -25 1342 -11 c 1
 1314 13 1304 -1 1295 -21 c 2
 1246 -129 l 2
 1235 -153 1237 -163 1259 -163 c 2
 1298 -163 l 2
 1310 -163 1311 -172 1309 -180 c 1
 1308 -189 1300 -194 1290 -194 c 2
 1070 -194 l 2
 1061 -194 1059 -189 1060 -180 c 0
 1061 -169 1066 -163 1078 -163 c 2
 1110 -163 l 2
 1139 -163 1144 -155 1154 -133 c 2
 1277 135 l 2
 1289 162 1299 188 1299 203 c 0
 1299 221 1290 224 1281 224 c 0
 1254 224 1226 183 1202 140 c 0
 1189 116 1178 89 1164 64 c 0
 1132 7 1081 -37 1021 -37 c 0
 993 -37 976 -25 962 -11 c 1
 934 13 924 -1 915 -21 c 2
 866 -129 l 2
 855 -153 857 -163 879 -163 c 2
 918 -163 l 2
 930 -163 931 -172 929 -180 c 1
 928 -189 920 -194 910 -194 c 2
 690 -194 l 2
 681 -194 679 -189 680 -180 c 0
 681 -169 686 -163 698 -163 c 2
 730 -163 l 2
 759 -163 764 -155 774 -133 c 2
 897 135 l 2
 909 162 919 188 919 203 c 0
 919 221 910 224 901 224 c 0
 876 224 851 189 828 151 c 0
 810 121 799 91 782 61 c 0
 751 5 700 -37 641 -37 c 0
 613 -37 596 -25 582 -11 c 1
 554 13 544 -1 535 -21 c 2
 486 -129 l 2
 475 -153 477 -163 499 -163 c 2
 538 -163 l 2
 550 -163 551 -172 549 -180 c 1
 548 -189 540 -194 530 -194 c 2
 310 -194 l 2
 301 -194 299 -189 300 -180 c 0
 301 -169 306 -163 318 -163 c 2
 350 -163 l 2
 379 -163 384 -155 394 -133 c 2
 517 135 l 2
 529 162 539 188 539 203 c 0
 539 221 530 224 521 224 c 0
 494 224 466 183 442 140 c 0
 429 116 418 89 404 64 c 0
 372 7 321 -37 261 -37 c 0
 233 -37 216 -25 202 -11 c 1
 174 13 164 -1 155 -21 c 2
 106 -129 l 2
 95 -153 97 -163 119 -163 c 2
 158 -163 l 2
 170 -163 171 -172 169 -180 c 1
 168 -189 160 -194 150 -194 c 2
203 57 m 0
 203 29 219 1 243 1 c 0
 283 1 310 45 334 95 c 0
 349 126 360 159 360 184 c 0
 360 213 349 225 332 225 c 0
 298 225 253 184 226 135 c 0
 211 107 203 86 203 57 c 0
1343 57 m 0
 1343 29 1359 1 1383 1 c 0
 1423 1 1450 45 1474 95 c 0
 1489 126 1500 159 1500 184 c 0
 1500 213 1489 225 1472 225 c 0
 1438 225 1393 184 1366 135 c 0
 1351 107 1343 86 1343 57 c 0
963 57 m 0
 963 29 979 1 1003 1 c 0
 1043 1 1070 45 1094 95 c 0
 1109 126 1120 159 1120 184 c 0
 1120 213 1109 225 1092 225 c 0
 1058 225 1013 184 986 135 c 0
 971 107 963 86 963 57 c 0
EndSplineSet
EndChar

StartChar: afii57929
Encoding: 700 700 73
Width: 1956
VWidth: 0
Flags: HW
HStem: -194 31<-80 7 101 169 300 387 481 549 680 767 861 929 1060 1147 1241 1309 1440 1527 1621 1689> -37 38<213 284 593 664 973 1044 1353 1425 1733 1804> 224 49<111 178 307 375 491 558 687 754 871 938 1067 1135 1251 1318 1447 1514 1629 1698 1827 1903>
VStem: 1880 76<105 224>
LayerCount: 2
Fore
SplineSet
583 57 m 0
 583 29 599 1 623 1 c 0
 663 1 690 45 714 95 c 0
 729 126 740 159 740 184 c 0
 740 213 729 225 712 225 c 0
 678 225 633 184 606 135 c 0
 591 107 583 86 583 57 c 0
150 -194 m 2
 -70 -194 l 2
 -79 -194 -81 -189 -80 -180 c 0
 -79 -169 -74 -163 -62 -163 c 2
 -30 -163 l 2
 -1 -163 4 -155 14 -133 c 2
 137 135 l 2
 149 162 159 188 159 203 c 0
 159 221 150 224 141 224 c 0
 103 224 65 145 36 93 c 0
 30 81 24 74 19 74 c 0
 13 74 6 79 6 86 c 0
 6 90 7 96 10 103 c 0
 44 175 87 273 177 273 c 0
 197 273 217 261 229 242 c 0
 245 216 252 213 280 234 c 0
 309 255 337 269 365 269 c 0
 391 269 413 256 425 233 c 0
 437 211 446 209 463 227 c 0
 488 254 518 273 557 273 c 0
 577 273 597 261 609 242 c 0
 625 216 632 213 660 234 c 0
 689 255 717 269 745 269 c 0
 770 269 791 257 803 237 c 0
 816 214 832 217 850 234 c 0
 873 257 901 273 937 273 c 0
 957 273 977 261 989 242 c 0
 1005 216 1012 213 1040 234 c 0
 1069 255 1097 269 1125 269 c 0
 1151 269 1173 256 1185 233 c 0
 1197 211 1206 209 1223 227 c 0
 1248 254 1278 273 1317 273 c 0
 1337 273 1357 261 1369 242 c 0
 1385 216 1392 213 1420 234 c 0
 1449 255 1477 269 1505 269 c 0
 1529 269 1548 258 1561 240 c 0
 1575 219 1591 216 1611 236 c 0
 1634 258 1662 273 1697 273 c 0
 1717 273 1737 261 1749 242 c 0
 1765 216 1772 213 1800 234 c 0
 1829 255 1857 269 1885 269 c 0
 1927 269 1956 235 1956 185 c 0
 1956 82 1880 -37 1781 -37 c 0
 1753 -37 1736 -25 1722 -11 c 1
 1694 13 1684 -1 1675 -21 c 2
 1626 -129 l 2
 1615 -153 1617 -163 1639 -163 c 2
 1678 -163 l 2
 1690 -163 1691 -172 1689 -180 c 1
 1688 -189 1680 -194 1670 -194 c 2
 1450 -194 l 2
 1441 -194 1439 -189 1440 -180 c 0
 1441 -169 1446 -163 1458 -163 c 2
 1490 -163 l 2
 1519 -163 1524 -155 1534 -133 c 2
 1657 135 l 2
 1669 162 1679 188 1679 203 c 0
 1679 221 1670 224 1661 224 c 0
 1637 224 1612 192 1590 155 c 0
 1571 123 1559 91 1540 58 c 0
 1509 4 1459 -37 1401 -37 c 0
 1373 -37 1356 -25 1342 -11 c 1
 1314 13 1304 -1 1295 -21 c 2
 1246 -129 l 2
 1235 -153 1237 -163 1259 -163 c 2
 1298 -163 l 2
 1310 -163 1311 -172 1309 -180 c 1
 1308 -189 1300 -194 1290 -194 c 2
 1070 -194 l 2
 1061 -194 1059 -189 1060 -180 c 0
 1061 -169 1066 -163 1078 -163 c 2
 1110 -163 l 2
 1139 -163 1144 -155 1154 -133 c 2
 1277 135 l 2
 1289 162 1299 188 1299 203 c 0
 1299 221 1290 224 1281 224 c 0
 1254 224 1226 183 1202 140 c 0
 1189 116 1178 89 1164 64 c 0
 1132 7 1081 -37 1021 -37 c 0
 993 -37 976 -25 962 -11 c 1
 934 13 924 -1 915 -21 c 2
 866 -129 l 2
 855 -153 857 -163 879 -163 c 2
 918 -163 l 2
 930 -163 931 -172 929 -180 c 1
 928 -189 920 -194 910 -194 c 2
 690 -194 l 2
 681 -194 679 -189 680 -180 c 0
 681 -169 686 -163 698 -163 c 2
 730 -163 l 2
 759 -163 764 -155 774 -133 c 2
 897 135 l 2
 909 162 919 188 919 203 c 0
 919 221 910 224 901 224 c 0
 875 224 849 188 826 148 c 0
 809 116 795 80 775 49 c 0
 743 -1 696 -37 641 -37 c 0
 613 -37 596 -25 582 -11 c 1
 554 13 544 -1 535 -21 c 2
 486 -129 l 2
 475 -153 477 -163 499 -163 c 2
 538 -163 l 2
 550 -163 551 -172 549 -180 c 1
 548 -189 540 -194 530 -194 c 2
 310 -194 l 2
 301 -194 299 -189 300 -180 c 0
 301 -169 306 -163 318 -163 c 2
 350 -163 l 2
 379 -163 384 -155 394 -133 c 2
 517 135 l 2
 529 162 539 188 539 203 c 0
 539 221 530 224 521 224 c 0
 494 224 466 183 442 140 c 0
 429 116 418 89 404 64 c 0
 372 7 321 -37 261 -37 c 0
 233 -37 216 -25 202 -11 c 1
 174 13 164 -1 155 -21 c 2
 106 -129 l 2
 95 -153 97 -163 119 -163 c 2
 158 -163 l 2
 170 -163 171 -172 169 -180 c 1
 168 -189 160 -194 150 -194 c 2
203 57 m 0
 203 29 219 1 243 1 c 0
 283 1 310 45 334 95 c 0
 349 126 360 159 360 184 c 0
 360 213 349 225 332 225 c 0
 298 225 253 184 226 135 c 0
 211 107 203 86 203 57 c 0
1723 57 m 0
 1723 29 1739 1 1763 1 c 0
 1803 1 1830 45 1854 95 c 0
 1869 126 1880 159 1880 184 c 0
 1880 213 1869 225 1852 225 c 0
 1818 225 1773 184 1746 135 c 0
 1731 107 1723 86 1723 57 c 0
963 57 m 0
 963 29 979 1 1003 1 c 0
 1043 1 1070 45 1094 95 c 0
 1109 126 1120 159 1120 184 c 0
 1120 213 1109 225 1092 225 c 0
 1058 225 1013 184 986 135 c 0
 971 107 963 86 963 57 c 0
1343 57 m 0
 1343 29 1359 1 1383 1 c 0
 1423 1 1450 45 1474 95 c 0
 1489 126 1500 159 1500 184 c 0
 1500 213 1489 225 1472 225 c 0
 1438 225 1393 184 1366 135 c 0
 1351 107 1343 86 1343 57 c 0
EndSplineSet
EndChar

StartChar: uni02C0
Encoding: 704 704 74
Width: 730
VWidth: 0
Flags: W
HStem: -205 28<-48.426 7.37363> -194 31<214.195 300.546 395.23 462.948> -37 38<507.27 578.138> 224 49<405.129 481 600.79 680> 231 31<81.1897 161.788 274.091 354.754> 439 27<345.891 403.189>
VStem: -116 67<-176.28 -112> 404 63<376 438.512> 654 76<105.311 223.709>
LayerCount: 2
Fore
SplineSet
444 -194 m 2x7780
 224 -194 l 2
 215 -194 213 -189 214 -180 c 0
 215 -169 220 -163 232 -163 c 2
 264 -163 l 2
 293 -163 298 -155 308 -133 c 2
 431 135 l 2
 443 162 453 188 453 203 c 0
 453 221 444 224 435 224 c 0
 397 224 359 145 330 93 c 0
 324 81 318 74 313 74 c 0
 307 74 300 79 300 86 c 0
 300 90 301 96 304 103 c 0
 338 175 381 273 471 273 c 0
 491 273 511 261 523 242 c 0
 539 216 546 213 574 234 c 0
 603 255 631 269 659 269 c 0
 701 269 730 235 730 185 c 0
 730 82 654 -37 555 -37 c 0
 527 -37 510 -25 496 -11 c 0
 468 13 458 -1 449 -21 c 2
 400 -129 l 2
 389 -153 391 -163 413 -163 c 2
 452 -163 l 2
 464 -163 465 -172 463 -180 c 0
 462 -189 454 -194 444 -194 c 2x7780
497 57 m 0
 497 29 513 1 537 1 c 0
 577 1 604 45 628 95 c 0
 643 126 654 159 654 184 c 0
 654 213 643 225 626 225 c 0
 592 225 547 184 520 135 c 0
 505 107 497 86 497 57 c 0
377 466 m 0
 423 466 467 437 467 392 c 0
 467 360 444 335 412 335 c 0
 390 335 371 351 371 373 c 0
 371 411 404 414 404 428 c 0
 404 435 391 439 381 439 c 0
 339 439 310 394 277 301 c 0
 268 273 275 262 298 262 c 2
 344 262 l 2
 353 262 359 261 355 247 c 0
 351 234 345 231 333 231 c 2
 291 231 l 2
 267 231 254 224 246 195 c 2
 235 155 l 2
 178 -54 80 -205 -27 -205 c 0
 -72 -205 -116 -174 -116 -128 c 0
 -116 -96 -93 -68 -61 -68 c 0
 -38 -68 -17 -82 -17 -108 c 0
 -17 -151 -49 -151 -49 -166 c 0
 -49 -173 -43 -177 -31 -177 c 0
 48 -177 94 -18 145 150 c 2
 160 198 l 2
 165 215 166 231 134 231 c 2
 92 231 l 2
 84 231 77 234 81 249 c 0
 85 263 92 262 105 262 c 2
 147 262 l 2xaf80
 175 262 183 269 195 295 c 0
 239 400 293 466 377 466 c 0
EndSplineSet
EndChar

StartChar: uni02C1
Encoding: 705 705 75
Width: 1110
VWidth: 0
Flags: HW
HStem: -194 31<-80 7 101 169 300 387 481 549> -37 38<213 284 593 664> 224 49<111 178 307 375 491 558 687 763>
VStem: 740 76<105 224>
LayerCount: 2
Fore
SplineSet
497 57 m 0
 497 29 513 1 537 1 c 0
 577 1 604 45 628 95 c 0
 643 126 654 159 654 184 c 0
 654 213 643 225 626 225 c 0
 592 225 547 184 520 135 c 0
 505 107 497 86 497 57 c 0
444 -194 m 2
 224 -194 l 2
 215 -194 213 -189 214 -180 c 0
 215 -169 220 -163 232 -163 c 2
 264 -163 l 2
 293 -163 298 -155 308 -133 c 2
 431 135 l 2
 443 162 453 188 453 203 c 0
 453 221 444 224 435 224 c 0
 397 224 359 145 330 93 c 0
 324 81 318 74 313 74 c 0
 307 74 300 79 300 86 c 0
 300 90 301 96 304 103 c 0
 338 175 381 273 471 273 c 0
 491 273 511 261 523 242 c 0
 539 216 546 213 574 234 c 0
 603 255 631 269 659 269 c 0
 685 269 707 256 719 233 c 0
 731 211 740 209 757 227 c 0
 782 254 812 273 851 273 c 0
 871 273 891 261 903 242 c 0
 919 216 926 213 954 234 c 0
 983 255 1011 269 1039 269 c 0
 1081 269 1110 235 1110 185 c 0
 1110 82 1034 -37 935 -37 c 0
 907 -37 890 -25 876 -11 c 1
 848 13 838 -1 829 -21 c 2
 780 -129 l 2
 769 -153 771 -163 793 -163 c 2
 832 -163 l 2
 844 -163 845 -172 843 -180 c 1
 842 -189 834 -194 824 -194 c 2
 604 -194 l 2
 595 -194 593 -189 594 -180 c 0
 595 -169 600 -163 612 -163 c 2
 644 -163 l 2
 673 -163 678 -155 688 -133 c 2
 811 135 l 2
 823 162 833 188 833 203 c 0
 833 221 824 224 815 224 c 0
 788 224 760 183 736 140 c 0
 723 116 712 89 698 64 c 0
 666 7 615 -37 555 -37 c 0
 527 -37 510 -25 496 -11 c 1
 468 13 458 -1 449 -21 c 2
 400 -129 l 2
 389 -153 391 -163 413 -163 c 2
 452 -163 l 2
 464 -163 465 -172 463 -180 c 1
 462 -189 454 -194 444 -194 c 2
888 57 m 0
 888 29 904 1 928 1 c 0
 968 1 995 45 1019 95 c 0
 1034 126 1045 159 1045 184 c 0
 1045 213 1034 225 1017 225 c 0
 983 225 938 184 911 135 c 0
 896 107 888 86 888 57 c 0
377 466 m 0
 423 466 467 437 467 392 c 0
 467 360 444 335 412 335 c 0
 390 335 371 351 371 373 c 0
 371 411 404 414 404 428 c 0
 404 435 391 439 381 439 c 0
 339 439 310 394 277 301 c 0
 268 273 275 262 298 262 c 2
 344 262 l 2
 353 262 359 261 355 247 c 0
 351 234 345 231 333 231 c 2
 291 231 l 2
 267 231 254 224 246 195 c 2
 235 155 l 2
 178 -54 80 -205 -27 -205 c 0
 -72 -205 -116 -174 -116 -128 c 0
 -116 -96 -93 -68 -61 -68 c 0
 -38 -68 -17 -82 -17 -108 c 0
 -17 -151 -49 -151 -49 -166 c 0
 -49 -173 -43 -177 -31 -177 c 0
 48 -177 94 -18 145 150 c 2
 160 198 l 2
 165 215 166 231 134 231 c 2
 92 231 l 2
 84 231 77 234 81 249 c 0
 85 263 92 262 105 262 c 2
 147 262 l 2xaf80
 175 262 183 269 195 295 c 0
 239 400 293 466 377 466 c 0
EndSplineSet
EndChar

StartChar: uni02C2
Encoding: 706 706 76
Width: 1046
VWidth: 0
Flags: W
HStem: -205 28<-12.426 43.3369 277.574 333.337> -194 31<530.195 616.546 711.23 778.948> -37 38<823.27 894.138> 224 49<721.129 797 916.79 996> 231 31<117.19 197.788 310.091 487.788 600.091 680.754> 439 27<381.891 439.189 671.891 729.189>
VStem: -80 67<-176.28 -112> 210 67<-176.28 -112> 440 63<376 438.512> 730 63<376 438.512> 970 76<105.311 223.709>
LayerCount: 2
Fore
SplineSet
413 466 m 0xafe0
 459 466 503 437 503 392 c 0
 503 360 480 335 448 335 c 0
 426 335 407 351 407 373 c 0
 407 411 440 414 440 428 c 0
 440 435 427 439 417 439 c 0
 375 439 346 394 313 301 c 0
 304 273 311 262 334 262 c 2
 473 262 l 2
 501 262 509 269 521 295 c 1
 565 400 619 466 703 466 c 0
 749 466 793 437 793 392 c 0
 793 360 770 335 738 335 c 0
 716 335 697 351 697 373 c 0
 697 411 730 414 730 428 c 0
 730 435 717 439 707 439 c 0
 665 439 636 394 603 301 c 0
 594 273 601 262 624 262 c 2
 670 262 l 2
 679 262 685 261 681 247 c 0
 677 234 671 231 659 231 c 2
 617 231 l 2
 593 231 580 224 572 195 c 2
 561 155 l 2
 504 -54 406 -205 299 -205 c 0
 254 -205 210 -174 210 -128 c 0
 210 -96 233 -68 265 -68 c 0
 288 -68 309 -82 309 -108 c 0
 309 -151 277 -151 277 -166 c 0
 277 -173 283 -177 295 -177 c 0
 374 -177 419 -18 471 150 c 2
 486 198 l 2
 491 215 492 231 460 231 c 2
 327 231 l 2
 303 231 290 224 282 195 c 2
 271 155 l 2
 214 -54 116 -205 9 -205 c 0
 -36 -205 -80 -174 -80 -128 c 0
 -80 -96 -57 -68 -25 -68 c 0
 -2 -68 19 -82 19 -108 c 0
 19 -151 -13 -151 -13 -166 c 0
 -13 -173 -7 -177 5 -177 c 0
 84 -177 129 -18 181 150 c 2
 196 198 l 2
 201 215 202 231 170 231 c 2
 128 231 l 2
 120 231 113 234 117 249 c 0
 121 263 128 262 141 262 c 2
 183 262 l 2
 211 262 219 269 231 295 c 1
 275 400 329 466 413 466 c 0xafe0
760 -194 m 2x77e0
 540 -194 l 2
 531 -194 529 -189 530 -180 c 0
 531 -169 536 -163 548 -163 c 2
 580 -163 l 2
 609 -163 614 -155 624 -133 c 2
 747 135 l 2
 759 162 769 188 769 203 c 0
 769 221 760 224 751 224 c 0
 713 224 675 145 646 93 c 0
 640 81 634 74 629 74 c 0
 623 74 616 79 616 86 c 0
 616 90 617 96 620 103 c 0
 654 175 697 273 787 273 c 0
 807 273 827 261 839 242 c 0
 855 216 862 213 890 234 c 0
 919 255 947 269 975 269 c 0
 1017 269 1046 235 1046 185 c 0
 1046 82 970 -37 871 -37 c 0
 843 -37 826 -25 812 -11 c 0
 784 13 774 -1 765 -21 c 2
 716 -129 l 2
 705 -153 707 -163 729 -163 c 2
 768 -163 l 2
 780 -163 781 -172 779 -180 c 0
 778 -189 770 -194 760 -194 c 2x77e0
813 57 m 0
 813 29 829 1 853 1 c 0
 893 1 920 45 944 95 c 0
 959 126 970 159 970 184 c 0
 970 213 959 225 942 225 c 0
 908 225 863 184 836 135 c 0
 821 107 813 86 813 57 c 0
EndSplineSet
EndChar

StartChar: uni02A8
Encoding: 680 680 77
Width: 241
VWidth: 573
Flags: W
HStem: -8 25<52.8296 138.284> 235 24<97.5729 175.336>
VStem: 0 51<18.8619 83.2128> 43 37<170.459 223.391> 156 42<28.1294 97.8661> 177 48<172.793 233.831>
LayerCount: 2
Fore
SplineSet
142 235 m 0xd4
 107 235 80 219 80 195 c 0xd4
 80 176 109 163 130 153 c 0
 166 136 198 114 198 74 c 0
 198 18 148 -8 90 -8 c 0
 41 -8 0 11 0 54 c 0
 0 81 18 102 42 102 c 0
 60 102 71 88 71 71 c 0
 71 52 51 48 51 35 c 0
 51 19 76 17 94 17 c 0
 129 17 156 35 156 61 c 0xe8
 156 89 135 101 101 116 c 0
 69 130 43 149 43 183 c 0
 43 233 93 259 145 259 c 0
 190 259 225 236 225 196 c 0
 225 170 207 157 190 157 c 0
 175 157 159 168 159 185 c 0
 159 203 177 207 177 218 c 0
 177 230 163 235 142 235 c 0xd4
EndSplineSet
EndChar

StartChar: uni02A9
Encoding: 681 681 78
Width: 465
VWidth: 573
Flags: W
HStem: -8 39<355.5 411.566> -1 21G<28.5 34 61.5 68.5 168.5 174 201.5 208.5> 220 34<57.3855 105.998 192.348 245.998 332.45 389.498>
VStem: 25 53<3.28714 19> 165 53<3.28714 19> 325 45<31.6064 107.727> 376 45<139.602 219.58>
LayerCount: 2
Fore
SplineSet
237 254 m 0x7e
 256 254 271 247 277 230 c 0
 283 217 289 212 295 212 c 0
 301 212 308 217 316 224 c 0
 335 242 357 254 377 254 c 0
 403 254 421 240 421 208 c 0
 421 192 417 172 407 147 c 2
 374 62 l 2
 371 55 370 49 370 45 c 0
 370 35 375 31 383 31 c 0
 402 31 418 54 441 99 c 0
 445 106 451 110 455 110 c 0
 461 110 465 106 465 98 c 0
 465 95 465 91 463 87 c 0
 445 34 408 -8 368 -8 c 0xbe
 343 -8 325 6 325 38 c 0
 325 54 329 74 339 99 c 2
 371 184 l 2
 374 193 376 200 376 205 c 0
 376 215 370 220 362 220 c 0
 343 220 316 197 292 166 c 0
 270 140 253 111 240 77 c 2
 218 19 l 2
 211 3 212 -1 205 -1 c 0
 198 -1 197 3 189 3 c 0
 179 3 178 -1 170 -1 c 0
 167 -1 165 1 165 4 c 0
 165 6 166 10 168 14 c 2
 231 184 l 2
 234 193 236 200 236 205 c 0
 236 215 230 220 222 220 c 0
 202 220 175 197 150 166 c 0
 130 139 114 113 101 78 c 2
 78 19 l 2
 71 3 72 -1 65 -1 c 0
 58 -1 57 3 49 3 c 0
 39 3 38 -1 30 -1 c 0
 27 -1 25 1 25 4 c 0
 25 6 26 10 28 14 c 2
 91 184 l 2
 94 192 95 198 95 203 c 0
 95 213 89 217 84 217 c 0
 62 217 45 192 22 147 c 4
 18 140 13 136 8 136 c 0
 3 136 -0 140 -0 148 c 0
 -0 151 0 155 2 159 c 0
 21 212 57 254 97 254 c 0
 117 254 132 246 138 227 c 0
 143 213 148 207 153 207 c 0
 158 207 164 213 171 220 c 0
 192 240 215 254 237 254 c 0x7e
EndSplineSet
EndChar

StartChar: uni02AA
Encoding: 682 682 79
Width: 286
VWidth: 0
Flags: W
HStem: -1 21G<28.5 34 61.5 68.5> 224 30<190.6 241.499>
VStem: 25 53<3.28714 19> 222 64<171.017 223.808>
LayerCount: 2
Fore
SplineSet
231 254 m 0
 261 254 286 232 286 198 c 0
 286 168 265 152 241 152 c 3
 221 152 208 164 208 183 c 3
 208 203 222 210 222 219 c 0
 222 222 219 224 216 224 c 0
 198 224 151 173 134 145 c 0
 122 125 111 104 101 80 c 2
 78 19 l 2
 71 3 72 -1 65 -1 c 0
 58 -1 57 3 49 3 c 0
 39 3 38 -1 30 -1 c 0
 27 -1 25 1 25 4 c 0
 25 6 26 10 28 14 c 2
 91 184 l 2
 94 192 95 198 95 203 c 0
 95 213 90 217 83 217 c 0
 62 217 45 192 22 147 c 0
 18 140 13 136 8 136 c 0
 3 136 -0 140 -0 148 c 0
 -0 151 0 155 2 159 c 0
 21 212 57 254 97 254 c 0
 116 254 131 246 138 229 c 0
 143 216 147 212 153 212 c 0
 158 212 161 216 170 224 c 0
 190 242 208 254 231 254 c 0
EndSplineSet
EndChar

StartChar: uni02AB
Encoding: 683 683 80
Width: 280
VWidth: 573
Flags: W
HStem: -15 34<162.401 228.173> 211.5 46.5<90.4709 188.568>
VStem: 229 29<21.1769 61.3218>
LayerCount: 2
Fore
SplineSet
204 19 m 0
 216 19 229 27 229 41 c 0
 229 52 219 62 202 68 c 0
 191 72 179 82 179 94 c 0
 179 106 185 120 210 120 c 0
 234 120 258 93 258 59 c 0
 258 9 221 -15 191 -15 c 3
 148 -15 126 35 86 35 c 0
 66 35 39 9 21 -1 c 0
 16 -4 12 -5 9 -5 c 0
 3 -5 0 -1 0 5 c 0
 0 10 3 17 9 22 c 2
 43 55 l 2
 82 89 141.5 148.5 183.5 191.5 c 0
 186.5 194.5 188.5 197.5 188.5 200.5 c 0
 188.5 211.5 133.5 211.5 120.5 211.5 c 0
 110.5 211.5 102.076 208.151 93.5 194.5 c 2
 77.4795 169 l 2
 70.7959 158.403 63.4902 156.5 59.4902 156.5 c 0
 55.4902 156.5 52.4902 159.5 52.4902 165.5 c 0
 52.4902 168.5 53.4902 172.5 54.4902 176.5 c 2
 76 235 l 2
 82.5479 252.809 84 258 99 258 c 3
 117 258 141 251 191 251 c 3
 225 251 260 258 269 258 c 3
 278 258 280 255 280 251 c 0
 280 242 279 241 257 219 c 0
 232 194 182 148 162 128 c 2
 127 92 l 2
 120 85 116 79 116 74 c 0
 116 67 121 63 129 58 c 0
 143 50 160 36 177 27 c 0
 185 22 195 19 204 19 c 0
EndSplineSet
EndChar

StartChar: uni02AC
Encoding: 684 684 81
Width: 185
VWidth: 573
Flags: W
HStem: -7 36<75 131.364> 218 36<53.8368 110> 310 67<121.641 184.544>
VStem: 44 46<29.4251 107.75> 95 46<139.25 217.575> 119 68<312.641 374.683>
LayerCount: 2
Fore
SplineSet
91 184 m 2xf8
 94 192 95 199 95 204 c 0
 95 214 90 218 83 218 c 0
 61 218 44 191 21 146 c 0
 17 139 12 135 8 135 c 0
 3 135 0 140 0 147 c 0
 0 150 0 154 2 159 c 0
 21 212 57 254 97 254 c 0
 123 254 141 240 141 207 c 0
 141 192 137 172 127 147 c 2
 94 63 l 2
 91 55 90 49 90 44 c 0
 90 33 96 29 103 29 c 0
 124 29 141 56 164 101 c 0
 168 108 173 112 177 112 c 0
 182 112 185 107 185 100 c 0
 185 97 185 93 183 88 c 0
 165 35 128 -7 88 -7 c 0
 62 -7 44 7 44 40 c 0
 44 55 49 75 58 100 c 2
 91 184 l 2xf8
153 310 m 0
 135 310 119 326 119 344 c 0
 119 362 134 377 153 377 c 0
 172 377 187 363 187 344 c 0xf4
 187 325 171 310 153 310 c 0
EndSplineSet
EndChar

StartChar: uni02AD
Encoding: 685 685 82
Width: 325
VWidth: 573
Flags: W
HStem: -8 36<215.5 271.102> -1 21G<28.5 34 61.5 68.5> 220 34<57.2965 105.498 192.253 249.498>
VStem: 25 53<3.28714 19> 185 44<28.0722 105.07> 236 45<139.602 219.58>
LayerCount: 2
Fore
SplineSet
2 159 m 4x7c
 21 212 57 254 97 254 c 4
 116 254 131 246 138 229 c 4
 143 216 148 211 154 211 c 4
 159 211 166 215 175 223 c 4
 195 242 216 254 237 254 c 4
 263 254 281 240 281 208 c 4
 281 192 277 172 267 147 c 6
 234 62 l 6
 231 54 229 47 229 42 c 4
 229 33 233 28 242 28 c 4
 263 28 281 55 304 100 c 4
 308 107 313 111 317 111 c 4
 322 111 325 106 325 99 c 4
 325 96 325 92 323 87 c 4
 305 34 268 -8 228 -8 c 4xbc
 203 -8 185 6 185 38 c 4
 185 54 189 74 199 99 c 6
 231 184 l 6
 234 193 236 200 236 205 c 4
 236 215 230 220 222 220 c 4
 204 220 180 200 157 174 c 4
 134 146 116 117 101 80 c 6
 78 19 l 6
 71 3 72 -1 65 -1 c 4
 58 -1 57 3 49 3 c 4
 39 3 38 -1 30 -1 c 4
 27 -1 25 1 25 4 c 4
 25 6 26 10 28 14 c 6
 91 184 l 6
 94 192 95 198 95 203 c 4
 95 213 90 217 83 217 c 4
 62 217 45 192 22 147 c 4
 18 140 13 136 8 136 c 4
 3 136 -0 140 -0 148 c 4
 -0 151 0 155 2 159 c 4x7c
EndSplineSet
EndChar

StartChar: uni02AE
Encoding: 686 686 83
Width: 832
VWidth: 0
Flags: W
HStem: -7 36<376 432.364 712.5 768.102> -1 21G<28.5 34 61.5 68.5> 217 37<53.8115 105.498 353.553 409.998 550.812 602.498 687.251 746.498> 224 30<190.6 241.499> 310 67<422.641 485.544>
VStem: 25 53<3.28714 19> 222 64<171.017 223.808> 345 46<29.4251 107.75> 396 46<139.25 217.575> 420 68<312.641 374.683> 522 53<3.28616 18.999> 682 44<28.0712 105.069> 733 45<139.601 219.579>
LayerCount: 2
Fore
SplineSet
499 158.999 m 0x0f38
 518 211.999 554 253.999 594 253.999 c 0
 613 253.999 628 245.999 635 228.999 c 0
 640 215.999 645 210.999 651 210.999 c 0
 656 210.999 663 214.999 672 222.999 c 0
 692 241.999 713 253.999 734 253.999 c 0
 760 253.999 778 239.999 778 207.999 c 0
 778 191.999 774 171.999 764 146.999 c 2
 731 61.999 l 2
 728 53.999 726 46.999 726 41.999 c 0
 726 32.999 730 27.999 739 27.999 c 0
 760 27.999 778 54.999 801 99.999 c 0
 805 106.999 810 110.999 814 110.999 c 0
 819 110.999 822 105.999 822 98.999 c 0
 822 95.999 822 91.999 820 86.999 c 0
 802 33.999 765 -8.00098 725 -8.00098 c 0
 700 -8.00098 682 5.99902 682 37.999 c 0
 682 53.999 686 73.999 696 98.999 c 2
 728 183.999 l 2
 731 192.999 733 199.999 733 204.999 c 0
 733 214.999 727 219.999 719 219.999 c 0
 701 219.999 677 199.999 654 173.999 c 0
 631 145.999 613 116.999 598 79.999 c 2
 575 18.999 l 2
 568 2.99902 569 -1.00098 562 -1.00098 c 0
 555 -1.00098 554 2.99902 546 2.99902 c 0
 536 2.99902 535 -1.00098 527 -1.00098 c 0
 524 -1.00098 522 0.999023 522 3.99902 c 0
 522 5.99902 523 9.99902 525 13.999 c 2
 588 183.999 l 2
 591 191.999 592 197.999 592 202.999 c 0
 592 212.999 587 216.999 580 216.999 c 0
 559 216.999 542 191.999 519 146.999 c 0
 515 139.999 510 135.999 505 135.999 c 0
 500 135.999 497 139.999 497 147.999 c 0
 497 150.999 497 154.999 499 158.999 c 0x0f38
392 184 m 2
 395 192 396 199 396 204 c 0
 396 214 391 218 384 218 c 0
 362 218 345 191 322 146 c 0
 318 139 313 135 309 135 c 0
 304 135 301 140 301 147 c 0
 301 150 301 154 303 159 c 0
 322 212 358 254 398 254 c 0
 424 254 442 240 442 207 c 0
 442 192 438 172 428 147 c 2
 395 63 l 2
 392 55 391 49 391 44 c 0
 391 33 397 29 404 29 c 0
 425 29 442 56 465 101 c 0
 469 108 474 112 478 112 c 0
 483 112 486 107 486 100 c 0
 486 97 486 93 484 88 c 0
 466 35 429 -7 389 -7 c 0xafb8
 363 -7 345 7 345 40 c 0
 345 55 350 75 359 100 c 2
 392 184 l 2
454 310 m 0
 436 310 420 326 420 344 c 0
 420 362 435 377 454 377 c 0
 473 377 488 363 488 344 c 0x0f78
 488 325 472 310 454 310 c 0
231 254 m 0x1f38
 261 254 286 232 286 198 c 0
 286 168 265 152 241 152 c 3
 221 152 208 164 208 183 c 3
 208 203 222 210 222 219 c 0
 222 222 219 224 216 224 c 0x1f38
 198 224 151 173 134 145 c 0
 122 125 111 104 101 80 c 2
 78 19 l 2
 71 3 72 -1 65 -1 c 0
 58 -1 57 3 49 3 c 0
 39 3 38 -1 30 -1 c 0
 27 -1 25 1 25 4 c 0
 25 6 26 10 28 14 c 2
 91 184 l 2
 94 192 95 198 95 203 c 0
 95 213 90 217 83 217 c 0
 62 217 45 192 22 147 c 0
 18 140 13 136 8 136 c 0
 3 136 -0 140 -0 148 c 0
 -0 151 0 155 2 159 c 0
 21 212 57 254 97 254 c 0x6f38
 116 254 131 246 138 229 c 0
 143 216 147 212 153 212 c 0
 158 212 161 216 170 224 c 0
 190 242 208 254 231 254 c 0x1f38
EndSplineSet
EndChar

StartChar: uni02B5
Encoding: 693 693 84
Width: 767
VWidth: 573
Flags: HW
HStem: -205 28<344.574 400.374> -8 39<355.5 411.566> -1 21G<28.5 34 61.5 68.5 168.5 174 201.5 208.5> 220 34<57.3855 105.998 192.348 245.998 332.45 389.498> 231 31<474.19 554.788 667.091 747.754> 439 27<738.891 796.189>
VStem: 25 53<3.28714 19> 165 53<3.28714 19> 277 67<-176.28 -112> 325 45<31.6064 107.727> 376 45<139.602 219.58> 797 63<376 438.512>
LayerCount: 2
Fore
SplineSet
237 254 m 0xb770
 256 254 271 247 277 230 c 0xb7b0
 283 217 289 212 295 212 c 0
 301 212 308 217 316 224 c 0
 335 242 357 254 377 254 c 0
 403 254 421 240 421 208 c 0
 421 192 417 172 407 147 c 2
 374 62 l 2
 371 55 370 49 370 45 c 0
 370 35 375 31 383 31 c 0
 402 31 418 54 441 99 c 0
 445 106 451 110 455 110 c 0
 461 110 465 106 465 98 c 0
 465 95 465 91 463 87 c 0
 445 34 408 -8 368 -8 c 0xd770
 343 -8 325 6 325 38 c 0
 325 54 329 74 339 99 c 2
 371 184 l 2
 374 193 376 200 376 205 c 0
 376 215 370 220 362 220 c 0
 343 220 316 197 292 166 c 0
 270 140 253 111 240 77 c 2
 218 19 l 2
 211 3 212 -1 205 -1 c 0
 198 -1 197 3 189 3 c 0
 179 3 178 -1 170 -1 c 0
 167 -1 165 1 165 4 c 0
 165 6 166 10 168 14 c 2
 231 184 l 2
 234 193 236 200 236 205 c 0
 236 215 230 220 222 220 c 0
 202 220 175 197 150 166 c 0
 130 139 114 113 101 78 c 2
 78 19 l 2
 71 3 72 -1 65 -1 c 0
 58 -1 57 3 49 3 c 0
 39 3 38 -1 30 -1 c 0
 27 -1 25 1 25 4 c 0
 25 6 26 10 28 14 c 2
 91 184 l 2
 94 192 95 198 95 203 c 0
 95 213 89 217 84 217 c 0
 62 217 45 192 22 147 c 0
 18 140 13 136 8 136 c 0
 3 136 -0 140 -0 148 c 0
 -0 151 0 155 2 159 c 0
 21 212 57 254 97 254 c 0
 117 254 132 246 138 227 c 0
 143 213 148 207 153 207 c 0
 158 207 164 213 171 220 c 0
 192 240 215 254 237 254 c 0xb770
788 466 m 0
 834 466 878 437 878 392 c 0
 878 360 855 335 823 335 c 0
 801 335 782 351 782 373 c 0
 782 411 815 414 815 428 c 0
 815 435 802 439 792 439 c 0
 750 439 721 394 688 301 c 0
 679 273 686 262 709 262 c 2
 755 262 l 2
 764 262 770 261 766 247 c 0
 762 234 756 231 744 231 c 2
 702 231 l 2
 678 231 665 224 657 195 c 2
 646 155 l 2
 589 -54 491 -205 384 -205 c 0
 339 -205 295 -174 295 -128 c 0
 295 -96 318 -68 350 -68 c 0
 373 -68 394 -82 394 -108 c 0
 394 -151 362 -151 362 -166 c 0
 362 -173 368 -177 380 -177 c 0
 459 -177 505 -18 556 150 c 2
 571 198 l 2
 576 215 577 231 545 231 c 2
 503 231 l 2
 495 231 488 234 492 249 c 0
 496 263 503 262 516 262 c 2
 558 262 l 2x8fb0
 586 262 594 269 606 295 c 0
 650 400 704 466 788 466 c 0
EndSplineSet
EndChar

StartChar: afii64937
Encoding: 701 701 85
Width: 867
VWidth: 573
Flags: W
HStem: -194 31<352.195 438.546 533.23 600.948> -37 38<645.27 716.138> -8 42<355.5 413.55> -1 21G<28.5 34 61.5 68.5 168.5 174 201.5 208.5> 220 34<57.3855 105.998 192.348 245.998 332.45 389.498> 224 49<542.556 609.997 738.79 814.508>
VStem: 25 53<3.28714 19> 165 53<3.28714 19> 376 45<139.602 219.58> 792 76<105.311 223.709>
LayerCount: 2
Fore
SplineSet
635 57 m 0xc3c0
 635 29 651 1 675 1 c 0
 715 1 742 45 766 95 c 0
 781 126 792 159 792 184 c 0
 792 213 781 225 764 225 c 0
 730 225 685 184 658 135 c 0
 643 107 635 86 635 57 c 0xc3c0
582 -194 m 2
 362 -194 l 2
 353 -194 351 -189 352 -180 c 0
 353 -169 358 -163 370 -163 c 2
 402 -163 l 2
 431 -163 436 -155 446 -133 c 2
 569 135 l 2
 581 162 591 188 591 203 c 0
 591 221 582 224 573 224 c 0
 542 224 508 171 484 122 c 0
 460 73 425 -8 368 -8 c 0xa7c0
 343 -8 325 6 325 38 c 0
 325 54 329 74 339 99 c 2
 371 184 l 2
 374 193 376 200 376 205 c 0
 376 215 370 220 362 220 c 0
 343 220 316 197 292 166 c 1
 270 140 253 111 240 77 c 2
 218 19 l 2
 211 3 212 -1 205 -1 c 0
 198 -1 197 3 189 3 c 0
 179 3 178 -1 170 -1 c 0
 167 -1 165 1 165 4 c 0
 165 6 166 10 168 14 c 2
 231 184 l 2
 234 193 236 200 236 205 c 0
 236 215 230 220 222 220 c 0
 202 220 175 197 150 166 c 1
 130 139 114 113 101 78 c 2
 78 19 l 2
 71 3 72 -1 65 -1 c 0
 58 -1 57 3 49 3 c 0
 39 3 38 -1 30 -1 c 0
 27 -1 25 1 25 4 c 0
 25 6 26 10 28 14 c 2
 91 184 l 2
 94 192 95 198 95 203 c 0
 95 213 89 217 84 217 c 0
 62 217 45 192 22 147 c 0
 18 140 13 136 8 136 c 0
 3 136 -0 140 -0 148 c 0
 -0 151 0 155 2 159 c 0
 21 212 57 254 97 254 c 0
 117 254 132 246 138 227 c 0
 143 213 148 207 153 207 c 0
 158 207 164 213 171 220 c 0
 192 240 215 254 237 254 c 0x9bc0
 256 254 271 247 277 230 c 1
 283 217 289 212 295 212 c 0
 301 212 308 217 316 224 c 0x87c0
 335 242 357 254 377 254 c 0x8bc0
 403 254 421 240 421 208 c 0
 421 192 417 172 407 147 c 2
 374 62 l 2
 369 50 369 34 383 34 c 0
 415 34 447 113 461 143 c 0
 493 207 535 273 609 273 c 0xa7c0
 629 273 649 261 661 242 c 0
 677 216 684 213 712 234 c 0
 741 255 769 269 797 269 c 0
 839 269 868 235 868 185 c 0
 868 82 792 -37 693 -37 c 0
 665 -37 648 -25 634 -11 c 1
 606 13 596 -1 587 -21 c 2
 538 -129 l 2
 527 -153 529 -163 551 -163 c 2
 590 -163 l 2
 602 -163 603 -172 601 -180 c 1
 600 -189 592 -194 582 -194 c 2
EndSplineSet
EndChar

StartChar: uni02AF
Encoding: 687 687 86
Width: 461
VWidth: 573
Flags: W
HStem: -7 34.335<-1112.87 -1050.3 -795.874 -732.473 -631.289 -581.778 339.126 402.527> -1 21G<-407.008 -400.146 -372.47 -365.748 -220.008 -213.146 -185.47 -178.748 26.9922 33.8545 61.5303 68.2524 166.992 173.854 201.53 208.252> 219.665 34.335<-1128.33 -1065.75 -812.558 -748.75 -638.273 -565.929 -380.327 -317.75 -194.558 -130.75 54.4217 95.079 192.442 256.25 322.442 386.25>
LayerCount: 2
Fore
SplineSet
360.998 183.665 m 2x20
 370.393 208.521 365 219.665 351.832 219.665 c 0
 320 219.665 267.834 158.167 238.834 101.167 c 0
 236.839 97.2461 226.114 103.325 227.5 107.5 c 0
 241.834 150.667 307 254 367 254 c 0
 405.5 254 426.856 222.641 397.376 147 c 2
 364.378 62.335 l 2
 354.729 37.5771 360.376 26.335 373.544 26.335 c 0
 395.222 26.335 413.043 53.667 436.376 99.332 c 0
 445.976 118.119 461.987 111.442 453.287 86.6357 c 0
 434.709 33.667 398.076 -8 358.376 -8 c 0
 319.876 -8 300.3 23.0605 329 99 c 2
 360.998 183.665 l 2x20
-1091 183.665 m 2
 -1081.69 208.554 -1087 219.665 -1100.17 219.665 c 0
 -1121.85 219.665 -1139.67 192.333 -1163 146.668 c 0
 -1172.6 127.881 -1188.61 134.558 -1179.91 159.364 c 0
 -1161.33 212.333 -1124.7 254 -1085 254 c 0
 -1046.5 254 -1025.15 222.643 -1054.62 147 c 2
 -1087.62 63.335 l 2
 -1096.93 38.4463 -1091.62 27.335 -1078.46 27.335 c 0
 -1056.78 27.335 -1038.96 54.667 -1015.62 100.332 c 0
 -1006.02 119.119 -990.013 112.442 -998.713 87.6357 c 0
 -1017.29 34.667 -1053.92 -7 -1093.62 -7 c 0xa0
 -1132.12 -7 -1153.47 24.3574 -1124 100 c 2
 -1091 183.665 l 2
-150 254 m 0
 -111.5 254 -90.1494 222.643 -119.624 147 c 2
 -169.5 19 l 2
 -175.619 3.2959 -175.161 -1 -182.334 -1 c 3
 -188.605 -1 -189.727 3.125 -198.375 3.125 c 3
 -208.121 3.125 -209.457 -1 -216.834 -1 c 3x60
 -223.182 -1 -223.117 4.20312 -219.5 13.875 c 2
 -156.002 183.665 l 2
 -146.694 208.554 -152 219.665 -165.168 219.665 c 0
 -197 219.665 -249.166 158.167 -278.166 101.167 c 0
 -280.161 97.2461 -290.886 103.325 -289.5 107.5 c 0
 -275.166 150.667 -210 254 -150 254 c 0
-615.168 219.665 m 0
 -636.846 219.665 -654.667 192.333 -678 146.668 c 0
 -687.6 127.881 -703.611 134.558 -694.911 159.364 c 0
 -676.333 212.333 -639.7 254 -600 254 c 0
 -542.551 254 -546.423 192.144 -579.646 127.5 c 18
 -603.03 82 l 2
 -611.562 65.3966 -631.289 27.335 -603.456 27.335 c 0
 -581.778 27.335 -563.957 54.667 -540.624 100.332 c 0
 -531.024 119.119 -515.013 112.442 -523.713 87.6357 c 0
 -542.291 34.667 -578.924 -7 -618.624 -7 c 0xa0
 -674.348 -7 -673.807 51.7307 -640.006 117.5 c 18
 -614.053 168 l 2
 -606.1 183.473 -589.307 219.665 -615.168 219.665 c 0
-615.168 219.665 m 0
 -636.846 219.665 -654.667 192.333 -678 146.668 c 0
 -687.6 127.881 -703.611 134.558 -694.911 159.364 c 0
 -676.333 212.333 -639.7 254 -600 254 c 0
 -542.551 254 -546.423 192.144 -579.646 127.5 c 18
 -603.03 82 l 2
 -611.562 65.3966 -631.289 27.335 -603.456 27.335 c 0
 -581.778 27.335 -563.957 54.667 -540.624 100.332 c 0
 -531.024 119.119 -515.013 112.442 -523.713 87.6357 c 0
 -542.291 34.667 -578.924 -7 -618.624 -7 c 0
 -674.348 -7 -673.807 51.7307 -640.006 117.5 c 18
 -614.053 168 l 2
 -606.1 183.473 -589.307 219.665 -615.168 219.665 c 0
-774.002 183.665 m 2
 -764.607 208.521 -770 219.665 -783.168 219.665 c 0
 -815 219.665 -867.166 158.167 -896.166 101.167 c 0
 -898.161 97.2461 -908.886 103.325 -907.5 107.5 c 0
 -893.166 150.667 -828 254 -768 254 c 0
 -729.5 254 -708.144 222.641 -737.624 147 c 2
 -770.622 62.335 l 2
 -780.271 37.5771 -774.624 26.335 -761.456 26.335 c 0
 -739.778 26.335 -721.957 53.667 -698.624 99.332 c 0
 -689.024 118.119 -673.013 111.442 -681.713 86.6357 c 0
 -700.291 33.667 -736.924 -8 -776.624 -8 c 0
 -815.124 -8 -834.7 23.0605 -806 99 c 2
 -774.002 183.665 l 2
-431.911 159.364 m 0
 -413.333 212.333 -376.7 254 -337 254 c 0
 -298.5 254 -277.149 222.643 -306.624 147 c 2
 -356.5 19 l 2
 -362.619 3.2959 -362.161 -1 -369.334 -1 c 3
 -375.605 -1 -376.727 3.125 -385.375 3.125 c 3
 -395.121 3.125 -396.457 -1 -403.834 -1 c 3x60
 -410.182 -1 -410.117 4.20312 -406.5 13.875 c 2
 -343.002 183.665 l 2
 -333.694 208.554 -339 219.665 -352.168 219.665 c 0
 -373.846 219.665 -391.667 192.333 -415 146.668 c 0
 -424.6 127.881 -440.611 134.558 -431.911 159.364 c 0
2.08887 159.364 m 0
 20.667 212.333 57.2998 254 97 254 c 0
 135.5 254 156.851 222.643 127.376 147 c 2
 77.5 19 l 2
 71.3809 3.2959 71.8389 -1 64.666 -1 c 3
 58.3945 -1 57.2734 3.125 48.625 3.125 c 3
 38.8789 3.125 37.543 -1 30.166 -1 c 3
 23.8184 -1 23.8828 4.20312 27.5 13.875 c 2
 90.998 183.665 l 2
 100.306 208.554 95 219.665 81.832 219.665 c 0
 60.1543 219.665 42.333 192.333 19 146.668 c 0
 9.40039 127.881 -6.61133 134.558 2.08887 159.364 c 0
237 254 m 0
 275.5 254 296.851 222.643 267.376 147 c 2
 217.5 19 l 2
 211.381 3.29637 211.839 -1 204.666 -1 c 3
 198.395 -1 197.273 3.125 188.625 3.125 c 3
 178.879 3.125 177.543 -1 170.166 -1 c 3
 163.818 -1 163.883 4.2034 167.5 13.875 c 2
 230.998 183.665 l 2
 240.306 208.554 235 219.665 221.832 219.665 c 0
 190 219.665 137.834 158.167 108.834 101.167 c 0
 106.839 97.2461 96.1143 103.325 97.5 107.5 c 0
 111.834 150.667 177 254 237 254 c 0
EndSplineSet
EndChar

StartChar: uni02C8
Encoding: 712 712 87
Width: 528
VWidth: 573
Flags: W
HStem: -205 28<123.574 179.374> -8 25<52.8296 138.284> 231 31<87.9444 176.737 253.19 333.788 446.091 526.754> 439 27<517.891 575.189>
VStem: 0 51<18.8619 83.2128> 43 37<170.459 223.391> 56 67<-176.28 -112> 156 42<28.1294 97.8661> 177 48<172.793 233.831> 576 63<376 438.512>
LayerCount: 2
Fore
SplineSet
142 235 m 0xf4c0
 107 235 80 219 80 195 c 0xf4c0
 80 176 109 163 130 153 c 0
 166 136 198 114 198 74 c 0
 198 18 148 -8 90 -8 c 0
 41 -8 0 11 0 54 c 0
 0 81 18 102 42 102 c 0
 60 102 71 88 71 71 c 0
 71 52 51 48 51 35 c 0
 51 19 76 17 94 17 c 0
 129 17 156 35 156 61 c 0xf940
 156 89 135 101 101 116 c 0
 69 130 43 149 43 183 c 0
 43 233 93 259 145 259 c 0
 190 259 225 236 225 196 c 0
 225 170 207 157 190 157 c 0
 175 157 159 168 159 185 c 0
 159 203 177 207 177 218 c 0
 177 230 163 235 142 235 c 0xf4c0
549 466 m 0
 595 466 639 437 639 392 c 0
 639 360 616 335 584 335 c 0
 562 335 543 351 543 373 c 0
 543 411 576 414 576 428 c 0
 576 435 563 439 553 439 c 0
 511 439 482 394 449 301 c 0
 440 273 447 262 470 262 c 2
 516 262 l 2
 525 262 531 261 527 247 c 0
 523 234 517 231 505 231 c 2
 463 231 l 2
 439 231 426 224 418 195 c 2
 407 155 l 2
 350 -54 252 -205 145 -205 c 0
 100 -205 56 -174 56 -128 c 0
 56 -96 79 -68 111 -68 c 0
 134 -68 155 -82 155 -108 c 0
 155 -151 123 -151 123 -166 c 0xf240
 123 -173 129 -177 141 -177 c 0
 220 -177 266 -18 317 150 c 2
 332 198 l 2
 337 215 338 231 306 231 c 2
 264 231 l 2
 256 231 249 234 253 249 c 0
 257 263 264 262 277 262 c 2
 319 262 l 2
 347 262 355 269 367 295 c 0
 411 400 465 466 549 466 c 0
EndSplineSet
EndChar

StartChar: uni02C9
Encoding: 713 713 88
Width: 818
VWidth: 573
Flags: W
HStem: -205 28<123.574 179.337 413.574 469.337> -8 25<52.8296 138.284> 231 31<87.9444 176.737 253.19 333.788 446.091 623.788 736.091 816.754> 439 27<517.891 575.189 807.891 865.189>
VStem: 0 51<18.8619 83.2128> 43 37<170.459 223.391> 56 67<-176.28 -112> 156 42<28.1294 97.8661> 177 48<172.793 233.831> 346 67<-176.28 -112> 576 63<376 438.512> 866 63<376 438.512>
LayerCount: 2
Fore
SplineSet
549 466 m 0xf270
 595 466 639 437 639 392 c 0
 639 360 616 335 584 335 c 0
 562 335 543 351 543 373 c 0
 543 411 576 414 576 428 c 0
 576 435 563 439 553 439 c 0
 511 439 482 394 449 301 c 0
 440 273 447 262 470 262 c 2
 609 262 l 2
 637 262 645 269 657 295 c 1
 701 400 755 466 839 466 c 0
 885 466 929 437 929 392 c 0
 929 360 906 335 874 335 c 0
 852 335 833 351 833 373 c 0
 833 411 866 414 866 428 c 0
 866 435 853 439 843 439 c 0
 801 439 772 394 739 301 c 0
 730 273 737 262 760 262 c 2
 806 262 l 2
 815 262 821 261 817 247 c 0
 813 234 807 231 795 231 c 2
 753 231 l 2
 729 231 716 224 708 195 c 2
 697 155 l 2
 640 -54 542 -205 435 -205 c 0
 390 -205 346 -174 346 -128 c 0
 346 -96 369 -68 401 -68 c 0
 424 -68 445 -82 445 -108 c 0
 445 -151 413 -151 413 -166 c 0
 413 -173 419 -177 431 -177 c 0
 510 -177 555 -18 607 150 c 2
 622 198 l 2
 627 215 628 231 596 231 c 2
 463 231 l 2
 439 231 426 224 418 195 c 2
 407 155 l 2
 350 -54 252 -205 145 -205 c 0
 100 -205 56 -174 56 -128 c 0
 56 -96 79 -68 111 -68 c 0
 134 -68 155 -82 155 -108 c 0
 155 -151 123 -151 123 -166 c 0
 123 -173 129 -177 141 -177 c 0
 220 -177 265 -18 317 150 c 2
 332 198 l 2
 337 215 338 231 306 231 c 2
 264 231 l 2
 256 231 249 234 253 249 c 0
 257 263 264 262 277 262 c 2
 319 262 l 2
 347 262 355 269 367 295 c 1
 411 400 465 466 549 466 c 0xf270
142 235 m 0
 107 235 80 219 80 195 c 0xf4f0
 80 176 109 163 130 153 c 0
 166 136 198 114 198 74 c 0
 198 18 148 -8 90 -8 c 0
 41 -8 0 11 0 54 c 0
 0 81 18 102 42 102 c 0
 60 102 71 88 71 71 c 0
 71 52 51 48 51 35 c 0
 51 19 76 17 94 17 c 0
 129 17 156 35 156 61 c 0xf970
 156 89 135 101 101 116 c 0
 69 130 43 149 43 183 c 0
 43 233 93 259 145 259 c 0
 190 259 225 236 225 196 c 0
 225 170 207 157 190 157 c 0
 175 157 159 168 159 185 c 0
 159 203 177 207 177 218 c 0xf4f0
 177 230 163 235 142 235 c 0
EndSplineSet
EndChar

StartChar: uni02CA
Encoding: 714 714 89
Width: 1108
VWidth: 573
Flags: W
HStem: -205 28<123.574 179.337 413.574 469.337 703.574 759.337> -8 25<52.8296 138.284> 231 31<87.9444 176.737 253.19 333.788 446.091 623.788 736.091 913.788 1026.09 1106.75> 439 27<517.891 575.189 807.891 865.189 1097.89 1155.19>
VStem: 0 51<18.8619 83.2128> 43 37<170.459 223.391> 56 67<-176.28 -112> 156 42<28.1294 97.8661> 177 48<172.793 233.831> 346 67<-176.28 -112> 576 63<376 438.512> 636 67<-176.28 -112> 866 63<376 438.512> 1156 63<376 438.512>
LayerCount: 2
Fore
SplineSet
549 466 m 0xf25c
 595 466 639 437 639 392 c 0
 639 360 616 335 584 335 c 0
 562 335 543 351 543 373 c 0
 543 411 576 414 576 428 c 0xf26c
 576 435 563 439 553 439 c 0
 511 439 482 394 449 301 c 0
 440 273 447 262 470 262 c 2
 609 262 l 2
 637 262 645 269 657 295 c 1
 701 400 755 466 839 466 c 0
 885 466 929 437 929 392 c 0
 929 360 906 335 874 335 c 0
 852 335 833 351 833 373 c 0
 833 411 866 414 866 428 c 0
 866 435 853 439 843 439 c 0
 801 439 772 394 739 301 c 0
 730 273 737 262 760 262 c 2
 899 262 l 2
 927 262 935 269 947 295 c 1
 991 400 1045 466 1129 466 c 0
 1175 466 1219 437 1219 392 c 0
 1219 360 1196 335 1164 335 c 0
 1142 335 1123 351 1123 373 c 0
 1123 411 1156 414 1156 428 c 0
 1156 435 1143 439 1133 439 c 0
 1091 439 1062 394 1029 301 c 0
 1020 273 1027 262 1050 262 c 2
 1096 262 l 2
 1105 262 1111 261 1107 247 c 0
 1103 234 1097 231 1085 231 c 2
 1043 231 l 2
 1019 231 1006 224 998 195 c 2
 987 155 l 2
 930 -54 832 -205 725 -205 c 0
 680 -205 636 -174 636 -128 c 0
 636 -96 659 -68 691 -68 c 0
 714 -68 735 -82 735 -108 c 0
 735 -151 703 -151 703 -166 c 0
 703 -173 709 -177 721 -177 c 0
 800 -177 845 -18 897 150 c 2
 912 198 l 2
 917 215 918 231 886 231 c 2
 753 231 l 2
 729 231 716 224 708 195 c 2
 697 155 l 2
 640 -54 542 -205 435 -205 c 0
 390 -205 346 -174 346 -128 c 0
 346 -96 369 -68 401 -68 c 0
 424 -68 445 -82 445 -108 c 0
 445 -151 413 -151 413 -166 c 0
 413 -173 419 -177 431 -177 c 0
 510 -177 555 -18 607 150 c 2
 622 198 l 2
 627 215 628 231 596 231 c 2
 463 231 l 2
 439 231 426 224 418 195 c 2
 407 155 l 2
 350 -54 252 -205 145 -205 c 0
 100 -205 56 -174 56 -128 c 0
 56 -96 79 -68 111 -68 c 0
 134 -68 155 -82 155 -108 c 0
 155 -151 123 -151 123 -166 c 0
 123 -173 129 -177 141 -177 c 0
 220 -177 265 -18 317 150 c 2
 332 198 l 2
 337 215 338 231 306 231 c 2
 264 231 l 2
 256 231 249 234 253 249 c 0
 257 263 264 262 277 262 c 2
 319 262 l 2
 347 262 355 269 367 295 c 1
 411 400 465 466 549 466 c 0xf25c
142 235 m 0
 107 235 80 219 80 195 c 0xf4cc
 80 176 109 163 130 153 c 0
 166 136 198 114 198 74 c 0
 198 18 148 -8 90 -8 c 0
 41 -8 0 11 0 54 c 0
 0 81 18 102 42 102 c 0
 60 102 71 88 71 71 c 0
 71 52 51 48 51 35 c 0
 51 19 76 17 94 17 c 0
 129 17 156 35 156 61 c 0xf94c
 156 89 135 101 101 116 c 0
 69 130 43 149 43 183 c 0
 43 233 93 259 145 259 c 0
 190 259 225 236 225 196 c 0
 225 170 207 157 190 157 c 0
 175 157 159 168 159 185 c 0
 159 203 177 207 177 218 c 0xf4cc
 177 230 163 235 142 235 c 0
EndSplineSet
EndChar

StartChar: uni02CB
Encoding: 715 715 90
Width: 1398
VWidth: 573
Flags: W
HStem: -205 28<123.574 179.337 413.574 469.337 703.574 759.337 993.574 1049.34> -8 25<52.8296 138.284> 231 31<87.9444 176.737 253.19 333.788 446.091 623.788 736.091 913.788 1026.09 1203.79 1316.09 1396.75> 439 27<517.891 575.189 807.891 865.189 1097.89 1155.19 1387.89 1445.19>
VStem: 0 51<18.8619 83.2128> 43 37<170.459 223.391> 56 67<-176.28 -112> 156 42<28.1294 97.8661> 177 48<172.793 233.831> 346 67<-176.28 -112> 576 63<376 438.512> 636 67<-176.28 -112> 866 63<376 438.512> 926 67<-176.28 -112> 1156 63<376 438.512> 1446 63<376 438.512>
LayerCount: 2
Fore
SplineSet
549 466 m 0xf257
 595 466 639 437 639 392 c 0
 639 360 616 335 584 335 c 0
 562 335 543 351 543 373 c 0
 543 411 576 414 576 428 c 0
 576 435 563 439 553 439 c 0
 511 439 482 394 449 301 c 0
 440 273 447 262 470 262 c 2
 609 262 l 2
 637 262 645 269 657 295 c 1
 701 400 755 466 839 466 c 0
 885 466 929 437 929 392 c 0
 929 360 906 335 874 335 c 0
 852 335 833 351 833 373 c 0
 833 411 866 414 866 428 c 0xf26b
 866 435 853 439 843 439 c 0
 801 439 772 394 739 301 c 0
 730 273 737 262 760 262 c 2
 899 262 l 2
 927 262 935 269 947 295 c 1
 991 400 1045 466 1129 466 c 0
 1175 466 1219 437 1219 392 c 0
 1219 360 1196 335 1164 335 c 0
 1142 335 1123 351 1123 373 c 0
 1123 411 1156 414 1156 428 c 0
 1156 435 1143 439 1133 439 c 0
 1091 439 1062 394 1029 301 c 0
 1020 273 1027 262 1050 262 c 2
 1189 262 l 2
 1217 262 1225 269 1237 295 c 1
 1281 400 1335 466 1419 466 c 0
 1465 466 1509 437 1509 392 c 0
 1509 360 1486 335 1454 335 c 0
 1432 335 1413 351 1413 373 c 0
 1413 411 1446 414 1446 428 c 0
 1446 435 1433 439 1423 439 c 0
 1381 439 1352 394 1319 301 c 0
 1310 273 1317 262 1340 262 c 2
 1386 262 l 2
 1395 262 1401 261 1397 247 c 0
 1393 234 1387 231 1375 231 c 2
 1333 231 l 2
 1309 231 1296 224 1288 195 c 2
 1277 155 l 2
 1220 -54 1122 -205 1015 -205 c 0
 970 -205 926 -174 926 -128 c 0
 926 -96 949 -68 981 -68 c 0
 1004 -68 1025 -82 1025 -108 c 0
 1025 -151 993 -151 993 -166 c 0
 993 -173 999 -177 1011 -177 c 0
 1090 -177 1135 -18 1187 150 c 2
 1202 198 l 2
 1207 215 1208 231 1176 231 c 2
 1043 231 l 2
 1019 231 1006 224 998 195 c 2
 987 155 l 2
 930 -54 832 -205 725 -205 c 0
 680 -205 636 -174 636 -128 c 0
 636 -96 659 -68 691 -68 c 0
 714 -68 735 -82 735 -108 c 0
 735 -151 703 -151 703 -166 c 0
 703 -173 709 -177 721 -177 c 0
 800 -177 845 -18 897 150 c 2
 912 198 l 2
 917 215 918 231 886 231 c 2
 753 231 l 2
 729 231 716 224 708 195 c 2
 697 155 l 2
 640 -54 542 -205 435 -205 c 0
 390 -205 346 -174 346 -128 c 0
 346 -96 369 -68 401 -68 c 0
 424 -68 445 -82 445 -108 c 0
 445 -151 413 -151 413 -166 c 0
 413 -173 419 -177 431 -177 c 0
 510 -177 555 -18 607 150 c 2
 622 198 l 2
 627 215 628 231 596 231 c 2
 463 231 l 2
 439 231 426 224 418 195 c 2
 407 155 l 2
 350 -54 252 -205 145 -205 c 0
 100 -205 56 -174 56 -128 c 0
 56 -96 79 -68 111 -68 c 0
 134 -68 155 -82 155 -108 c 0
 155 -151 123 -151 123 -166 c 0
 123 -173 129 -177 141 -177 c 0
 220 -177 265 -18 317 150 c 2
 332 198 l 2
 337 215 338 231 306 231 c 2
 264 231 l 2
 256 231 249 234 253 249 c 0
 257 263 264 262 277 262 c 2
 319 262 l 2
 347 262 355 269 367 295 c 1
 411 400 465 466 549 466 c 0xf257
142 235 m 0
 107 235 80 219 80 195 c 0xf4c3
 80 176 109 163 130 153 c 0
 166 136 198 114 198 74 c 0
 198 18 148 -8 90 -8 c 0
 41 -8 0 11 0 54 c 0
 0 81 18 102 42 102 c 0
 60 102 71 88 71 71 c 0
 71 52 51 48 51 35 c 0
 51 19 76 17 94 17 c 0
 129 17 156 35 156 61 c 0xf943
 156 89 135 101 101 116 c 0
 69 130 43 149 43 183 c 0
 43 233 93 259 145 259 c 0
 190 259 225 236 225 196 c 0
 225 170 207 157 190 157 c 0
 175 157 159 168 159 185 c 0
 159 203 177 207 177 218 c 0xf4c3
 177 230 163 235 142 235 c 0
EndSplineSet
EndChar

StartChar: uni02D0
Encoding: 720 720 91
Width: 594
VWidth: 0
Flags: W
HStem: -205 28<-48.426 7.37363> -15 34<476.401 542.173> 211.5 46.501<404.471 501.424> 231 31<81.1897 161.788 274.091 354.754> 439 27<345.891 403.189>
VStem: -116 67<-176.28 -112> 404 63<376 438.512> 543 29<21.1769 61.3218>
LayerCount: 2
Fore
SplineSet
518 19 m 4xef
 530 19 543 27 543 41 c 4
 543 52 533 62 516 68 c 4
 505 72 493 82 493 94 c 4
 493 106 499 120 524 120 c 4
 548 120 572 93 572 59 c 4
 572 9 535 -15 505 -15 c 7
 462 -15 440 35 400 35 c 4
 380 35 353 9 335 -1 c 4
 330 -4 326 -5 323 -5 c 4
 317 -5 314 -1 314 5 c 4
 314 10 317 17 323 22 c 6
 357 55 l 6
 396 89 455.5 148.5 497.5 191.5 c 4
 500.5 194.5 502.5 197.5 502.5 200.5 c 4
 502.5 211.5 447.5 211.5 434.5 211.5 c 4
 424.5 211.5 416.076 208.151 407.5 194.5 c 6
 391.479 169 l 6
 384.796 158.403 377.49 156.5 373.49 156.5 c 4
 369.49 156.5 366.49 159.5 366.49 165.5 c 4
 366.49 168.5 367.49 172.5 368.49 176.5 c 6
 390 235 l 6
 396.548 252.809 398 258.001 413 258.001 c 7
 431 258.001 455 251 505 251 c 7
 539 251 574 258.001 583 258.001 c 7
 592 258.001 594 255.001 594 251 c 4
 594 242 593 241 571 219 c 4
 546 194 496 148 476 128 c 6
 441 92 l 6
 434 85 430 79 430 74 c 4
 430 67 435 63 443 58 c 4
 457 50 474 36 491 27 c 4
 499 22 509 19 518 19 c 4xef
377 466 m 0
 423 466 467 437 467 392 c 0
 467 360 444 335 412 335 c 0
 390 335 371 351 371 373 c 0
 371 411 404 414 404 428 c 0
 404 435 391 439 381 439 c 0
 339 439 310 394 277 301 c 0
 268 273 275 262 298 262 c 2
 344 262 l 2
 353 262 359 261 355 247 c 0
 351 234 345 231 333 231 c 2
 291 231 l 2
 267 231 254 224 246 195 c 2
 235 155 l 2
 178 -54 80 -205 -27 -205 c 0
 -72 -205 -116 -174 -116 -128 c 0
 -116 -96 -93 -68 -61 -68 c 0
 -38 -68 -17 -82 -17 -108 c 0
 -17 -151 -49 -151 -49 -166 c 0
 -49 -173 -43 -177 -31 -177 c 0
 48 -177 94 -18 145 150 c 2
 160 198 l 2
 165 215 166 231 134 231 c 2
 92 231 l 2
 84 231 77 234 81 249 c 0
 85 263 92 262 105 262 c 2
 147 262 l 2xdf
 175 262 183 269 195 295 c 0
 239 400 293 466 377 466 c 0
EndSplineSet
EndChar

StartChar: uni02D1
Encoding: 721 721 92
Width: 884
VWidth: 0
Flags: HW
HStem: -205 28<-48.426 7.33694 241.574 297.337> -15.001 34<766.401 832.173> 203.999 54<690.008 784.355> 231 31<81.1897 161.788 274.091 451.788 564.091 644.754> 439 27<345.891 403.189 635.891 693.189>
VStem: -116 67<-176.28 -112> 174 67<-176.28 -112> 404 63<376 438.512> 694 63<376 438.512> 833 29<21.1759 61.3208>
LayerCount: 2
Fore
SplineSet
808 18.999 m 0xef
 820 18.999 833 26.999 833 40.999 c 0
 833 51.999 823 61.999 806 67.999 c 0
 795 71.999 783 81.999 783 93.999 c 0
 783 105.999 789 119.999 814 119.999 c 0
 838 119.999 862 92.999 862 58.999 c 0
 862 8.99902 825 -15.001 795 -15.001 c 3
 752 -15.001 730 34.999 690 34.999 c 0
 670 34.999 643 8.99902 625 -1.00098 c 0
 620 -4.00098 616 -5.00098 613 -5.00098 c 0
 607 -5.00098 604 -1.00098 604 4.99902 c 0
 604 9.99902 607 16.999 613 21.999 c 2
 647 54.999 l 2
 686 88.999 745.5 148.499 787.5 191.499 c 0
 790.5 194.499 792.5 197.499 792.5 200.499 c 0
 792.5 211.499 737.5 211.499 724.5 211.499 c 0
 714.5 211.499 706.076 208.15 697.5 194.499 c 2
 681.479 168.999 l 2
 674.796 158.402 667.49 156.499 663.49 156.499 c 0
 659.49 156.499 656.49 159.499 656.49 165.499 c 0
 656.49 168.499 657.49 172.499 658.49 176.499 c 2
 680 234.999 l 2
 686.548 252.808 688 258 703 258 c 3
 721 258 745 250.999 795 250.999 c 3
 829 250.999 864 258 873 258 c 3
 882 258 884 255 884 250.999 c 0
 884 241.999 883 240.999 861 218.999 c 0
 836 193.999 786 147.999 766 127.999 c 2
 731 91.999 l 2
 724 84.999 720 78.999 720 73.999 c 0
 720 66.999 725 62.999 733 57.999 c 0
 747 49.999 764 35.999 781 26.999 c 0
 789 21.999 799 18.999 808 18.999 c 0xef
377 466 m 0
 423 466 467 437 467 392 c 0
 467 360 444 335 412 335 c 0
 390 335 371 351 371 373 c 0
 371 411 404 414 404 428 c 0
 404 435 391 439 381 439 c 0
 339 439 310 394 277 301 c 0
 268 273 275 262 298 262 c 2
 437 262 l 2
 465 262 473 269 485 295 c 1
 529 400 583 466 667 466 c 0
 713 466 757 437 757 392 c 0
 757 360 734 335 702 335 c 0
 680 335 661 351 661 373 c 0
 661 411 694 414 694 428 c 0
 694 435 681 439 671 439 c 0
 629 439 600 394 567 301 c 0
 558 273 565 262 588 262 c 2
 634 262 l 2
 643 262 649 261 645 247 c 0
 641 234 635 231 623 231 c 2
 581 231 l 2
 557 231 544 224 536 195 c 2
 525 155 l 2
 468 -54 370 -205 263 -205 c 0
 218 -205 174 -174 174 -128 c 0
 174 -96 197 -68 229 -68 c 0
 252 -68 273 -82 273 -108 c 0
 273 -151 241 -151 241 -166 c 0
 241 -173 247 -177 259 -177 c 0
 338 -177 383 -18 435 150 c 2
 450 198 l 2
 455 215 456 231 424 231 c 2
 291 231 l 2
 267 231 254 224 246 195 c 2
 235 155 l 2
 178 -54 80 -205 -27 -205 c 0
 -72 -205 -116 -174 -116 -128 c 0
 -116 -96 -93 -68 -61 -68 c 0
 -38 -68 -17 -82 -17 -108 c 0
 -17 -151 -49 -151 -49 -166 c 0
 -49 -173 -43 -177 -31 -177 c 0
 48 -177 93 -18 145 150 c 2
 160 198 l 2
 165 215 166 231 134 231 c 2
 92 231 l 2
 84 231 77 234 81 249 c 0
 85 263 92 262 105 262 c 2
 147 262 l 2xdfc0
 175 262 183 269 195 295 c 1
 239 400 293 466 377 466 c 0
EndSplineSet
EndChar

StartChar: uni02D2
Encoding: 722 722 93
Width: 1174
VWidth: 0
Flags: HW
HStem: -205 28<-48.426 7.37363> -15.001 34<476.401 542.173> 203.999 54<400.008 494.355> 231 31<81.1897 161.788 274.091 354.754> 439 27<345.891 403.189>
VStem: -116 67<-176.28 -112> 404 63<376 438.512> 543 29<21.1759 61.3208>
LayerCount: 2
Fore
SplineSet
1098 18.999 m 0xef
 1110 18.999 1123 26.999 1123 40.999 c 0
 1123 51.999 1113 61.999 1096 67.999 c 0
 1085 71.999 1073 81.999 1073 93.999 c 0
 1073 105.999 1079 119.999 1104 119.999 c 0
 1128 119.999 1152 92.999 1152 58.999 c 0
 1152 8.99902 1115 -15.001 1085 -15.001 c 3
 1042 -15.001 1020 34.999 980 34.999 c 0
 960 34.999 933 8.99902 915 -1.00098 c 0
 910 -4.00098 906 -5.00098 903 -5.00098 c 0
 897 -5.00098 894 -1.00098 894 4.99902 c 0
 894 9.99902 897 16.999 903 21.999 c 2
 937 54.999 l 2
 976 88.999 1035.5 148.499 1077.5 191.499 c 0
 1080.5 194.499 1082.5 197.499 1082.5 200.499 c 0
 1082.5 211.499 1027.5 211.499 1014.5 211.499 c 0
 1004.5 211.499 996.076 208.15 987.5 194.499 c 2
 971.479 168.999 l 2
 964.796 158.402 957.49 156.499 953.49 156.499 c 0
 949.49 156.499 946.49 159.499 946.49 165.499 c 0
 946.49 168.499 947.49 172.499 948.49 176.499 c 2
 970 234.999 l 2
 976.548 252.808 978 258 993 258 c 3
 1011 258 1035 250.999 1085 250.999 c 3
 1119 250.999 1154 258 1163 258 c 3
 1172 258 1174 255 1174 250.999 c 0
 1174 241.999 1173 240.999 1151 218.999 c 0
 1126 193.999 1076 147.999 1056 127.999 c 2
 1021 91.999 l 2
 1014 84.999 1010 78.999 1010 73.999 c 0
 1010 66.999 1015 62.999 1023 57.999 c 0
 1037 49.999 1054 35.999 1071 26.999 c 0
 1079 21.999 1089 18.999 1098 18.999 c 0xef
377 466 m 0xfb80
 423 466 467 437 467 392 c 0
 467 360 444 335 412 335 c 0
 390 335 371 351 371 373 c 0
 371 411 404 414 404 428 c 0xfd80
 404 435 391 439 381 439 c 0
 339 439 310 394 277 301 c 0
 268 273 275 262 298 262 c 2
 437 262 l 2
 465 262 473 269 485 295 c 1
 529 400 583 466 667 466 c 0
 713 466 757 437 757 392 c 0
 757 360 734 335 702 335 c 0
 680 335 661 351 661 373 c 0
 661 411 694 414 694 428 c 0
 694 435 681 439 671 439 c 0
 629 439 600 394 567 301 c 0
 558 273 565 262 588 262 c 2
 727 262 l 2
 755 262 763 269 775 295 c 1
 819 400 873 466 957 466 c 0
 1003 466 1047 437 1047 392 c 0
 1047 360 1024 335 992 335 c 0
 970 335 951 351 951 373 c 0
 951 411 984 414 984 428 c 0
 984 435 971 439 961 439 c 0
 919 439 890 394 857 301 c 0
 848 273 855 262 878 262 c 2
 924 262 l 2
 933 262 939 261 935 247 c 0
 931 234 925 231 913 231 c 2
 871 231 l 2
 847 231 834 224 826 195 c 2
 815 155 l 2
 758 -54 660 -205 553 -205 c 0
 508 -205 464 -174 464 -128 c 0
 464 -96 487 -68 519 -68 c 0
 542 -68 563 -82 563 -108 c 0
 563 -151 531 -151 531 -166 c 0
 531 -173 537 -177 549 -177 c 0
 628 -177 673 -18 725 150 c 2
 740 198 l 2
 745 215 746 231 714 231 c 2
 581 231 l 2
 557 231 544 224 536 195 c 2
 525 155 l 2
 468 -54 370 -205 263 -205 c 0
 218 -205 174 -174 174 -128 c 0
 174 -96 197 -68 229 -68 c 0
 252 -68 273 -82 273 -108 c 0
 273 -151 241 -151 241 -166 c 0
 241 -173 247 -177 259 -177 c 0
 338 -177 383 -18 435 150 c 2
 450 198 l 2
 455 215 456 231 424 231 c 2
 291 231 l 2
 267 231 254 224 246 195 c 2
 235 155 l 2
 178 -54 80 -205 -27 -205 c 0
 -72 -205 -116 -174 -116 -128 c 0
 -116 -96 -93 -68 -61 -68 c 0
 -38 -68 -17 -82 -17 -108 c 0
 -17 -151 -49 -151 -49 -166 c 0
 -49 -173 -43 -177 -31 -177 c 0
 48 -177 93 -18 145 150 c 2
 160 198 l 2
 165 215 166 231 134 231 c 2
 92 231 l 2
 84 231 77 234 81 249 c 0
 85 263 92 262 105 262 c 2
 147 262 l 2
 175 262 183 269 195 295 c 1
 239 400 293 466 377 466 c 0xfb80
EndSplineSet
EndChar

StartChar: uni02D3
Encoding: 723 723 94
Width: 1464
VWidth: 0
Flags: HW
HStem: -205 28<-48.426 7.37363> -15.001 34<476.401 542.173> 203.999 54<400.008 494.355> 231 31<81.1897 161.788 274.091 354.754> 439 27<345.891 403.189>
VStem: -116 67<-176.28 -112> 404 63<376 438.512> 543 29<21.1759 61.3208>
LayerCount: 2
Fore
SplineSet
1388 19 m 0xef
 1400 19 1414 27 1414 41 c 0
 1414 52 1404 62 1386 68 c 0
 1376 72 1364 82 1364 94 c 0
 1364 106 1370 120 1394 120 c 0
 1418 120 1442 93 1442 59 c 0
 1442 9 1406 -15 1376 -15 c 3
 1332 -15 1310 35 1270 35 c 0
 1250 35 1224 9 1206 -1 c 0
 1200 -4 1196 -5 1194 -5 c 0
 1188 -5 1184 -1 1184 5 c 0
 1184 10 1188 17 1194 22 c 2
 1228 55 l 2
 1266 89 1326 148 1368 192 c 0
 1371 194 1373 198 1373 200 c 0
 1373 212 1318 212 1305 212 c 0
 1295 212 1287 208 1278 194 c 2
 1262 169 l 2
 1255 158 1248 156 1244 156 c 0
 1240 156 1237 160 1237 166 c 0
 1237 168 1238 172 1239 176 c 2
 1260 235 l 2
 1267 253 1268 258 1284 258 c 3
 1302 258 1326 251 1376 251 c 3
 1410 251 1444 258 1454 258 c 3
 1462 258 1464 255 1464 251 c 0
 1464 242 1464 241 1442 219 c 0
 1416 194 1366 148 1346 128 c 2
 1312 92 l 2
 1304 85 1300 79 1300 74 c 0
 1300 67 1306 63 1314 58 c 0
 1328 50 1344 36 1362 27 c 0
 1370 22 1380 19 1388 19 c 0xef
377 466 m 0xfae0
 423 466 467 437 467 392 c 0
 467 360 444 335 412 335 c 0
 390 335 371 351 371 373 c 0
 371 411 404 414 404 428 c 0
 404 435 391 439 381 439 c 0
 339 439 310 394 277 301 c 0
 268 273 275 262 298 262 c 2
 437 262 l 2
 465 262 473 269 485 295 c 1
 529 400 583 466 667 466 c 0
 713 466 757 437 757 392 c 0
 757 360 734 335 702 335 c 0
 680 335 661 351 661 373 c 0
 661 411 694 414 694 428 c 0xfd60
 694 435 681 439 671 439 c 0
 629 439 600 394 567 301 c 0
 558 273 565 262 588 262 c 2
 727 262 l 2
 755 262 763 269 775 295 c 1
 819 400 873 466 957 466 c 0
 1003 466 1047 437 1047 392 c 0
 1047 360 1024 335 992 335 c 0
 970 335 951 351 951 373 c 0
 951 411 984 414 984 428 c 0
 984 435 971 439 961 439 c 0
 919 439 890 394 857 301 c 0
 848 273 855 262 878 262 c 2
 1017 262 l 2
 1045 262 1053 269 1065 295 c 1
 1109 400 1163 466 1247 466 c 0
 1293 466 1337 437 1337 392 c 0
 1337 360 1314 335 1282 335 c 0
 1260 335 1241 351 1241 373 c 0
 1241 411 1274 414 1274 428 c 0
 1274 435 1261 439 1251 439 c 0
 1209 439 1180 394 1147 301 c 0
 1138 273 1145 262 1168 262 c 2
 1214 262 l 2
 1223 262 1229 261 1225 247 c 0
 1221 234 1215 231 1203 231 c 2
 1161 231 l 2
 1137 231 1124 224 1116 195 c 2
 1105 155 l 2
 1048 -54 950 -205 843 -205 c 0
 798 -205 754 -174 754 -128 c 0
 754 -96 777 -68 809 -68 c 0
 832 -68 853 -82 853 -108 c 0
 853 -151 821 -151 821 -166 c 0
 821 -173 827 -177 839 -177 c 0
 918 -177 963 -18 1015 150 c 2
 1030 198 l 2
 1035 215 1036 231 1004 231 c 2
 871 231 l 2
 847 231 834 224 826 195 c 2
 815 155 l 2
 758 -54 660 -205 553 -205 c 0
 508 -205 464 -174 464 -128 c 0
 464 -96 487 -68 519 -68 c 0
 542 -68 563 -82 563 -108 c 0
 563 -151 531 -151 531 -166 c 0
 531 -173 537 -177 549 -177 c 0
 628 -177 673 -18 725 150 c 2
 740 198 l 2
 745 215 746 231 714 231 c 2
 581 231 l 2
 557 231 544 224 536 195 c 2
 525 155 l 2
 468 -54 370 -205 263 -205 c 0
 218 -205 174 -174 174 -128 c 0
 174 -96 197 -68 229 -68 c 0
 252 -68 273 -82 273 -108 c 0
 273 -151 241 -151 241 -166 c 0
 241 -173 247 -177 259 -177 c 0
 338 -177 383 -18 435 150 c 2
 450 198 l 2
 455 215 456 231 424 231 c 2
 291 231 l 2
 267 231 254 224 246 195 c 2
 235 155 l 2
 178 -54 80 -205 -27 -205 c 0
 -72 -205 -116 -174 -116 -128 c 0
 -116 -96 -93 -68 -61 -68 c 0
 -38 -68 -17 -82 -17 -108 c 0
 -17 -151 -49 -151 -49 -166 c 0
 -49 -173 -43 -177 -31 -177 c 0
 48 -177 93 -18 145 150 c 2
 160 198 l 2
 165 215 166 231 134 231 c 2
 92 231 l 2
 84 231 77 234 81 249 c 0
 85 263 92 262 105 262 c 2
 147 262 l 2
 175 262 183 269 195 295 c 1
 239 400 293 466 377 466 c 0xfae0
EndSplineSet
EndChar

StartChar: breve
Encoding: 728 728 95
Width: 766
VWidth: 573
Flags: HW
HStem: -205 28<-48.426 7.37363> -15.001 34<476.401 542.173> 203.999 54<400.008 494.355> 231 31<81.1897 161.788 274.091 354.754> 439 27<345.891 403.189>
VStem: -116 67<-176.28 -112> 404 63<376 438.512> 543 29<21.1759 61.3208>
LayerCount: 2
Fore
SplineSet
690 19 m 0xef
 702 19 714 27 714 41 c 0
 714 52 704 62 688 68 c 0
 676 72 664 82 664 94 c 0
 664 106 670 120 696 120 c 0
 720 120 744 93 744 59 c 0
 744 9 706 -15 676 -15 c 3
 634 -15 612 35 572 35 c 0
 552 35 524 9 506 -1 c 0
 502 -4 498 -5 494 -5 c 0
 488 -5 486 -1 486 5 c 0
 486 10 488 17 494 22 c 2
 528 55 l 2
 568 89 627 148 669 192 c 0
 672 194 674 198 674 200 c 0
 674 212 619 212 606 212 c 0
 596 212 588 208 579 194 c 2
 563 169 l 2
 556 158 549 156 545 156 c 0
 541 156 538 160 538 166 c 0
 538 168 539 172 540 176 c 2
 562 235 l 2
 568 253 570 258 584 258 c 3
 602 258 626 251 676 251 c 3
 710 251 746 258 754 258 c 3
 764 258 766 255 766 251 c 0
 766 242 764 241 742 219 c 0
 718 194 668 148 648 128 c 2
 612 92 l 2
 606 85 602 79 602 74 c 0
 602 67 606 63 614 58 c 0
 628 50 646 36 662 27 c 0
 670 22 680 19 690 19 c 0xef
142 235 m 0xf4c0
 107 235 80 219 80 195 c 0xf4c0
 80 176 109 163 130 153 c 0
 166 136 198 114 198 74 c 0
 198 18 148 -8 90 -8 c 0
 41 -8 0 11 0 54 c 0
 0 81 18 102 42 102 c 0
 60 102 71 88 71 71 c 0
 71 52 51 48 51 35 c 0
 51 19 76 17 94 17 c 0
 129 17 156 35 156 61 c 0xf940
 156 89 135 101 101 116 c 0
 69 130 43 149 43 183 c 0
 43 233 93 259 145 259 c 0
 190 259 225 236 225 196 c 0
 225 170 207 157 190 157 c 0
 175 157 159 168 159 185 c 0
 159 203 177 207 177 218 c 0
 177 230 163 235 142 235 c 0xf4c0
549 466 m 0
 595 466 639 437 639 392 c 0
 639 360 616 335 584 335 c 0
 562 335 543 351 543 373 c 0
 543 411 576 414 576 428 c 0
 576 435 563 439 553 439 c 0
 511 439 482 394 449 301 c 0
 440 273 447 262 470 262 c 2
 516 262 l 2
 525 262 531 261 527 247 c 0
 523 234 517 231 505 231 c 2
 463 231 l 2
 439 231 426 224 418 195 c 2
 407 155 l 2
 350 -54 252 -205 145 -205 c 0
 100 -205 56 -174 56 -128 c 0
 56 -96 79 -68 111 -68 c 0
 134 -68 155 -82 155 -108 c 0
 155 -151 123 -151 123 -166 c 0xf240
 123 -173 129 -177 141 -177 c 0
 220 -177 266 -18 317 150 c 2
 332 198 l 2
 337 215 338 231 306 231 c 2
 264 231 l 2
 256 231 249 234 253 249 c 0
 257 263 264 262 277 262 c 2
 319 262 l 2
 347 262 355 269 367 295 c 0
 411 400 465 466 549 466 c 0
EndSplineSet
EndChar

StartChar: dotaccent
Encoding: 729 729 96
Width: 1056
VWidth: 573
Flags: HW
HStem: -205 28<-48.426 7.37363> -15.001 34<476.401 542.173> 203.999 54<400.008 494.355> 231 31<81.1897 161.788 274.091 354.754> 439 27<345.891 403.189>
VStem: -116 67<-176.28 -112> 404 63<376 438.512> 543 29<21.1759 61.3208>
LayerCount: 2
Fore
SplineSet
980 19 m 0xef
 992 19 1005 27 1005 41 c 0
 1005 52 995 62 978 68 c 0
 967 72 955 82 955 94 c 0
 955 106 961 120 986 120 c 0
 1010 120 1034 93 1034 59 c 0
 1034 9 997 -15 967 -15 c 3
 924 -15 902 35 862 35 c 0
 842 35 815 9 797 -1 c 0
 792 -4 788 -5 785 -5 c 0
 779 -5 776 -1 776 5 c 0
 776 10 779 17 785 22 c 2
 819 55 l 2
 858 89 917.5 148.5 959.5 191.5 c 0
 962.5 194.5 964.5 197.5 964.5 200.5 c 0
 964.5 211.5 909.5 211.5 896.5 211.5 c 0
 886.5 211.5 878.076 208.151 869.5 194.5 c 2
 853.479 169 l 2
 846.796 158.403 839.49 156.5 835.49 156.5 c 0
 831.49 156.5 828.49 159.5 828.49 165.5 c 0
 828.49 168.5 829.49 172.5 830.49 176.5 c 2
 852 235 l 2
 858.548 252.809 860 258.001 875 258.001 c 3
 893 258.001 917 251 967 251 c 3
 1001 251 1036 258.001 1045 258.001 c 3
 1054 258.001 1056 255.001 1056 251 c 0
 1056 242 1055 241 1033 219 c 0
 1008 194 958 148 938 128 c 2
 903 92 l 2
 896 85 892 79 892 74 c 0
 892 67 897 63 905 58 c 0
 919 50 936 36 953 27 c 0
 961 22 971 19 980 19 c 0xef
549 466 m 0xf270
 595 466 639 437 639 392 c 0
 639 360 616 335 584 335 c 0
 562 335 543 351 543 373 c 0
 543 411 576 414 576 428 c 0
 576 435 563 439 553 439 c 0
 511 439 482 394 449 301 c 0
 440 273 447 262 470 262 c 2
 609 262 l 2
 637 262 645 269 657 295 c 0
 701 400 755 466 839 466 c 0
 885 466 929 437 929 392 c 0
 929 360 906 335 874 335 c 0
 852 335 833 351 833 373 c 0
 833 411 866 414 866 428 c 0
 866 435 853 439 843 439 c 0
 801 439 772 394 739 301 c 0
 730 273 737 262 760 262 c 2
 806 262 l 2
 815 262 821 261 817 247 c 0
 813 234 807 231 795 231 c 2
 753 231 l 2
 729 231 716 224 708 195 c 2
 697 155 l 2
 640 -54 542 -205 435 -205 c 0
 390 -205 346 -174 346 -128 c 0
 346 -96 369 -68 401 -68 c 0
 424 -68 445 -82 445 -108 c 0
 445 -151 413 -151 413 -166 c 0
 413 -173 419 -177 431 -177 c 0
 510 -177 555 -18 607 150 c 2
 622 198 l 2
 627 215 628 231 596 231 c 2
 463 231 l 2
 439 231 426 224 418 195 c 2
 407 155 l 2
 350 -54 252 -205 145 -205 c 0
 100 -205 56 -174 56 -128 c 0
 56 -96 79 -68 111 -68 c 0
 134 -68 155 -82 155 -108 c 0
 155 -151 123 -151 123 -166 c 0
 123 -173 129 -177 141 -177 c 0
 220 -177 265 -18 317 150 c 2
 332 198 l 2
 337 215 338 231 306 231 c 2
 264 231 l 2
 256 231 249 234 253 249 c 0
 257 263 264 262 277 262 c 2
 319 262 l 2
 347 262 355 269 367 295 c 1
 411 400 465 466 549 466 c 0xf270
142 235 m 0
 107 235 80 219 80 195 c 0xf4f0
 80 176 109 163 130 153 c 0
 166 136 198 114 198 74 c 0
 198 18 148 -8 90 -8 c 0
 41 -8 0 11 0 54 c 0
 0 81 18 102 42 102 c 0
 60 102 71 88 71 71 c 0
 71 52 51 48 51 35 c 0
 51 19 76 17 94 17 c 0
 129 17 156 35 156 61 c 0xf970
 156 89 135 101 101 116 c 0
 69 130 43 149 43 183 c 0
 43 233 93 259 145 259 c 0
 190 259 225 236 225 196 c 0
 225 170 207 157 190 157 c 0
 175 157 159 168 159 185 c 0
 159 203 177 207 177 218 c 0xf4f0
 177 230 163 235 142 235 c 0
EndSplineSet
EndChar

StartChar: ring
Encoding: 730 730 97
Width: 1346
VWidth: 573
Flags: HW
HStem: -205 28<-48.426 7.37363> -15.001 34<476.401 542.173> 203.999 54<400.008 494.355> 231 31<81.1897 161.788 274.091 354.754> 439 27<345.891 403.189>
VStem: -116 67<-176.28 -112> 404 63<376 438.512> 543 29<21.1759 61.3208>
LayerCount: 2
Fore
SplineSet
1270 19 m 0xef
 1282 19 1295 27 1295 41 c 0
 1295 52 1285 62 1268 68 c 0
 1257 72 1245 82 1245 94 c 0
 1245 106 1251 120 1276 120 c 0
 1300 120 1324 93 1324 59 c 0
 1324 9 1287 -15 1257 -15 c 3
 1214 -15 1192 35 1152 35 c 0
 1132 35 1105 9 1087 -1 c 0
 1082 -4 1078 -5 1075 -5 c 0
 1069 -5 1066 -1 1066 5 c 0
 1066 10 1069 17 1075 22 c 2
 1109 55 l 2
 1148 89 1207.5 148.5 1249.5 191.5 c 0
 1252.5 194.5 1254.5 197.5 1254.5 200.5 c 0
 1254.5 211.5 1199.5 211.5 1186.5 211.5 c 0
 1176.5 211.5 1168.08 208.151 1159.5 194.5 c 2
 1143.48 169 l 2
 1136.8 158.403 1129.49 156.5 1125.49 156.5 c 0
 1121.49 156.5 1118.49 159.5 1118.49 165.5 c 0
 1118.49 168.5 1119.49 172.5 1120.49 176.5 c 2
 1142 235 l 2
 1148.55 252.809 1150 258.001 1165 258.001 c 3
 1183 258.001 1207 251 1257 251 c 3
 1291 251 1326 258.001 1335 258.001 c 3
 1344 258.001 1346 255.001 1346 251 c 0
 1346 242 1345 241 1323 219 c 0
 1298 194 1248 148 1228 128 c 2
 1193 92 l 2
 1186 85 1182 79 1182 74 c 0
 1182 67 1187 63 1195 58 c 0
 1209 50 1226 36 1243 27 c 0
 1251 22 1261 19 1270 19 c 0xef
549 466 m 0xf25c
 595 466 639 437 639 392 c 0
 639 360 616 335 584 335 c 0
 562 335 543 351 543 373 c 0
 543 411 576 414 576 428 c 0xf26c
 576 435 563 439 553 439 c 0
 511 439 482 394 449 301 c 0
 440 273 447 262 470 262 c 2
 609 262 l 2
 637 262 645 269 657 295 c 1
 701 400 755 466 839 466 c 0
 885 466 929 437 929 392 c 0
 929 360 906 335 874 335 c 0
 852 335 833 351 833 373 c 0
 833 411 866 414 866 428 c 0
 866 435 853 439 843 439 c 0
 801 439 772 394 739 301 c 0
 730 273 737 262 760 262 c 2
 899 262 l 2
 927 262 935 269 947 295 c 1
 991 400 1045 466 1129 466 c 0
 1175 466 1219 437 1219 392 c 0
 1219 360 1196 335 1164 335 c 0
 1142 335 1123 351 1123 373 c 0
 1123 411 1156 414 1156 428 c 0
 1156 435 1143 439 1133 439 c 0
 1091 439 1062 394 1029 301 c 0
 1020 273 1027 262 1050 262 c 2
 1096 262 l 2
 1105 262 1111 261 1107 247 c 0
 1103 234 1097 231 1085 231 c 2
 1043 231 l 2
 1019 231 1006 224 998 195 c 2
 987 155 l 2
 930 -54 832 -205 725 -205 c 0
 680 -205 636 -174 636 -128 c 0
 636 -96 659 -68 691 -68 c 0
 714 -68 735 -82 735 -108 c 0
 735 -151 703 -151 703 -166 c 0
 703 -173 709 -177 721 -177 c 0
 800 -177 845 -18 897 150 c 2
 912 198 l 2
 917 215 918 231 886 231 c 2
 753 231 l 2
 729 231 716 224 708 195 c 2
 697 155 l 2
 640 -54 542 -205 435 -205 c 0
 390 -205 346 -174 346 -128 c 0
 346 -96 369 -68 401 -68 c 0
 424 -68 445 -82 445 -108 c 0
 445 -151 413 -151 413 -166 c 0
 413 -173 419 -177 431 -177 c 0
 510 -177 555 -18 607 150 c 2
 622 198 l 2
 627 215 628 231 596 231 c 2
 463 231 l 2
 439 231 426 224 418 195 c 2
 407 155 l 2
 350 -54 252 -205 145 -205 c 0
 100 -205 56 -174 56 -128 c 0
 56 -96 79 -68 111 -68 c 0
 134 -68 155 -82 155 -108 c 0
 155 -151 123 -151 123 -166 c 0
 123 -173 129 -177 141 -177 c 0
 220 -177 265 -18 317 150 c 2
 332 198 l 2
 337 215 338 231 306 231 c 2
 264 231 l 2
 256 231 249 234 253 249 c 0
 257 263 264 262 277 262 c 2
 319 262 l 2
 347 262 355 269 367 295 c 1
 411 400 465 466 549 466 c 0xf25c
142 235 m 0
 107 235 80 219 80 195 c 0xf4cc
 80 176 109 163 130 153 c 0
 166 136 198 114 198 74 c 0
 198 18 148 -8 90 -8 c 0
 41 -8 0 11 0 54 c 0
 0 81 18 102 42 102 c 0
 60 102 71 88 71 71 c 0
 71 52 51 48 51 35 c 0
 51 19 76 17 94 17 c 0
 129 17 156 35 156 61 c 0xf94c
 156 89 135 101 101 116 c 0
 69 130 43 149 43 183 c 0
 43 233 93 259 145 259 c 0
 190 259 225 236 225 196 c 0
 225 170 207 157 190 157 c 0
 175 157 159 168 159 185 c 0
 159 203 177 207 177 218 c 0xf4cc
 177 230 163 235 142 235 c 0
EndSplineSet
EndChar

StartChar: ogonek
Encoding: 731 731 98
Width: 1636
VWidth: 573
Flags: HW
HStem: -205 28<-48.426 7.37363> -15.001 34<476.401 542.173> 203.999 54<400.008 494.355> 231 31<81.1897 161.788 274.091 354.754> 439 27<345.891 403.189>
VStem: -116 67<-176.28 -112> 404 63<376 438.512> 543 29<21.1759 61.3208>
LayerCount: 2
Fore
SplineSet
1560 19 m 0xef
 1572 19 1585 27 1585 41 c 0
 1585 52 1575 62 1558 68 c 0
 1547 72 1535 82 1535 94 c 0
 1535 106 1541 120 1566 120 c 0
 1590 120 1614 93 1614 59 c 0
 1614 9 1577 -15 1547 -15 c 3
 1504 -15 1482 35 1442 35 c 0
 1422 35 1395 9 1377 -1 c 0
 1372 -4 1368 -5 1365 -5 c 0
 1359 -5 1356 -1 1356 5 c 0
 1356 10 1359 17 1365 22 c 2
 1399 55 l 2
 1438 89 1497.5 148.5 1539.5 191.5 c 0
 1542.5 194.5 1544.5 197.5 1544.5 200.5 c 0
 1544.5 211.5 1489.5 211.5 1476.5 211.5 c 0
 1466.5 211.5 1458.08 208.151 1449.5 194.5 c 2
 1433.48 169 l 2
 1426.8 158.403 1419.49 156.5 1415.49 156.5 c 0
 1411.49 156.5 1408.49 159.5 1408.49 165.5 c 0
 1408.49 168.5 1409.49 172.5 1410.49 176.5 c 2
 1432 235 l 2
 1438.55 252.809 1440 258.001 1455 258.001 c 3
 1473 258.001 1497 251 1547 251 c 3
 1581 251 1616 258.001 1625 258.001 c 3
 1634 258.001 1636 255.001 1636 251 c 0
 1636 242 1635 241 1613 219 c 0
 1588 194 1538 148 1518 128 c 2
 1483 92 l 2
 1476 85 1472 79 1472 74 c 0
 1472 67 1477 63 1485 58 c 0
 1499 50 1516 36 1533 27 c 0
 1541 22 1551 19 1560 19 c 0xef
549 466 m 0xf257
 595 466 639 437 639 392 c 0
 639 360 616 335 584 335 c 0
 562 335 543 351 543 373 c 0
 543 411 576 414 576 428 c 0
 576 435 563 439 553 439 c 0
 511 439 482 394 449 301 c 0
 440 273 447 262 470 262 c 2
 609 262 l 2
 637 262 645 269 657 295 c 1
 701 400 755 466 839 466 c 0
 885 466 929 437 929 392 c 0
 929 360 906 335 874 335 c 0
 852 335 833 351 833 373 c 0
 833 411 866 414 866 428 c 0xf26b
 866 435 853 439 843 439 c 0
 801 439 772 394 739 301 c 0
 730 273 737 262 760 262 c 2
 899 262 l 2
 927 262 935 269 947 295 c 1
 991 400 1045 466 1129 466 c 0
 1175 466 1219 437 1219 392 c 0
 1219 360 1196 335 1164 335 c 0
 1142 335 1123 351 1123 373 c 0
 1123 411 1156 414 1156 428 c 0
 1156 435 1143 439 1133 439 c 0
 1091 439 1062 394 1029 301 c 0
 1020 273 1027 262 1050 262 c 2
 1189 262 l 2
 1217 262 1225 269 1237 295 c 1
 1281 400 1335 466 1419 466 c 0
 1465 466 1509 437 1509 392 c 0
 1509 360 1486 335 1454 335 c 0
 1432 335 1413 351 1413 373 c 0
 1413 411 1446 414 1446 428 c 0
 1446 435 1433 439 1423 439 c 0
 1381 439 1352 394 1319 301 c 0
 1310 273 1317 262 1340 262 c 2
 1386 262 l 2
 1395 262 1401 261 1397 247 c 0
 1393 234 1387 231 1375 231 c 2
 1333 231 l 2
 1309 231 1296 224 1288 195 c 2
 1277 155 l 2
 1220 -54 1122 -205 1015 -205 c 0
 970 -205 926 -174 926 -128 c 0
 926 -96 949 -68 981 -68 c 0
 1004 -68 1025 -82 1025 -108 c 0
 1025 -151 993 -151 993 -166 c 0
 993 -173 999 -177 1011 -177 c 0
 1090 -177 1135 -18 1187 150 c 2
 1202 198 l 2
 1207 215 1208 231 1176 231 c 2
 1043 231 l 2
 1019 231 1006 224 998 195 c 2
 987 155 l 2
 930 -54 832 -205 725 -205 c 0
 680 -205 636 -174 636 -128 c 0
 636 -96 659 -68 691 -68 c 0
 714 -68 735 -82 735 -108 c 0
 735 -151 703 -151 703 -166 c 0
 703 -173 709 -177 721 -177 c 0
 800 -177 845 -18 897 150 c 2
 912 198 l 2
 917 215 918 231 886 231 c 2
 753 231 l 2
 729 231 716 224 708 195 c 2
 697 155 l 2
 640 -54 542 -205 435 -205 c 0
 390 -205 346 -174 346 -128 c 0
 346 -96 369 -68 401 -68 c 0
 424 -68 445 -82 445 -108 c 0
 445 -151 413 -151 413 -166 c 0
 413 -173 419 -177 431 -177 c 0
 510 -177 555 -18 607 150 c 2
 622 198 l 2
 627 215 628 231 596 231 c 2
 463 231 l 2
 439 231 426 224 418 195 c 2
 407 155 l 2
 350 -54 252 -205 145 -205 c 0
 100 -205 56 -174 56 -128 c 0
 56 -96 79 -68 111 -68 c 0
 134 -68 155 -82 155 -108 c 0
 155 -151 123 -151 123 -166 c 0
 123 -173 129 -177 141 -177 c 0
 220 -177 265 -18 317 150 c 2
 332 198 l 2
 337 215 338 231 306 231 c 2
 264 231 l 2
 256 231 249 234 253 249 c 0
 257 263 264 262 277 262 c 2
 319 262 l 2
 347 262 355 269 367 295 c 1
 411 400 465 466 549 466 c 0xf257
142 235 m 0
 107 235 80 219 80 195 c 0xf4c3
 80 176 109 163 130 153 c 0
 166 136 198 114 198 74 c 0
 198 18 148 -8 90 -8 c 0
 41 -8 0 11 0 54 c 0
 0 81 18 102 42 102 c 0
 60 102 71 88 71 71 c 0
 71 52 51 48 51 35 c 0
 51 19 76 17 94 17 c 0
 129 17 156 35 156 61 c 0xf943
 156 89 135 101 101 116 c 0
 69 130 43 149 43 183 c 0
 43 233 93 259 145 259 c 0
 190 259 225 236 225 196 c 0
 225 170 207 157 190 157 c 0
 175 157 159 168 159 185 c 0
 159 203 177 207 177 218 c 0xf4c3
 177 230 163 235 142 235 c 0
EndSplineSet
EndChar

StartChar: uni02E0
Encoding: 736 736 99
Width: 583
VWidth: 0
Flags: W
HStem: -205 28<178.574 234.374> -1 21G<28.5 34 61.5 68.5> 224 30<190.6 241.499> 231 31<308.19 388.788 501.091 581.754> 439 27<572.891 630.189>
VStem: 25 53<3.28714 19> 111 67<-176.28 -112> 222 64<171.017 223.808> 631 63<376 438.512>
LayerCount: 2
Fore
SplineSet
604 466 m 0xdf80
 650 466 694 437 694 392 c 0
 694 360 671 335 639 335 c 0
 617 335 598 351 598 373 c 0
 598 411 631 414 631 428 c 0
 631 435 618 439 608 439 c 0
 566 439 537 394 504 301 c 0
 495 273 502 262 525 262 c 2
 571 262 l 2
 580 262 586 261 582 247 c 0
 578 234 572 231 560 231 c 2
 518 231 l 2
 494 231 481 224 473 195 c 2
 462 155 l 2
 405 -54 307 -205 200 -205 c 0
 155 -205 111 -174 111 -128 c 0
 111 -96 134 -68 166 -68 c 0
 189 -68 210 -82 210 -108 c 0
 210 -151 178 -151 178 -166 c 0
 178 -173 184 -177 196 -177 c 0
 275 -177 321 -18 372 150 c 2
 387 198 l 2
 392 215 393 231 361 231 c 2
 319 231 l 2
 311 231 304 234 308 249 c 0
 312 263 319 262 332 262 c 2
 374 262 l 2
 402 262 410 269 422 295 c 0
 466 400 520 466 604 466 c 0xdf80
231 254 m 0xef80
 261 254 286 232 286 198 c 0
 286 168 265 152 241 152 c 3
 221 152 208 164 208 183 c 3
 208 203 222 210 222 219 c 0
 222 222 219 224 216 224 c 0
 198 224 151 173 134 145 c 0
 122 125 111 104 101 80 c 2
 78 19 l 2
 71 3 72 -1 65 -1 c 0
 58 -1 57 3 49 3 c 0
 39 3 38 -1 30 -1 c 0
 27 -1 25 1 25 4 c 0
 25 6 26 10 28 14 c 2
 91 184 l 2
 94 192 95 198 95 203 c 0
 95 213 90 217 83 217 c 0
 62 217 45 192 22 147 c 0
 18 140 13 136 8 136 c 0
 3 136 -0 140 -0 148 c 0
 -0 151 0 155 2 159 c 0
 21 212 57 254 97 254 c 0
 116 254 131 246 138 229 c 0
 143 216 147 212 153 212 c 0
 158 212 161 216 170 224 c 0
 190 242 208 254 231 254 c 0xef80
EndSplineSet
EndChar

StartChar: uni02E1
Encoding: 737 737 100
Width: 873
VWidth: 0
Flags: HW
HStem: -205 28<-48 7> 231 31<81 162 274 355> 439 27<346 403>
VStem: -116 67<-176 -112> 404 63<376 439>
LayerCount: 2
Fore
SplineSet
604 466 m 0
 650 466 694 437 694 392 c 0
 694 360 671 335 639 335 c 0
 617 335 598 351 598 373 c 0
 598 411 631 414 631 428 c 0
 631 435 618 439 608 439 c 0
 566 439 537 394 504 301 c 0
 495 273 502 262 525 262 c 2
 664 262 l 2
 692 262 700 269 712 295 c 1
 756 400 810 466 894 466 c 0
 940 466 984 437 984 392 c 0
 984 360 961 335 929 335 c 0
 907 335 888 351 888 373 c 0
 888 411 921 414 921 428 c 0
 921 435 908 439 898 439 c 0
 856 439 827 394 794 301 c 0
 785 273 792 262 815 262 c 2
 861 262 l 2
 870 262 876 261 872 247 c 0
 868 234 862 231 850 231 c 2
 808 231 l 2
 784 231 771 224 763 195 c 2
 752 155 l 2
 695 -54 597 -205 490 -205 c 0
 445 -205 401 -174 401 -128 c 0
 401 -96 424 -68 456 -68 c 0
 479 -68 500 -82 500 -108 c 0
 500 -151 468 -151 468 -166 c 0
 468 -173 474 -177 486 -177 c 0
 565 -177 610 -18 662 150 c 2
 677 198 l 2
 682 215 683 231 651 231 c 2
 518 231 l 2
 494 231 481 224 473 195 c 2
 462 155 l 2
 405 -54 307 -205 200 -205 c 0
 155 -205 111 -174 111 -128 c 0
 111 -96 134 -68 166 -68 c 0
 189 -68 210 -82 210 -108 c 0
 210 -151 178 -151 178 -166 c 0
 178 -173 184 -177 196 -177 c 0
 275 -177 320 -18 372 150 c 2
 387 198 l 2
 392 215 393 231 361 231 c 2
 319 231 l 2
 311 231 304 234 308 249 c 0
 312 263 319 262 332 262 c 2
 374 262 l 2
 402 262 410 269 422 295 c 1
 466 400 520 466 604 466 c 0
231 254 m 0
 261 254 286 232 286 198 c 0
 286 168 265 152 241 152 c 3
 221 152 208 164 208 183 c 3
 208 203 222 210 222 219 c 0
 222 222 219 224 216 224 c 0
 198 224 151 173 134 145 c 0
 122 125 111 104 101 80 c 2
 78 19 l 2
 71 3 72 -1 65 -1 c 0
 58 -1 57 3 49 3 c 0
 39 3 38 -1 30 -1 c 0
 27 -1 25 1 25 4 c 0
 25 6 26 10 28 14 c 2
 91 184 l 2
 94 192 95 198 95 203 c 0
 95 213 90 217 83 217 c 0
 62 217 45 192 22 147 c 0
 18 140 13 136 8 136 c 0
 3 136 0 140 -0 148 c 0
 0 151 0 155 2 159 c 0
 21 212 57 254 97 254 c 0
 116 254 131 246 138 229 c 0
 143 216 147 212 153 212 c 0
 158 212 161 216 170 224 c 0
 190 242 208 254 231 254 c 0
EndSplineSet
EndChar

StartChar: uni02E2
Encoding: 738 738 101
Width: 1163
VWidth: 0
Flags: HW
HStem: -205 28<-48 7 242 297 532 587> 231 31<81 162 274 452 564 742 854 935> 439 27<346 403 636 693 926 983>
VStem: -116 67<-176 -112> 174 67<-176 -112> 404 63<376 439> 464 67<-176 -112> 694 63<376 439> 984 63<376 439>
LayerCount: 2
Fore
SplineSet
604 466 m 4xfb80
 650 466 694 437 694 392 c 4
 694 360 671 335 639 335 c 4
 617 335 598 351 598 373 c 4
 598 411 631 414 631 428 c 4xfd80
 631 435 618 439 608 439 c 4
 566 439 537 394 504 301 c 4
 495 273 502 262 525 262 c 6
 664 262 l 6
 692 262 700 269 712 295 c 5
 756 400 810 466 894 466 c 4
 940 466 984 437 984 392 c 4
 984 360 961 335 929 335 c 4
 907 335 888 351 888 373 c 4
 888 411 921 414 921 428 c 4
 921 435 908 439 898 439 c 4
 856 439 827 394 794 301 c 4
 785 273 792 262 815 262 c 6
 954 262 l 6
 982 262 990 269 1002 295 c 5
 1046 400 1100 466 1184 466 c 4
 1230 466 1274 437 1274 392 c 4
 1274 360 1251 335 1219 335 c 4
 1197 335 1178 351 1178 373 c 4
 1178 411 1211 414 1211 428 c 4
 1211 435 1198 439 1188 439 c 4
 1146 439 1117 394 1084 301 c 4
 1075 273 1082 262 1105 262 c 6
 1151 262 l 6
 1160 262 1166 261 1162 247 c 4
 1158 234 1152 231 1140 231 c 6
 1098 231 l 6
 1074 231 1061 224 1053 195 c 6
 1042 155 l 6
 985 -54 887 -205 780 -205 c 4
 735 -205 691 -174 691 -128 c 4
 691 -96 714 -68 746 -68 c 4
 769 -68 790 -82 790 -108 c 4
 790 -151 758 -151 758 -166 c 4
 758 -173 764 -177 776 -177 c 4
 855 -177 900 -18 952 150 c 6
 967 198 l 6
 972 215 973 231 941 231 c 6
 808 231 l 6
 784 231 771 224 763 195 c 6
 752 155 l 6
 695 -54 597 -205 490 -205 c 4
 445 -205 401 -174 401 -128 c 4
 401 -96 424 -68 456 -68 c 4
 479 -68 500 -82 500 -108 c 4
 500 -151 468 -151 468 -166 c 4
 468 -173 474 -177 486 -177 c 4
 565 -177 610 -18 662 150 c 6
 677 198 l 6
 682 215 683 231 651 231 c 6
 518 231 l 6
 494 231 481 224 473 195 c 6
 462 155 l 6
 405 -54 307 -205 200 -205 c 4
 155 -205 111 -174 111 -128 c 4
 111 -96 134 -68 166 -68 c 4
 189 -68 210 -82 210 -108 c 4
 210 -151 178 -151 178 -166 c 4
 178 -173 184 -177 196 -177 c 4
 275 -177 320 -18 372 150 c 6
 387 198 l 6
 392 215 393 231 361 231 c 6
 319 231 l 6
 311 231 304 234 308 249 c 4
 312 263 319 262 332 262 c 6
 374 262 l 6
 402 262 410 269 422 295 c 5
 466 400 520 466 604 466 c 4xfb80
231 254 m 0
 261 254 286 232 286 198 c 0
 286 168 265 152 241 152 c 3
 221 152 208 164 208 183 c 3
 208 203 222 210 222 219 c 0
 222 222 219 224 216 224 c 0
 198 224 151 173 134 145 c 0
 122 125 111 104 101 80 c 2
 78 19 l 2
 71 3 72 -1 65 -1 c 0
 58 -1 57 3 49 3 c 0
 39 3 38 -1 30 -1 c 0
 27 -1 25 1 25 4 c 0
 25 6 26 10 28 14 c 2
 91 184 l 2
 94 192 95 198 95 203 c 0
 95 213 90 217 83 217 c 0
 62 217 45 192 22 147 c 0
 18 140 13 136 8 136 c 0
 3 136 0 140 -0 148 c 0
 0 151 0 155 2 159 c 0
 21 212 57 254 97 254 c 0
 116 254 131 246 138 229 c 0
 143 216 147 212 153 212 c 0
 158 212 161 216 170 224 c 0
 190 242 208 254 231 254 c 0
EndSplineSet
EndChar

StartChar: uni02E3
Encoding: 739 739 102
Width: 1453
VWidth: 0
Flags: HW
HStem: -205 28<-48 7 242 297 532 587 822 877> 231 31<81 162 274 452 564 742 854 1032 1144 1225> 439 27<346 403 636 693 926 983 1216 1273>
VStem: -116 67<-176 -112> 174 67<-176 -112> 404 63<376 439> 464 67<-176 -112> 694 63<376 439> 754 67<-176 -112> 984 63<376 439> 1274 63<376 439>
LayerCount: 2
Fore
SplineSet
604 466 m 4xfae0
 650 466 694 437 694 392 c 4
 694 360 671 335 639 335 c 4
 617 335 598 351 598 373 c 4
 598 411 631 414 631 428 c 4
 631 435 618 439 608 439 c 4
 566 439 537 394 504 301 c 4
 495 273 502 262 525 262 c 6
 664 262 l 6
 692 262 700 269 712 295 c 5
 756 400 810 466 894 466 c 4
 940 466 984 437 984 392 c 4
 984 360 961 335 929 335 c 4
 907 335 888 351 888 373 c 4
 888 411 921 414 921 428 c 4xfd60
 921 435 908 439 898 439 c 4
 856 439 827 394 794 301 c 4
 785 273 792 262 815 262 c 6
 954 262 l 6
 982 262 990 269 1002 295 c 5
 1046 400 1100 466 1184 466 c 4
 1230 466 1274 437 1274 392 c 4
 1274 360 1251 335 1219 335 c 4
 1197 335 1178 351 1178 373 c 4
 1178 411 1211 414 1211 428 c 4
 1211 435 1198 439 1188 439 c 4
 1146 439 1117 394 1084 301 c 4
 1075 273 1082 262 1105 262 c 6
 1244 262 l 6
 1272 262 1280 269 1292 295 c 5
 1336 400 1390 466 1474 466 c 4
 1520 466 1564 437 1564 392 c 4
 1564 360 1541 335 1509 335 c 4
 1487 335 1468 351 1468 373 c 4
 1468 411 1501 414 1501 428 c 4
 1501 435 1488 439 1478 439 c 4
 1436 439 1407 394 1374 301 c 4
 1365 273 1372 262 1395 262 c 6
 1441 262 l 6
 1450 262 1456 261 1452 247 c 4
 1448 234 1442 231 1430 231 c 6
 1388 231 l 6
 1364 231 1351 224 1343 195 c 6
 1332 155 l 6
 1275 -54 1177 -205 1070 -205 c 4
 1025 -205 981 -174 981 -128 c 4
 981 -96 1004 -68 1036 -68 c 4
 1059 -68 1080 -82 1080 -108 c 4
 1080 -151 1048 -151 1048 -166 c 4
 1048 -173 1054 -177 1066 -177 c 4
 1145 -177 1190 -18 1242 150 c 6
 1257 198 l 6
 1262 215 1263 231 1231 231 c 6
 1098 231 l 6
 1074 231 1061 224 1053 195 c 6
 1042 155 l 6
 985 -54 887 -205 780 -205 c 4
 735 -205 691 -174 691 -128 c 4
 691 -96 714 -68 746 -68 c 4
 769 -68 790 -82 790 -108 c 4
 790 -151 758 -151 758 -166 c 4
 758 -173 764 -177 776 -177 c 4
 855 -177 900 -18 952 150 c 6
 967 198 l 6
 972 215 973 231 941 231 c 6
 808 231 l 6
 784 231 771 224 763 195 c 6
 752 155 l 6
 695 -54 597 -205 490 -205 c 4
 445 -205 401 -174 401 -128 c 4
 401 -96 424 -68 456 -68 c 4
 479 -68 500 -82 500 -108 c 4
 500 -151 468 -151 468 -166 c 4
 468 -173 474 -177 486 -177 c 4
 565 -177 610 -18 662 150 c 6
 677 198 l 6
 682 215 683 231 651 231 c 6
 518 231 l 6
 494 231 481 224 473 195 c 6
 462 155 l 6
 405 -54 307 -205 200 -205 c 4
 155 -205 111 -174 111 -128 c 4
 111 -96 134 -68 166 -68 c 4
 189 -68 210 -82 210 -108 c 4
 210 -151 178 -151 178 -166 c 4
 178 -173 184 -177 196 -177 c 4
 275 -177 320 -18 372 150 c 6
 387 198 l 6
 392 215 393 231 361 231 c 6
 319 231 l 6
 311 231 304 234 308 249 c 4
 312 263 319 262 332 262 c 6
 374 262 l 6
 402 262 410 269 422 295 c 5
 466 400 520 466 604 466 c 4xfae0
231 254 m 0
 261 254 286 232 286 198 c 0
 286 168 265 152 241 152 c 3
 221 152 208 164 208 183 c 3
 208 203 222 210 222 219 c 0
 222 222 219 224 216 224 c 0
 198 224 151 173 134 145 c 0
 122 125 111 104 101 80 c 2
 78 19 l 2
 71 3 72 -1 65 -1 c 0
 58 -1 57 3 49 3 c 0
 39 3 38 -1 30 -1 c 0
 27 -1 25 1 25 4 c 0
 25 6 26 10 28 14 c 2
 91 184 l 2
 94 192 95 198 95 203 c 0
 95 213 90 217 83 217 c 0
 62 217 45 192 22 147 c 0
 18 140 13 136 8 136 c 0
 3 136 0 140 -0 148 c 0
 0 151 0 155 2 159 c 0
 21 212 57 254 97 254 c 0
 116 254 131 246 138 229 c 0
 143 216 147 212 153 212 c 0
 158 212 161 216 170 224 c 0
 190 242 208 254 231 254 c 0
EndSplineSet
EndChar

StartChar: uni02E8
Encoding: 744 744 103
Width: 821
VWidth: 0
Flags: HW
HStem: -205 28<178.574 234.374> -15.001 34<703.401 769.173> -1 21G<28.5 34 61.5 68.5> 203.999 54<627.008 721.355> 224 30<190.6 241.499> 231 31<308.19 388.788 501.091 581.754> 439 27<572.891 630.189>
VStem: 25 53<3.28714 19> 111 67<-176.28 -112> 222 64<171.017 223.808> 631 63<376 438.512> 770 29<21.1759 61.3208>
LayerCount: 2
Fore
SplineSet
745 19 m 0xef
 757 19 770 27 770 41 c 0
 770 52 760 62 743 68 c 0
 732 72 720 82 720 94 c 0
 720 106 726 120 751 120 c 0
 775 120 799 93 799 59 c 0
 799 9 762 -15 732 -15 c 3
 689 -15 667 35 627 35 c 0
 607 35 580 9 562 -1 c 0
 557 -4 553 -5 550 -5 c 0
 544 -5 541 -1 541 5 c 0
 541 10 544 17 550 22 c 2
 584 55 l 2
 623 89 682.5 148.5 724.5 191.5 c 0
 727.5 194.5 729.5 197.5 729.5 200.5 c 0
 729.5 211.5 674.5 211.5 661.5 211.5 c 0
 651.5 211.5 643.076 208.151 634.5 194.5 c 2
 618.479 169 l 2
 611.796 158.403 604.49 156.5 600.49 156.5 c 0
 596.49 156.5 593.49 159.5 593.49 165.5 c 0
 593.49 168.5 594.49 172.5 595.49 176.5 c 2
 617 235 l 2
 623.548 252.809 625 258.001 640 258.001 c 3
 658 258.001 682 251 732 251 c 3
 766 251 801 258.001 810 258.001 c 3
 819 258.001 821 255.001 821 251 c 0
 821 242 820 241 798 219 c 0
 773 194 723 148 703 128 c 2
 668 92 l 2
 661 85 657 79 657 74 c 0
 657 67 662 63 670 58 c 0
 684 50 701 36 718 27 c 0
 726 22 736 19 745 19 c 0xef
604 466 m 0
 650 466 694 437 694 392 c 0
 694 360 671 335 639 335 c 0
 617 335 598 351 598 373 c 0
 598 411 631 414 631 428 c 0
 631 435 618 439 608 439 c 0
 566 439 537 394 504 301 c 0
 495 273 502 262 525 262 c 2
 571 262 l 2
 580 262 586 261 582 247 c 0
 578 234 572 231 560 231 c 2
 518 231 l 2
 494 231 481 224 473 195 c 2
 462 155 l 2
 405 -54 307 -205 200 -205 c 0
 155 -205 111 -174 111 -128 c 0
 111 -96 134 -68 166 -68 c 0
 189 -68 210 -82 210 -108 c 0
 210 -151 178 -151 178 -166 c 0
 178 -173 184 -177 196 -177 c 0
 275 -177 321 -18 372 150 c 2
 387 198 l 2
 392 215 393 231 361 231 c 2
 319 231 l 2
 311 231 304 234 308 249 c 0
 312 263 319 262 332 262 c 2
 374 262 l 2x87f0
 402 262 410 269 422 295 c 0
 466 400 520 466 604 466 c 0
231 254 m 0xabf0
 261 254 286 232 286 198 c 0
 286 168 265 152 241 152 c 3
 221 152 208 164 208 183 c 3
 208 203 222 210 222 219 c 0
 222 222 219 224 216 224 c 0
 198 224 151 173 134 145 c 0
 122 125 111 104 101 80 c 2
 78 19 l 2
 71 3 72 -1 65 -1 c 0
 58 -1 57 3 49 3 c 0
 39 3 38 -1 30 -1 c 0
 27 -1 25 1 25 4 c 0
 25 6 26 10 28 14 c 2
 91 184 l 2
 94 192 95 198 95 203 c 0
 95 213 90 217 83 217 c 0
 62 217 45 192 22 147 c 0
 18 140 13 136 8 136 c 0
 3 136 -0 140 -0 148 c 0
 -0 151 0 155 2 159 c 0
 21 212 57 254 97 254 c 0
 116 254 131 246 138 229 c 0
 143 216 147 212 153 212 c 0
 158 212 161 216 170 224 c 0
 190 242 208 254 231 254 c 0xabf0
EndSplineSet
EndChar

StartChar: uni02E9
Encoding: 745 745 104
Width: 1111
VWidth: 0
Flags: HW
HStem: -205 28<-48.426 7.37363> -15.001 34<476.401 542.173> 203.999 54<400.008 494.355> 231 31<81.1897 161.788 274.091 354.754> 439 27<345.891 403.189>
VStem: -116 67<-176.28 -112> 404 63<376 438.512> 543 29<21.1759 61.3208>
LayerCount: 2
Fore
SplineSet
1035 19 m 0xef
 1047 19 1060 27 1060 41 c 0
 1060 52 1050 62 1033 68 c 0
 1022 72 1010 82 1010 94 c 0
 1010 106 1016 120 1041 120 c 0
 1065 120 1089 93 1089 59 c 0
 1089 9 1052 -15 1022 -15 c 3
 979 -15 957 35 917 35 c 0
 897 35 870 9 852 -1 c 0
 847 -4 843 -5 840 -5 c 0
 834 -5 831 -1 831 5 c 0
 831 10 834 17 840 22 c 2
 874 55 l 2
 913 89 972.5 148.5 1014.5 191.5 c 0
 1017.5 194.5 1019.5 197.5 1019.5 200.5 c 0
 1019.5 211.5 964.5 211.5 951.5 211.5 c 0
 941.5 211.5 933.076 208.151 924.5 194.5 c 2
 908.479 169 l 2
 901.796 158.403 894.49 156.5 890.49 156.5 c 0
 886.49 156.5 883.49 159.5 883.49 165.5 c 0
 883.49 168.5 884.49 172.5 885.49 176.5 c 2
 907 235 l 2
 913.548 252.809 915 258.001 930 258.001 c 3
 948 258.001 972 251 1022 251 c 3
 1056 251 1091 258.001 1100 258.001 c 3
 1109 258.001 1111 255.001 1111 251 c 0
 1111 242 1110 241 1088 219 c 0
 1063 194 1013 148 993 128 c 2
 958 92 l 2
 951 85 947 79 947 74 c 0
 947 67 952 63 960 58 c 0
 974 50 991 36 1008 27 c 0
 1016 22 1026 19 1035 19 c 0xef
604 466 m 0
 650 466 694 437 694 392 c 0
 694 360 671 335 639 335 c 0
 617 335 598 351 598 373 c 0
 598 411 631 414 631 428 c 0
 631 435 618 439 608 439 c 0
 566 439 537 394 504 301 c 0
 495 273 502 262 525 262 c 2
 664 262 l 2
 692 262 700 269 712 295 c 1
 756 400 810 466 894 466 c 0
 940 466 984 437 984 392 c 0
 984 360 961 335 929 335 c 0
 907 335 888 351 888 373 c 0
 888 411 921 414 921 428 c 0
 921 435 908 439 898 439 c 0
 856 439 827 394 794 301 c 0
 785 273 792 262 815 262 c 2
 861 262 l 2
 870 262 876 261 872 247 c 0
 868 234 862 231 850 231 c 2
 808 231 l 2
 784 231 771 224 763 195 c 2
 752 155 l 2
 695 -54 597 -205 490 -205 c 0
 445 -205 401 -174 401 -128 c 0
 401 -96 424 -68 456 -68 c 0
 479 -68 500 -82 500 -108 c 0
 500 -151 468 -151 468 -166 c 0
 468 -173 474 -177 486 -177 c 0
 565 -177 610 -18 662 150 c 2
 677 198 l 2
 682 215 683 231 651 231 c 2
 518 231 l 2
 494 231 481 224 473 195 c 2
 462 155 l 2
 405 -54 307 -205 200 -205 c 0
 155 -205 111 -174 111 -128 c 0
 111 -96 134 -68 166 -68 c 0
 189 -68 210 -82 210 -108 c 0
 210 -151 178 -151 178 -166 c 0
 178 -173 184 -177 196 -177 c 0
 275 -177 320 -18 372 150 c 2
 387 198 l 2
 392 215 393 231 361 231 c 2
 319 231 l 2
 311 231 304 234 308 249 c 0
 312 263 319 262 332 262 c 2
 374 262 l 2
 402 262 410 269 422 295 c 1
 466 400 520 466 604 466 c 0
231 254 m 0
 261 254 286 232 286 198 c 0
 286 168 265 152 241 152 c 3
 221 152 208 164 208 183 c 3
 208 203 222 210 222 219 c 0
 222 222 219 224 216 224 c 0
 198 224 151 173 134 145 c 0
 122 125 111 104 101 80 c 2
 78 19 l 2
 71 3 72 -1 65 -1 c 0
 58 -1 57 3 49 3 c 0
 39 3 38 -1 30 -1 c 0
 27 -1 25 1 25 4 c 0
 25 6 26 10 28 14 c 2
 91 184 l 2
 94 192 95 198 95 203 c 0
 95 213 90 217 83 217 c 0
 62 217 45 192 22 147 c 0
 18 140 13 136 8 136 c 0
 3 136 0 140 -0 148 c 0
 0 151 0 155 2 159 c 0
 21 212 57 254 97 254 c 0
 116 254 131 246 138 229 c 0
 143 216 147 212 153 212 c 0
 158 212 161 216 170 224 c 0
 190 242 208 254 231 254 c 0
EndSplineSet
EndChar

StartChar: uni02EA
Encoding: 746 746 105
Width: 1401
VWidth: 0
Flags: HW
HStem: -205 28<-48.426 7.37363> -15.001 34<476.401 542.173> 203.999 54<400.008 494.355> 231 31<81.1897 161.788 274.091 354.754> 439 27<345.891 403.189>
VStem: -116 67<-176.28 -112> 404 63<376 438.512> 543 29<21.1759 61.3208>
LayerCount: 2
Fore
SplineSet
1325 19 m 0xef
 1337 19 1350 27 1350 41 c 0
 1350 52 1340 62 1323 68 c 0
 1312 72 1300 82 1300 94 c 0
 1300 106 1306 120 1331 120 c 0
 1355 120 1379 93 1379 59 c 0
 1379 9 1342 -15 1312 -15 c 3
 1269 -15 1247 35 1207 35 c 0
 1187 35 1160 9 1142 -1 c 0
 1137 -4 1133 -5 1130 -5 c 0
 1124 -5 1121 -1 1121 5 c 0
 1121 10 1124 17 1130 22 c 2
 1164 55 l 2
 1203 89 1262.5 148.5 1304.5 191.5 c 0
 1307.5 194.5 1309.5 197.5 1309.5 200.5 c 0
 1309.5 211.5 1254.5 211.5 1241.5 211.5 c 0
 1231.5 211.5 1223.08 208.151 1214.5 194.5 c 2
 1198.48 169 l 2
 1191.8 158.403 1184.49 156.5 1180.49 156.5 c 0
 1176.49 156.5 1173.49 159.5 1173.49 165.5 c 0
 1173.49 168.5 1174.49 172.5 1175.49 176.5 c 2
 1197 235 l 2
 1203.55 252.809 1205 258.001 1220 258.001 c 3
 1238 258.001 1262 251 1312 251 c 3
 1346 251 1381 258.001 1390 258.001 c 3
 1399 258.001 1401 255.001 1401 251 c 0
 1401 242 1400 241 1378 219 c 0
 1353 194 1303 148 1283 128 c 2
 1248 92 l 2
 1241 85 1237 79 1237 74 c 0
 1237 67 1242 63 1250 58 c 0
 1264 50 1281 36 1298 27 c 0
 1306 22 1316 19 1325 19 c 0xef
604 466 m 0xfb80
 650 466 694 437 694 392 c 0
 694 360 671 335 639 335 c 0
 617 335 598 351 598 373 c 0
 598 411 631 414 631 428 c 0xfd80
 631 435 618 439 608 439 c 0
 566 439 537 394 504 301 c 0
 495 273 502 262 525 262 c 2
 664 262 l 2
 692 262 700 269 712 295 c 1
 756 400 810 466 894 466 c 0
 940 466 984 437 984 392 c 0
 984 360 961 335 929 335 c 0
 907 335 888 351 888 373 c 0
 888 411 921 414 921 428 c 0
 921 435 908 439 898 439 c 0
 856 439 827 394 794 301 c 0
 785 273 792 262 815 262 c 2
 954 262 l 2
 982 262 990 269 1002 295 c 1
 1046 400 1100 466 1184 466 c 0
 1230 466 1274 437 1274 392 c 0
 1274 360 1251 335 1219 335 c 0
 1197 335 1178 351 1178 373 c 0
 1178 411 1211 414 1211 428 c 0
 1211 435 1198 439 1188 439 c 0
 1146 439 1117 394 1084 301 c 0
 1075 273 1082 262 1105 262 c 2
 1151 262 l 2
 1160 262 1166 261 1162 247 c 0
 1158 234 1152 231 1140 231 c 2
 1098 231 l 2
 1074 231 1061 224 1053 195 c 2
 1042 155 l 2
 985 -54 887 -205 780 -205 c 0
 735 -205 691 -174 691 -128 c 0
 691 -96 714 -68 746 -68 c 0
 769 -68 790 -82 790 -108 c 0
 790 -151 758 -151 758 -166 c 0
 758 -173 764 -177 776 -177 c 0
 855 -177 900 -18 952 150 c 2
 967 198 l 2
 972 215 973 231 941 231 c 2
 808 231 l 2
 784 231 771 224 763 195 c 2
 752 155 l 2
 695 -54 597 -205 490 -205 c 0
 445 -205 401 -174 401 -128 c 0
 401 -96 424 -68 456 -68 c 0
 479 -68 500 -82 500 -108 c 0
 500 -151 468 -151 468 -166 c 0
 468 -173 474 -177 486 -177 c 0
 565 -177 610 -18 662 150 c 2
 677 198 l 2
 682 215 683 231 651 231 c 2
 518 231 l 2
 494 231 481 224 473 195 c 2
 462 155 l 2
 405 -54 307 -205 200 -205 c 0
 155 -205 111 -174 111 -128 c 0
 111 -96 134 -68 166 -68 c 0
 189 -68 210 -82 210 -108 c 0
 210 -151 178 -151 178 -166 c 0
 178 -173 184 -177 196 -177 c 0
 275 -177 320 -18 372 150 c 2
 387 198 l 2
 392 215 393 231 361 231 c 2
 319 231 l 2
 311 231 304 234 308 249 c 0
 312 263 319 262 332 262 c 2
 374 262 l 2
 402 262 410 269 422 295 c 1
 466 400 520 466 604 466 c 0xfb80
231 254 m 0
 261 254 286 232 286 198 c 0
 286 168 265 152 241 152 c 3
 221 152 208 164 208 183 c 3
 208 203 222 210 222 219 c 0
 222 222 219 224 216 224 c 0
 198 224 151 173 134 145 c 0
 122 125 111 104 101 80 c 2
 78 19 l 2
 71 3 72 -1 65 -1 c 0
 58 -1 57 3 49 3 c 0
 39 3 38 -1 30 -1 c 0
 27 -1 25 1 25 4 c 0
 25 6 26 10 28 14 c 2
 91 184 l 2
 94 192 95 198 95 203 c 0
 95 213 90 217 83 217 c 0
 62 217 45 192 22 147 c 0
 18 140 13 136 8 136 c 0
 3 136 0 140 -0 148 c 0
 0 151 0 155 2 159 c 0
 21 212 57 254 97 254 c 0
 116 254 131 246 138 229 c 0
 143 216 147 212 153 212 c 0
 158 212 161 216 170 224 c 0
 190 242 208 254 231 254 c 0
EndSplineSet
EndChar

StartChar: uni02EB
Encoding: 747 747 106
Width: 1691
VWidth: 0
Flags: HW
HStem: -205 28<-48.426 7.37363> -15.001 34<476.401 542.173> 203.999 54<400.008 494.355> 231 31<81.1897 161.788 274.091 354.754> 439 27<345.891 403.189>
VStem: -116 67<-176.28 -112> 404 63<376 438.512> 543 29<21.1759 61.3208>
LayerCount: 2
Fore
SplineSet
1615 19 m 0xef
 1627 19 1640 27 1640 41 c 0
 1640 52 1630 62 1613 68 c 0
 1602 72 1590 82 1590 94 c 0
 1590 106 1596 120 1621 120 c 0
 1645 120 1669 93 1669 59 c 0
 1669 9 1632 -15 1602 -15 c 3
 1559 -15 1537 35 1497 35 c 0
 1477 35 1450 9 1432 -1 c 0
 1427 -4 1423 -5 1420 -5 c 0
 1414 -5 1411 -1 1411 5 c 0
 1411 10 1414 17 1420 22 c 2
 1454 55 l 2
 1493 89 1552.5 148.5 1594.5 191.5 c 0
 1597.5 194.5 1599.5 197.5 1599.5 200.5 c 0
 1599.5 211.5 1544.5 211.5 1531.5 211.5 c 0
 1521.5 211.5 1513.08 208.151 1504.5 194.5 c 2
 1488.48 169 l 2
 1481.8 158.403 1474.49 156.5 1470.49 156.5 c 0
 1466.49 156.5 1463.49 159.5 1463.49 165.5 c 0
 1463.49 168.5 1464.49 172.5 1465.49 176.5 c 2
 1487 235 l 2
 1493.55 252.809 1495 258.001 1510 258.001 c 3
 1528 258.001 1552 251 1602 251 c 3
 1636 251 1671 258.001 1680 258.001 c 3
 1689 258.001 1691 255.001 1691 251 c 0
 1691 242 1690 241 1668 219 c 0
 1643 194 1593 148 1573 128 c 2
 1538 92 l 2
 1531 85 1527 79 1527 74 c 0
 1527 67 1532 63 1540 58 c 0
 1554 50 1571 36 1588 27 c 0
 1596 22 1606 19 1615 19 c 0xef
604 466 m 0xfae0
 650 466 694 437 694 392 c 0
 694 360 671 335 639 335 c 0
 617 335 598 351 598 373 c 0
 598 411 631 414 631 428 c 0
 631 435 618 439 608 439 c 0
 566 439 537 394 504 301 c 0
 495 273 502 262 525 262 c 2
 664 262 l 2
 692 262 700 269 712 295 c 1
 756 400 810 466 894 466 c 0
 940 466 984 437 984 392 c 0
 984 360 961 335 929 335 c 0
 907 335 888 351 888 373 c 0
 888 411 921 414 921 428 c 0xfd60
 921 435 908 439 898 439 c 0
 856 439 827 394 794 301 c 0
 785 273 792 262 815 262 c 2
 954 262 l 2
 982 262 990 269 1002 295 c 1
 1046 400 1100 466 1184 466 c 0
 1230 466 1274 437 1274 392 c 0
 1274 360 1251 335 1219 335 c 0
 1197 335 1178 351 1178 373 c 0
 1178 411 1211 414 1211 428 c 0
 1211 435 1198 439 1188 439 c 0
 1146 439 1117 394 1084 301 c 0
 1075 273 1082 262 1105 262 c 2
 1244 262 l 2
 1272 262 1280 269 1292 295 c 1
 1336 400 1390 466 1474 466 c 0
 1520 466 1564 437 1564 392 c 0
 1564 360 1541 335 1509 335 c 0
 1487 335 1468 351 1468 373 c 0
 1468 411 1501 414 1501 428 c 0
 1501 435 1488 439 1478 439 c 0
 1436 439 1407 394 1374 301 c 0
 1365 273 1372 262 1395 262 c 2
 1441 262 l 2
 1450 262 1456 261 1452 247 c 0
 1448 234 1442 231 1430 231 c 2
 1388 231 l 2
 1364 231 1351 224 1343 195 c 2
 1332 155 l 2
 1275 -54 1177 -205 1070 -205 c 0
 1025 -205 981 -174 981 -128 c 0
 981 -96 1004 -68 1036 -68 c 0
 1059 -68 1080 -82 1080 -108 c 0
 1080 -151 1048 -151 1048 -166 c 0
 1048 -173 1054 -177 1066 -177 c 0
 1145 -177 1190 -18 1242 150 c 2
 1257 198 l 2
 1262 215 1263 231 1231 231 c 2
 1098 231 l 2
 1074 231 1061 224 1053 195 c 2
 1042 155 l 2
 985 -54 887 -205 780 -205 c 0
 735 -205 691 -174 691 -128 c 0
 691 -96 714 -68 746 -68 c 0
 769 -68 790 -82 790 -108 c 0
 790 -151 758 -151 758 -166 c 0
 758 -173 764 -177 776 -177 c 0
 855 -177 900 -18 952 150 c 2
 967 198 l 2
 972 215 973 231 941 231 c 2
 808 231 l 2
 784 231 771 224 763 195 c 2
 752 155 l 2
 695 -54 597 -205 490 -205 c 0
 445 -205 401 -174 401 -128 c 0
 401 -96 424 -68 456 -68 c 0
 479 -68 500 -82 500 -108 c 0
 500 -151 468 -151 468 -166 c 0
 468 -173 474 -177 486 -177 c 0
 565 -177 610 -18 662 150 c 2
 677 198 l 2
 682 215 683 231 651 231 c 2
 518 231 l 2
 494 231 481 224 473 195 c 2
 462 155 l 2
 405 -54 307 -205 200 -205 c 0
 155 -205 111 -174 111 -128 c 0
 111 -96 134 -68 166 -68 c 0
 189 -68 210 -82 210 -108 c 0
 210 -151 178 -151 178 -166 c 0
 178 -173 184 -177 196 -177 c 0
 275 -177 320 -18 372 150 c 2
 387 198 l 2
 392 215 393 231 361 231 c 2
 319 231 l 2
 311 231 304 234 308 249 c 0
 312 263 319 262 332 262 c 2
 374 262 l 2
 402 262 410 269 422 295 c 1
 466 400 520 466 604 466 c 0xfae0
231 254 m 0
 261 254 286 232 286 198 c 0
 286 168 265 152 241 152 c 3
 221 152 208 164 208 183 c 3
 208 203 222 210 222 219 c 0
 222 222 219 224 216 224 c 0
 198 224 151 173 134 145 c 0
 122 125 111 104 101 80 c 2
 78 19 l 2
 71 3 72 -1 65 -1 c 0
 58 -1 57 3 49 3 c 0
 39 3 38 -1 30 -1 c 0
 27 -1 25 1 25 4 c 0
 25 6 26 10 28 14 c 2
 91 184 l 2
 94 192 95 198 95 203 c 0
 95 213 90 217 83 217 c 0
 62 217 45 192 22 147 c 0
 18 140 13 136 8 136 c 0
 3 136 0 140 -0 148 c 0
 0 151 0 155 2 159 c 0
 21 212 57 254 97 254 c 0
 116 254 131 246 138 229 c 0
 143 216 147 212 153 212 c 0
 158 212 161 216 170 224 c 0
 190 242 208 254 231 254 c 0
EndSplineSet
EndChar

StartChar: uni02C3
Encoding: 707 707 107
Width: 902
VWidth: 573
Flags: HW
HStem: -205 28<-48.426 7.37363> -194 31<214.195 300.546 395.23 462.948> -37 38<507.27 578.138> 224 49<405.129 481 600.79 680> 231 31<81.1897 161.788 274.091 354.754> 439 27<345.891 403.189>
VStem: -116 67<-176.28 -112> 404 63<376 438.512> 654 76<105.311 223.709>
LayerCount: 2
Fore
SplineSet
616 -194 m 2x7780
 396 -194 l 2
 387 -194 385 -189 386 -180 c 0
 387 -169 392 -163 404 -163 c 2
 436 -163 l 2
 465 -163 470 -155 480 -133 c 2
 603 135 l 2
 615 162 625 188 625 203 c 0
 625 221 616 224 607 224 c 0
 569 224 531 145 502 93 c 0
 496 81 490 74 485 74 c 0
 479 74 472 79 472 86 c 0
 472 90 473 96 476 103 c 0
 510 175 553 273 643 273 c 0
 663 273 683 261 695 242 c 0
 711 216 718 213 746 234 c 0
 775 255 803 269 831 269 c 0
 873 269 902 235 902 185 c 0
 902 82 826 -37 727 -37 c 0
 699 -37 682 -25 668 -11 c 0
 640 13 630 -1 621 -21 c 2
 572 -129 l 2
 561 -153 563 -163 585 -163 c 2
 624 -163 l 2
 636 -163 637 -172 635 -180 c 0
 634 -189 626 -194 616 -194 c 2x7780
669 57 m 0
 669 29 685 1 709 1 c 0
 749 1 776 45 800 95 c 0
 815 126 826 159 826 184 c 0
 826 213 815 225 798 225 c 0
 764 225 719 184 692 135 c 0
 677 107 669 86 669 57 c 0
142 235 m 0xf4c0
 107 235 80 219 80 195 c 0xf4c0
 80 176 109 163 130 153 c 0
 166 136 198 114 198 74 c 0
 198 18 148 -8 90 -8 c 0
 41 -8 0 11 0 54 c 0
 0 81 18 102 42 102 c 0
 60 102 71 88 71 71 c 0
 71 52 51 48 51 35 c 0
 51 19 76 17 94 17 c 0
 129 17 156 35 156 61 c 0xf940
 156 89 135 101 101 116 c 0
 69 130 43 149 43 183 c 0
 43 233 93 259 145 259 c 0
 190 259 225 236 225 196 c 0
 225 170 207 157 190 157 c 0
 175 157 159 168 159 185 c 0
 159 203 177 207 177 218 c 0
 177 230 163 235 142 235 c 0xf4c0
549 466 m 0
 595 466 639 437 639 392 c 0
 639 360 616 335 584 335 c 0
 562 335 543 351 543 373 c 0
 543 411 576 414 576 428 c 0
 576 435 563 439 553 439 c 0
 511 439 482 394 449 301 c 0
 440 273 447 262 470 262 c 2
 516 262 l 2
 525 262 531 261 527 247 c 0
 523 234 517 231 505 231 c 2
 463 231 l 2
 439 231 426 224 418 195 c 2
 407 155 l 2
 350 -54 252 -205 145 -205 c 0
 100 -205 56 -174 56 -128 c 0
 56 -96 79 -68 111 -68 c 0
 134 -68 155 -82 155 -108 c 0
 155 -151 123 -151 123 -166 c 0xf240
 123 -173 129 -177 141 -177 c 0
 220 -177 266 -18 317 150 c 2
 332 198 l 2
 337 215 338 231 306 231 c 2
 264 231 l 2
 256 231 249 234 253 249 c 0
 257 263 264 262 277 262 c 2
 319 262 l 2
 347 262 355 269 367 295 c 0
 411 400 465 466 549 466 c 0
EndSplineSet
EndChar

StartChar: uni02C4
Encoding: 708 708 108
Width: 1282
VWidth: 573
Flags: HW
HStem: -194 31<-80 7 101 169 300 387 481 549> -37 38<213 284 593 664> 224 49<111 178 307 375 491 558 687 763>
VStem: 740 76<105 224>
LayerCount: 2
Fore
SplineSet
669 57 m 0
 669 29 685 1 709 1 c 0
 749 1 776 45 800 95 c 0
 815 126 826 159 826 184 c 0
 826 213 815 225 798 225 c 0
 764 225 719 184 692 135 c 0
 677 107 669 86 669 57 c 0
616 -194 m 2
 396 -194 l 2
 387 -194 385 -189 386 -180 c 0
 387 -169 392 -163 404 -163 c 2
 436 -163 l 2
 465 -163 470 -155 480 -133 c 2
 603 135 l 2
 615 162 625 188 625 203 c 0
 625 221 616 224 607 224 c 0
 569 224 531 145 502 93 c 0
 496 81 490 74 485 74 c 0
 479 74 472 79 472 86 c 0
 472 90 473 96 476 103 c 0
 510 175 553 273 643 273 c 0
 663 273 683 261 695 242 c 0
 711 216 718 213 746 234 c 0
 775 255 803 269 831 269 c 0
 857 269 879 256 891 233 c 0
 903 211 912 209 929 227 c 0
 954 254 984 273 1023 273 c 0
 1043 273 1063 261 1075 242 c 0
 1091 216 1098 213 1126 234 c 0
 1155 255 1183 269 1211 269 c 0
 1253 269 1282 235 1282 185 c 0
 1282 82 1206 -37 1107 -37 c 0
 1079 -37 1062 -25 1048 -11 c 1
 1020 13 1010 -1 1001 -21 c 2
 952 -129 l 2
 941 -153 943 -163 965 -163 c 2
 1004 -163 l 2
 1016 -163 1017 -172 1015 -180 c 1
 1014 -189 1006 -194 996 -194 c 2
 776 -194 l 2
 767 -194 765 -189 766 -180 c 0
 767 -169 772 -163 784 -163 c 2
 816 -163 l 2
 845 -163 850 -155 860 -133 c 2
 983 135 l 2
 995 162 1005 188 1005 203 c 0
 1005 221 996 224 987 224 c 0
 960 224 932 183 908 140 c 0
 895 116 884 89 870 64 c 0
 838 7 787 -37 727 -37 c 0
 699 -37 682 -25 668 -11 c 1
 640 13 630 -1 621 -21 c 2
 572 -129 l 2
 561 -153 563 -163 585 -163 c 2
 624 -163 l 2
 636 -163 637 -172 635 -180 c 1
 634 -189 626 -194 616 -194 c 2
1049 57 m 0
 1049 29 1065 1 1089 1 c 0
 1129 1 1156 45 1180 95 c 0
 1195 126 1206 159 1206 184 c 0
 1206 213 1195 225 1178 225 c 0
 1144 225 1099 184 1072 135 c 0
 1057 107 1049 86 1049 57 c 0
142 235 m 0xf4c0
 107 235 80 219 80 195 c 0xf4c0
 80 176 109 163 130 153 c 0
 166 136 198 114 198 74 c 0
 198 18 148 -8 90 -8 c 0
 41 -8 0 11 0 54 c 0
 0 81 18 102 42 102 c 0
 60 102 71 88 71 71 c 0
 71 52 51 48 51 35 c 0
 51 19 76 17 94 17 c 0
 129 17 156 35 156 61 c 0xf940
 156 89 135 101 101 116 c 0
 69 130 43 149 43 183 c 0
 43 233 93 259 145 259 c 0
 190 259 225 236 225 196 c 0
 225 170 207 157 190 157 c 0
 175 157 159 168 159 185 c 0
 159 203 177 207 177 218 c 0
 177 230 163 235 142 235 c 0xf4c0
549 466 m 0
 595 466 639 437 639 392 c 0
 639 360 616 335 584 335 c 0
 562 335 543 351 543 373 c 0
 543 411 576 414 576 428 c 0
 576 435 563 439 553 439 c 0
 511 439 482 394 449 301 c 0
 440 273 447 262 470 262 c 2
 516 262 l 2
 525 262 531 261 527 247 c 0
 523 234 517 231 505 231 c 2
 463 231 l 2
 439 231 426 224 418 195 c 2
 407 155 l 2
 350 -54 252 -205 145 -205 c 0
 100 -205 56 -174 56 -128 c 0
 56 -96 79 -68 111 -68 c 0
 134 -68 155 -82 155 -108 c 0
 155 -151 123 -151 123 -166 c 0xf240
 123 -173 129 -177 141 -177 c 0
 220 -177 266 -18 317 150 c 2
 332 198 l 2
 337 215 338 231 306 231 c 2
 264 231 l 2
 256 231 249 234 253 249 c 0
 257 263 264 262 277 262 c 2
 319 262 l 2
 347 262 355 269 367 295 c 0
 411 400 465 466 549 466 c 0
EndSplineSet
EndChar

StartChar: uni02C5
Encoding: 709 709 109
Width: 1182
VWidth: 573
Flags: HW
HStem: -205 28<-12.426 43.3369 277.574 333.337> -194 31<530.195 616.546 711.23 778.948> -37 38<823.27 894.138> 224 49<721.129 797 916.79 996> 231 31<117.19 197.788 310.091 487.788 600.091 680.754> 439 27<381.891 439.189 671.891 729.189>
VStem: -80 67<-176.28 -112> 210 67<-176.28 -112> 440 63<376 438.512> 730 63<376 438.512> 970 76<105.311 223.709>
LayerCount: 2
Fore
SplineSet
549 466 m 0xafe0
 595 466 639 437 639 392 c 0
 639 360 616 335 584 335 c 0
 562 335 543 351 543 373 c 0
 543 411 576 414 576 428 c 0
 576 435 563 439 553 439 c 0
 511 439 482 394 449 301 c 0
 440 273 447 262 470 262 c 2
 609 262 l 2
 637 262 645 269 657 295 c 1
 701 400 755 466 839 466 c 0
 885 466 929 437 929 392 c 0
 929 360 906 335 874 335 c 0
 852 335 833 351 833 373 c 0
 833 411 866 414 866 428 c 0
 866 435 853 439 843 439 c 0
 801 439 772 394 739 301 c 0
 730 273 737 262 760 262 c 2
 806 262 l 2
 815 262 821 261 817 247 c 0
 813 234 807 231 795 231 c 2
 753 231 l 2
 729 231 716 224 708 195 c 2
 697 155 l 2
 640 -54 542 -205 435 -205 c 0
 390 -205 346 -174 346 -128 c 0
 346 -96 369 -68 401 -68 c 0
 424 -68 445 -82 445 -108 c 0
 445 -151 413 -151 413 -166 c 0
 413 -173 419 -177 431 -177 c 0
 510 -177 555 -18 607 150 c 2
 622 198 l 2
 627 215 628 231 596 231 c 2
 463 231 l 2
 439 231 426 224 418 195 c 2
 407 155 l 2
 350 -54 252 -205 145 -205 c 0
 100 -205 56 -174 56 -128 c 0
 56 -96 79 -68 111 -68 c 0
 134 -68 155 -82 155 -108 c 0
 155 -151 123 -151 123 -166 c 0
 123 -173 129 -177 141 -177 c 0
 220 -177 265 -18 317 150 c 2
 332 198 l 2
 337 215 338 231 306 231 c 2
 264 231 l 2
 256 231 249 234 253 249 c 0
 257 263 264 262 277 262 c 2
 319 262 l 2
 347 262 355 269 367 295 c 1
 411 400 465 466 549 466 c 0xafe0
896 -194 m 2x77e0
 676 -194 l 2
 667 -194 665 -189 666 -180 c 0
 667 -169 672 -163 684 -163 c 2
 716 -163 l 2
 745 -163 750 -155 760 -133 c 2
 883 135 l 2
 895 162 905 188 905 203 c 0
 905 221 896 224 887 224 c 0
 849 224 811 145 782 93 c 0
 776 81 770 74 765 74 c 0
 759 74 752 79 752 86 c 0
 752 90 753 96 756 103 c 0
 790 175 833 273 923 273 c 0
 943 273 963 261 975 242 c 0
 991 216 998 213 1026 234 c 0
 1055 255 1083 269 1111 269 c 0
 1153 269 1182 235 1182 185 c 0
 1182 82 1106 -37 1007 -37 c 0
 979 -37 962 -25 948 -11 c 0
 920 13 910 -1 901 -21 c 2
 852 -129 l 2
 841 -153 843 -163 865 -163 c 2
 904 -163 l 2
 916 -163 917 -172 915 -180 c 0
 914 -189 906 -194 896 -194 c 2x77e0
949 57 m 0
 949 29 965 1 989 1 c 0
 1029 1 1056 45 1080 95 c 0
 1095 126 1106 159 1106 184 c 0
 1106 213 1095 225 1078 225 c 0
 1044 225 999 184 972 135 c 0
 957 107 949 86 949 57 c 0
142 235 m 0xf4c0
 107 235 80 219 80 195 c 0xf4c0
 80 176 109 163 130 153 c 0
 166 136 198 114 198 74 c 0
 198 18 148 -8 90 -8 c 0
 41 -8 0 11 0 54 c 0
 0 81 18 102 42 102 c 0
 60 102 71 88 71 71 c 0
 71 52 51 48 51 35 c 0
 51 19 76 17 94 17 c 0
 129 17 156 35 156 61 c 0xf940
 156 89 135 101 101 116 c 0
 69 130 43 149 43 183 c 0
 43 233 93 259 145 259 c 0
 190 259 225 236 225 196 c 0
 225 170 207 157 190 157 c 0
 175 157 159 168 159 185 c 0
 159 203 177 207 177 218 c 0
 177 230 163 235 142 235 c 0xf4c0
EndSplineSet
EndChar

